<svg width="30" height="30" viewBox="0 0 30 30" fill="none" xmlns="http://www.w3.org/2000/svg">
<path d="M4.773 27.8125C4.59719 27.8125 4.4375 27.6632 4.4375 27.4613V2.53875C4.4375 2.33675 4.5972 2.1875 4.773 2.1875H12.0632C12.0627 2.20832 12.0625 2.22915 12.0625 2.25C12.0625 3.87014 13.3799 5.1875 15 5.1875C16.6201 5.1875 17.9375 3.87014 17.9375 2.25C17.9375 2.22915 17.9373 2.20832 17.9368 2.1875H25.2274C25.4032 2.1875 25.5629 2.33675 25.5629 2.53875V27.4613C25.5629 27.6632 25.4032 27.8125 25.2274 27.8125H4.773Z" fill="#F5C276" stroke="black"/>
<mask id="path-2-inside-1_403_29" fill="white">
<path d="M25.2274 1.875C25.5844 1.875 25.875 2.17275 25.875 2.53838V27.4616C25.875 27.8273 25.5844 28.125 25.2274 28.125H4.77263C4.41563 28.125 4.125 27.8273 4.125 27.4616V2.53838C4.125 2.17275 4.41563 1.875 4.77263 1.875H12.4046C12.3847 2.00063 12.375 2.12512 12.375 2.25C12.375 3.6975 13.5525 4.875 15 4.875C16.4475 4.875 17.625 3.6975 17.625 2.25C17.625 2.12512 17.6153 2.00063 17.5954 1.875H25.2274ZM25.2274 1.5H17.1124C17.196 1.7355 17.25 1.98563 17.25 2.25C17.25 3.49275 16.2427 4.5 15 4.5C13.7573 4.5 12.75 3.49275 12.75 2.25C12.75 1.98563 12.804 1.7355 12.8876 1.5H4.77263C4.20788 1.5 3.75 1.965 3.75 2.53838V27.4616C3.75 28.035 4.20788 28.5 4.77263 28.5H25.227C25.7921 28.5 26.25 28.035 26.25 27.4616V2.53838C26.25 1.965 25.7921 1.5 25.2274 1.5Z"/>
</mask>
<path d="M25.2274 1.875C25.5844 1.875 25.875 2.17275 25.875 2.53838V27.4616C25.875 27.8273 25.5844 28.125 25.2274 28.125H4.77263C4.41563 28.125 4.125 27.8273 4.125 27.4616V2.53838C4.125 2.17275 4.41563 1.875 4.77263 1.875H12.4046C12.3847 2.00063 12.375 2.12512 12.375 2.25C12.375 3.6975 13.5525 4.875 15 4.875C16.4475 4.875 17.625 3.6975 17.625 2.25C17.625 2.12512 17.6153 2.00063 17.5954 1.875H25.2274ZM25.2274 1.5H17.1124C17.196 1.7355 17.25 1.98563 17.25 2.25C17.25 3.49275 16.2427 4.5 15 4.5C13.7573 4.5 12.75 3.49275 12.75 2.25C12.75 1.98563 12.804 1.7355 12.8876 1.5H4.77263C4.20788 1.5 3.75 1.965 3.75 2.53838V27.4616C3.75 28.035 4.20788 28.5 4.77263 28.5H25.227C25.7921 28.5 26.25 28.035 26.25 27.4616V2.53838C26.25 1.965 25.7921 1.5 25.2274 1.5Z" fill="black"/>
<path d="M12.4046 1.875L13.3923 2.03127L13.5753 0.875H12.4046V1.875ZM17.5954 1.875V0.875H16.4247L16.6077 2.03127L17.5954 1.875ZM17.1124 1.5V0.5H15.6961L16.17 1.83462L17.1124 1.5ZM12.8876 1.5L13.83 1.83462L14.3039 0.5H12.8876V1.5ZM25.2274 2.875C25.0095 2.875 24.875 2.70219 24.875 2.53838H26.875C26.875 1.64331 26.1592 0.875 25.2274 0.875V2.875ZM24.875 2.53838V27.4616H26.875V2.53838H24.875ZM24.875 27.4616C24.875 27.2978 25.0095 27.125 25.2274 27.125V29.125C26.1592 29.125 26.875 28.3567 26.875 27.4616H24.875ZM25.2274 27.125H4.77263V29.125H25.2274V27.125ZM4.77263 27.125C4.99048 27.125 5.125 27.2978 5.125 27.4616H3.125C3.125 28.3567 3.84077 29.125 4.77263 29.125V27.125ZM5.125 27.4616V2.53838H3.125V27.4616H5.125ZM5.125 2.53838C5.125 2.70219 4.99048 2.875 4.77263 2.875V0.875C3.84077 0.875 3.125 1.64331 3.125 2.53838H5.125ZM4.77263 2.875H12.4046V0.875H4.77263V2.875ZM11.4169 1.71873C11.3889 1.89577 11.375 2.07252 11.375 2.25H13.375C13.375 2.17773 13.3806 2.10548 13.3923 2.03127L11.4169 1.71873ZM11.375 2.25C11.375 4.24978 13.0002 5.875 15 5.875V3.875C14.1048 3.875 13.375 3.14522 13.375 2.25H11.375ZM15 5.875C16.9998 5.875 18.625 4.24978 18.625 2.25H16.625C16.625 3.14522 15.8952 3.875 15 3.875V5.875ZM18.625 2.25C18.625 2.07252 18.6111 1.89577 18.5831 1.71873L16.6077 2.03127C16.6194 2.10548 16.625 2.17773 16.625 2.25H18.625ZM17.5954 2.875H25.2274V0.875H17.5954V2.875ZM25.2274 0.5H17.1124V2.5H25.2274V0.5ZM16.17 1.83462C16.2244 1.98782 16.25 2.12357 16.25 2.25H18.25C18.25 1.84768 18.1676 1.48318 18.0547 1.16538L16.17 1.83462ZM16.25 2.25C16.25 2.94047 15.6905 3.5 15 3.5V5.5C16.795 5.5 18.25 4.04503 18.25 2.25H16.25ZM15 3.5C14.3095 3.5 13.75 2.94047 13.75 2.25H11.75C11.75 4.04503 13.205 5.5 15 5.5V3.5ZM13.75 2.25C13.75 2.12357 13.7756 1.98782 13.83 1.83462L11.9453 1.16538C11.8324 1.48318 11.75 1.84768 11.75 2.25H13.75ZM12.8876 0.5H4.77263V2.5H12.8876V0.5ZM4.77263 0.5C3.64119 0.5 2.75 1.42723 2.75 2.53838H4.75C4.75 2.52911 4.75168 2.52309 4.75347 2.51879C4.75552 2.51386 4.75854 2.50939 4.76204 2.50584C4.76553 2.50229 4.76831 2.50084 4.76926 2.50043C4.7695 2.50033 4.76992 2.5 4.77263 2.5V0.5ZM2.75 2.53838V27.4616H4.75V2.53838H2.75ZM2.75 27.4616C2.75 28.5728 3.64119 29.5 4.77263 29.5V27.5C4.76992 27.5 4.7695 27.4997 4.76926 27.4996C4.76831 27.4992 4.76553 27.4977 4.76204 27.4942C4.75854 27.4906 4.75552 27.4861 4.75347 27.4812C4.75168 27.4769 4.75 27.4709 4.75 27.4616H2.75ZM4.77263 29.5H25.227V27.5H4.77263V29.5ZM25.227 29.5C26.3586 29.5 27.25 28.573 27.25 27.4616H25.25C25.25 27.4709 25.2483 27.4769 25.2465 27.4812C25.2445 27.4861 25.2415 27.4905 25.238 27.4941C25.2345 27.4976 25.2317 27.4991 25.2307 27.4995C25.2304 27.4996 25.2299 27.5 25.227 27.5V29.5ZM27.25 27.4616V2.53838H25.25V27.4616H27.25ZM27.25 2.53838C27.25 1.42723 26.3588 0.5 25.2274 0.5V2.5C25.2301 2.5 25.2305 2.50033 25.2307 2.50043C25.2317 2.50084 25.2345 2.50229 25.238 2.50584C25.2415 2.50939 25.2445 2.51386 25.2465 2.51879C25.2483 2.52309 25.25 2.52911 25.25 2.53838H27.25Z" fill="black" mask="url(#path-2-inside-1_403_29)"/>
<path d="M7.25 5H22.75V25H7.25V5Z" fill="white" stroke="black"/>
<path d="M9.75 15.7133L13.2746 19.2379L20.25 12.2621" stroke="#5E9C76" stroke-width="6" stroke-miterlimit="10"/>
<path d="M16.7167 1.5C16.8855 1.88588 16.9335 2.337 16.7906 2.81025C16.6054 3.42488 16.0882 3.9195 15.4639 4.0695C14.2275 4.36575 13.125 3.4365 13.125 2.25C13.125 1.983 13.1828 1.72987 13.2833 1.5H9.75V4.5C9.75 5.32838 10.4216 6 11.25 6H18.75C19.5784 6 20.25 5.32838 20.25 4.5V1.5H16.7167Z" fill="#3E3E3E"/>
<path d="M15 0.75C15.8273 0.75 16.5 1.42275 16.5 2.25C16.5 3.07725 15.8273 3.75 15 3.75C14.1727 3.75 13.5 3.07725 13.5 2.25C13.5 1.42275 14.1727 0.75 15 0.75ZM15 0C13.7573 0 12.75 1.00725 12.75 2.25C12.75 3.49275 13.7573 4.5 15 4.5C16.2427 4.5 17.25 3.49275 17.25 2.25C17.25 1.00725 16.2427 0 15 0Z" fill="#3E3E3E"/>
</svg>
