<svg width="32" height="32" viewBox="0 0 32 32" fill="none" xmlns="http://www.w3.org/2000/svg">
<g clip-path="url(#clip0_45_159)">
<path d="M16 19C14.8449 19.001 13.7076 18.7157 12.6897 18.1698C11.6719 17.6238 10.8051 16.8341 10.167 15.8713L11.833 14.7639C12.2892 15.4515 12.9084 16.0155 13.6355 16.4057C14.3625 16.7958 15.1749 17 16 17C16.8251 17 17.6374 16.7958 18.3645 16.4057C19.0916 16.0155 19.7108 15.4515 20.167 14.7639L21.833 15.8713C21.1949 16.8341 20.3281 17.6238 19.3102 18.1698C18.2924 18.7157 17.1551 19.001 16 19Z" fill="white"/>
<path d="M20 7.99997C19.6044 7.99997 19.2178 8.11727 18.8889 8.33703C18.56 8.5568 18.3036 8.86916 18.1522 9.23461C18.0009 9.60006 17.9613 10.0022 18.0384 10.3902C18.1156 10.7781 18.3061 11.1345 18.5858 11.4142C18.8655 11.6939 19.2219 11.8844 19.6098 11.9615C19.9978 12.0387 20.3999 11.9991 20.7654 11.8477C21.1308 11.6964 21.4432 11.44 21.6629 11.1111C21.8827 10.7822 22 10.3955 22 9.99997C22.0026 9.73661 21.9526 9.47537 21.853 9.23155C21.7535 8.98773 21.6062 8.76622 21.42 8.57998C21.2338 8.39375 21.0122 8.24653 20.7684 8.14693C20.5246 8.04734 20.2634 7.99738 20 7.99997Z" fill="white"/>
<path d="M12 7.99997C11.6044 7.99997 11.2178 8.11727 10.8889 8.33703C10.56 8.5568 10.3036 8.86916 10.1522 9.23461C10.0009 9.60006 9.96126 10.0022 10.0384 10.3902C10.1156 10.7781 10.3061 11.1345 10.5858 11.4142C10.8655 11.6939 11.2219 11.8844 11.6098 11.9615C11.9978 12.0387 12.3999 11.9991 12.7654 11.8477C13.1308 11.6964 13.4432 11.44 13.6629 11.1111C13.8827 10.7822 14 10.3955 14 9.99997C14.0026 9.73661 13.9526 9.47537 13.853 9.23155C13.7534 8.98773 13.6062 8.76622 13.42 8.57998C13.2338 8.39375 13.0122 8.24653 12.7684 8.14693C12.5246 8.04734 12.2634 7.99738 12 7.99997Z" fill="white"/>
<path d="M17.7358 30L16 29L20 22H26C26.2628 22.0004 26.523 21.949 26.7659 21.8487C27.0087 21.7483 27.2294 21.601 27.4152 21.4152C27.601 21.2294 27.7483 21.0087 27.8487 20.7659C27.949 20.523 28.0004 20.2628 28 20V6C28.0004 5.73723 27.949 5.47696 27.8487 5.2341C27.7483 4.99125 27.601 4.77059 27.4152 4.58479C27.2294 4.39898 27.0087 4.25168 26.7659 4.15133C26.523 4.05098 26.2628 3.99955 26 4H6C5.73723 3.99955 5.47696 4.05098 5.2341 4.15133C4.99125 4.25168 4.77059 4.39898 4.58479 4.58479C4.39898 4.77059 4.25168 4.99125 4.15133 5.2341C4.05098 5.47696 3.99955 5.73723 4 6V20C3.99955 20.2628 4.05098 20.523 4.15133 20.7659C4.25168 21.0087 4.39898 21.2294 4.58479 21.4152C4.77059 21.601 4.99125 21.7483 5.2341 21.8487C5.47696 21.949 5.73723 22.0004 6 22H15V24H6C5.47469 24.0001 4.9545 23.8967 4.46916 23.6957C3.98381 23.4947 3.54282 23.2001 3.17137 22.8286C2.79992 22.4572 2.50528 22.0162 2.30429 21.5308C2.10331 21.0455 1.99991 20.5253 2 20V6C1.99984 5.47467 2.1032 4.95445 2.30416 4.46908C2.50512 3.98371 2.79976 3.54269 3.17122 3.17122C3.54269 2.79976 3.98371 2.50512 4.46908 2.30416C4.95445 2.1032 5.47467 1.99984 6 2H26C26.5253 1.99984 27.0455 2.1032 27.5309 2.30416C28.0163 2.50512 28.4573 2.79976 28.8288 3.17122C29.2002 3.54269 29.4949 3.98371 29.6958 4.46908C29.8968 4.95445 30.0002 5.47467 30 6V20C30.0001 20.5253 29.8967 21.0455 29.6957 21.5308C29.4947 22.0162 29.2001 22.4572 28.8286 22.8286C28.4572 23.2001 28.0162 23.4947 27.5308 23.6957C27.0455 23.8967 26.5253 24.0001 26 24H21.1646L17.7358 30Z" fill="white"/>
</g>
<defs>
<clipPath id="clip0_45_159">
<rect width="32" height="32" fill="white"/>
</clipPath>
</defs>
</svg>
