<svg width="30" height="30" viewBox="0 0 30 30" fill="none" xmlns="http://www.w3.org/2000/svg">
<path d="M5.15625 8.90625C5.15625 8.90625 5.15625 7.03125 7.03125 7.03125C8.90625 7.03125 22.0312 7.03125 22.0312 7.03125C22.0312 7.03125 23.9062 7.03125 23.9062 8.90625V18.2812C23.9062 18.2812 23.9062 20.1562 22.0312 20.1562H7.03125C7.03125 20.1562 5.15625 20.1562 5.15625 18.2812V8.90625Z" fill="#BFBFBF"/>
<path d="M9.375 14.5312C10.6694 14.5312 11.7188 13.4819 11.7188 12.1875C11.7188 10.8931 10.6694 9.84375 9.375 9.84375C8.08058 9.84375 7.03125 10.8931 7.03125 12.1875C7.03125 13.4819 8.08058 14.5312 9.375 14.5312Z" fill="#67DDE0"/>
<path d="M19.6875 14.5312C20.9819 14.5312 22.0312 13.4819 22.0312 12.1875C22.0312 10.8931 20.9819 9.84375 19.6875 9.84375C18.3931 9.84375 17.3438 10.8931 17.3438 12.1875C17.3438 13.4819 18.3931 14.5312 19.6875 14.5312Z" fill="#67DDE0"/>
<path d="M9.84375 20.1562V17.3438C9.84375 17.3438 9.84375 16.4062 10.7812 16.4062H18.2812C18.2812 16.4062 19.2188 16.4062 19.2188 17.3438V20.1562" fill="#AAAAAA"/>
<path d="M5.15625 9.84375H4.21875C4.21875 9.84375 3.28125 9.84375 3.28125 10.7812V16.4062C3.28125 16.4062 3.28125 17.3438 4.21875 17.3438H5.15625V9.84375Z" fill="#AAAAAA"/>
<path d="M23.9062 9.84375H24.8438C24.8438 9.84375 25.7812 9.84375 25.7812 10.7812V16.4062C25.7812 16.4062 25.7812 17.3438 24.8438 17.3438H23.9062V9.84375Z" fill="#AAAAAA"/>
<path d="M18.2812 20.1562H10.7812V22.0312H18.2812V20.1562Z" fill="#BFBFBF"/>
<path d="M4.21875 28.125V24.8438C4.21875 22.0312 7.03125 22.0312 7.03125 22.0312H9.84375H22.0312C22.0312 22.0312 24.8438 22.0312 24.8438 24.8438V28.125" fill="#AAAAAA"/>
<path d="M7.96875 28.125V25.7812C7.96875 25.7812 7.96875 24.8438 8.90625 24.8438C9.84375 24.8438 20.1562 24.8438 20.1562 24.8438C20.1562 24.8438 21.0938 24.8438 21.0938 25.7812V28.125" fill="#FF61E1"/>
<path d="M14.5312 4.6875V6.5625" stroke="black" stroke-miterlimit="10"/>
<path d="M14.5312 5.15625C15.5668 5.15625 16.4062 4.31678 16.4062 3.28125C16.4062 2.24572 15.5668 1.40625 14.5312 1.40625C13.4957 1.40625 12.6562 2.24572 12.6562 3.28125C12.6562 4.31678 13.4957 5.15625 14.5312 5.15625Z" fill="#67DDE0"/>
<path d="M5.15625 8.90625C5.15625 8.90625 5.15625 7.03125 7.03125 7.03125C8.90625 7.03125 22.0312 7.03125 22.0312 7.03125C22.0312 7.03125 23.9062 7.03125 23.9062 8.90625V18.2812C23.9062 18.2812 23.9062 20.1562 22.0312 20.1562H7.03125C7.03125 20.1562 5.15625 20.1562 5.15625 18.2812V8.90625Z" stroke="black" stroke-miterlimit="10"/>
<path d="M9.375 14.5312C10.6694 14.5312 11.7188 13.4819 11.7188 12.1875C11.7188 10.8931 10.6694 9.84375 9.375 9.84375C8.08058 9.84375 7.03125 10.8931 7.03125 12.1875C7.03125 13.4819 8.08058 14.5312 9.375 14.5312Z" stroke="black" stroke-miterlimit="10"/>
<path d="M19.6875 14.5312C20.9819 14.5312 22.0312 13.4819 22.0312 12.1875C22.0312 10.8931 20.9819 9.84375 19.6875 9.84375C18.3931 9.84375 17.3438 10.8931 17.3438 12.1875C17.3438 13.4819 18.3931 14.5312 19.6875 14.5312Z" stroke="black" stroke-miterlimit="10"/>
<path d="M9.84375 20.1562V17.3438C9.84375 17.3438 9.84375 16.4062 10.7812 16.4062H18.2812C18.2812 16.4062 19.2188 16.4062 19.2188 17.3438V20.1562" stroke="black" stroke-miterlimit="10"/>
<path d="M5.15625 9.84375H4.21875C4.21875 9.84375 3.28125 9.84375 3.28125 10.7812V16.4062C3.28125 16.4062 3.28125 17.3438 4.21875 17.3438H5.15625V9.84375Z" stroke="black" stroke-miterlimit="10"/>
<path d="M23.9062 9.84375H24.8438C24.8438 9.84375 25.7812 9.84375 25.7812 10.7812V16.4062C25.7812 16.4062 25.7812 17.3438 24.8438 17.3438H23.9062V9.84375Z" stroke="black" stroke-miterlimit="10"/>
<path d="M18.2812 20.1562H10.7812V22.0312H18.2812V20.1562Z" stroke="black" stroke-miterlimit="10"/>
<path d="M4.21875 28.125V24.8438C4.21875 22.0312 7.03125 22.0312 7.03125 22.0312H9.84375H22.0312C22.0312 22.0312 24.8438 22.0312 24.8438 24.8438V28.125" stroke="black" stroke-miterlimit="10"/>
<path d="M7.96875 28.125V25.7812C7.96875 25.7812 7.96875 24.8438 8.90625 24.8438C9.84375 24.8438 20.1562 24.8438 20.1562 24.8438C20.1562 24.8438 21.0938 24.8438 21.0938 25.7812V28.125" stroke="black" stroke-miterlimit="10"/>
<path d="M7.96875 26.7188H21.0938" stroke="black" stroke-miterlimit="10"/>
<path d="M14.5312 4.6875V6.5625" stroke="black" stroke-miterlimit="10"/>
<path d="M14.5312 5.15625C15.5668 5.15625 16.4062 4.31678 16.4062 3.28125C16.4062 2.24572 15.5668 1.40625 14.5312 1.40625C13.4957 1.40625 12.6562 2.24572 12.6562 3.28125C12.6562 4.31678 13.4957 5.15625 14.5312 5.15625Z" stroke="black" stroke-miterlimit="10"/>
</svg>
