<svg width="30" height="30" viewBox="0 0 30 30" fill="none" xmlns="http://www.w3.org/2000/svg">
<path d="M29.375 3.75H4.375C4.02954 3.75 3.75 4.02954 3.75 4.375V7.5H0.625C0.279541 7.5 0 7.77954 0 8.125V23.75C0 25.1288 1.12183 26.25 2.5 26.25H27.5C28.8782 26.25 30 25.1288 30 23.75V4.375C30 4.02954 29.7205 3.75 29.375 3.75Z" fill="black"/>
<path d="M3.75 23.75C3.75 24.4391 3.1897 25 2.5 25C1.8103 25 1.25 24.4391 1.25 23.75V8.75H3.75V23.75Z" fill="#E6E6E5"/>
<path opacity="0.1" d="M2.50226 22.263C2.50241 23.0002 2.46732 23.7375 2.36295 24.4672C2.34097 24.6209 2.32373 24.7895 2.31274 24.9621C2.37637 24.9721 2.43359 25 2.50005 25C3.18974 25 3.75005 24.4391 3.75005 23.75V8.75H2.5005L2.50226 22.263Z" fill="black"/>
<path d="M28.75 23.75C28.75 24.4391 28.1897 25 27.5 25H4.66431C4.87793 24.632 5 24.2047 5 23.75V5H28.75V23.75Z" fill="#F3F3F3"/>
<path d="M6.875 13.75C7.22046 13.75 7.5 13.4705 7.5 13.125V8.75H8.125C8.46924 8.75 8.75 9.03015 8.75 9.375V13.125C8.75 13.4705 9.02954 13.75 9.375 13.75C9.72046 13.75 10 13.4705 10 13.125V9.375C10 8.34106 9.15894 7.5 8.125 7.5H6.875C6.52954 7.5 6.25 7.77954 6.25 8.125V13.125C6.25 13.4705 6.52954 13.75 6.875 13.75Z" fill="black"/>
<path d="M11.875 13.75H14.375C14.7205 13.75 15 13.4705 15 13.125C15 12.7795 14.7205 12.5 14.375 12.5H12.5V11.25H13.75C14.0955 11.25 14.375 10.9705 14.375 10.625C14.375 10.2795 14.0955 10 13.75 10H12.5V8.75H14.375C14.7205 8.75 15 8.47046 15 8.125C15 7.77954 14.7205 7.5 14.375 7.5H11.875C11.5295 7.5 11.25 7.77954 11.25 8.125V13.125C11.25 13.4705 11.5295 13.75 11.875 13.75Z" fill="black"/>
<path d="M17.605 13.4717C17.7209 13.6456 17.9163 13.75 18.125 13.75C18.3337 13.75 18.5291 13.6456 18.645 13.4717L19.375 12.3767L20.105 13.4717C20.2209 13.6456 20.4163 13.75 20.625 13.75C20.8337 13.75 21.0291 13.6456 21.145 13.4717L22.395 11.5967C22.4634 11.4941 22.5 11.3733 22.5 11.25V8.125C22.5 7.77954 22.2205 7.5 21.875 7.5C21.5295 7.5 21.25 7.77954 21.25 8.125V11.0608L20.625 11.9983L20 11.0608V8.125C20 7.77954 19.7205 7.5 19.375 7.5C19.0295 7.5 18.75 7.77954 18.75 8.125V11.0608L18.125 11.9983L17.5 11.0608V8.125C17.5 7.77954 17.2205 7.5 16.875 7.5C16.5295 7.5 16.25 7.77954 16.25 8.125V11.25C16.25 11.3733 16.2866 11.4941 16.355 11.5967L17.605 13.4717Z" fill="black"/>
<path d="M25.625 12.5H24.375C24.0295 12.5 23.75 12.7795 23.75 13.125C23.75 13.4705 24.0295 13.75 24.375 13.75H25.625C26.6589 13.75 27.5 12.9089 27.5 11.875C27.5 10.8411 26.6589 10 25.625 10C25.2808 10 25 9.71985 25 9.375C25 9.03015 25.2808 8.75 25.625 8.75H26.875C27.2205 8.75 27.5 8.47046 27.5 8.125C27.5 7.77954 27.2205 7.5 26.875 7.5H25.625C24.5911 7.5 23.75 8.34106 23.75 9.375C23.75 10.4089 24.5911 11.25 25.625 11.25C25.9692 11.25 26.25 11.5302 26.25 11.875C26.25 12.2198 25.9692 12.5 25.625 12.5Z" fill="black"/>
<path d="M6.875 22.5H15.625C15.9705 22.5 16.25 22.2205 16.25 21.875V15.625C16.25 15.2795 15.9705 15 15.625 15H6.875C6.52954 15 6.25 15.2795 6.25 15.625V21.875C6.25 22.2205 6.52954 22.5 6.875 22.5Z" fill="black"/>
<path d="M26.875 16.25H18.125C17.7795 16.25 17.5 16.5295 17.5 16.875C17.5 17.2205 17.7795 17.5 18.125 17.5H26.875C27.2205 17.5 27.5 17.2205 27.5 16.875C27.5 16.5295 27.2205 16.25 26.875 16.25Z" fill="black"/>
<path d="M26.875 18.75H18.125C17.7795 18.75 17.5 19.0295 17.5 19.375C17.5 19.7205 17.7795 20 18.125 20H26.875C27.2205 20 27.5 19.7205 27.5 19.375C27.5 19.0295 27.2205 18.75 26.875 18.75Z" fill="black"/>
<path d="M26.875 21.25H18.125C17.7795 21.25 17.5 21.5295 17.5 21.875C17.5 22.2205 17.7795 22.5 18.125 22.5H26.875C27.2205 22.5 27.5 22.2205 27.5 21.875C27.5 21.5295 27.2205 21.25 26.875 21.25Z" fill="black"/>
<path d="M15 16.25H7.5V21.25H15V16.25Z" fill="#3D82C4"/>
<path d="M29.375 3.75H4.375C4.02954 3.75 3.75 4.02954 3.75 4.375V7.5H0.625C0.279541 7.5 0 7.77954 0 8.125V23.75C0 25.1288 1.12183 26.25 2.5 26.25H27.5C28.8782 26.25 30 25.1288 30 23.75V4.375C30 4.02954 29.7205 3.75 29.375 3.75Z" fill="url(#paint0_linear_1413_81)"/>
<defs>
<linearGradient id="paint0_linear_1413_81" x1="0.12293" y1="7.72224" x2="31.0149" y2="22.1274" gradientUnits="userSpaceOnUse">
<stop stop-color="white" stop-opacity="0.2"/>
<stop offset="1" stop-color="white" stop-opacity="0"/>
</linearGradient>
</defs>
</svg>
