<svg width="30" height="30" viewBox="0 0 30 30" fill="none" xmlns="http://www.w3.org/2000/svg">
<path d="M22.8469 5.31094H21.7078C21.6133 5.31094 21.5227 5.2734 21.4559 5.20659C21.3891 5.13978 21.3516 5.04917 21.3516 4.95469C21.3516 4.8602 21.3891 4.76959 21.4559 4.70278C21.5227 4.63597 21.6133 4.59844 21.7078 4.59844H22.275C22.3037 4.59969 22.3324 4.5952 22.3593 4.58522C22.3863 4.57524 22.4109 4.55998 22.4319 4.54033C22.4529 4.52067 22.4697 4.49703 22.4814 4.47079C22.4931 4.44454 22.4994 4.41623 22.5 4.3875C22.5 4.35918 22.5056 4.33114 22.5164 4.30498C22.5272 4.27882 22.5431 4.25505 22.5632 4.23503C22.5832 4.21501 22.6069 4.19912 22.6331 4.18829C22.6593 4.17745 22.6873 4.17187 22.7156 4.17188H23.8547C23.9492 4.17188 24.0398 4.20941 24.1066 4.27622C24.1734 4.34303 24.2109 4.43364 24.2109 4.52813C24.2109 4.62261 24.1734 4.71322 24.1066 4.78003C24.0398 4.84684 23.9492 4.88438 23.8547 4.88438H23.2734C23.2163 4.88438 23.1614 4.90709 23.121 4.94753C23.0805 4.98797 23.0578 5.04281 23.0578 5.1C23.0566 5.15557 23.034 5.20853 22.9947 5.24783C22.9554 5.28713 22.9024 5.30974 22.8469 5.31094Z" fill="#D9EBF4"/>
<path d="M23.7704 5.87341H24.4313C24.4637 5.87341 24.4947 5.88625 24.5175 5.90911C24.5404 5.93197 24.5532 5.96296 24.5532 5.99529C24.5532 6.02761 24.5661 6.05861 24.5889 6.08147C24.6118 6.10432 24.6428 6.11716 24.6751 6.11716H25.0032C25.0579 6.11716 25.1104 6.13889 25.1491 6.17757C25.1877 6.21625 25.2095 6.26871 25.2095 6.32341C25.2095 6.37811 25.1877 6.43057 25.1491 6.46925C25.1104 6.50793 25.0579 6.52966 25.0032 6.52966H24.347C24.3146 6.52966 24.2837 6.51682 24.2608 6.49397C24.2379 6.47111 24.2251 6.44011 24.2251 6.40779C24.2251 6.37546 24.2123 6.34447 24.1894 6.32161C24.1665 6.29875 24.1355 6.28591 24.1032 6.28591H23.7751C23.7204 6.28591 23.6679 6.26418 23.6293 6.2255C23.5906 6.18682 23.5688 6.13436 23.5688 6.07966C23.5688 6.02496 23.5906 5.9725 23.6293 5.93382C23.6679 5.89514 23.7204 5.87341 23.7751 5.87341H23.7704Z" fill="#D9EBF4"/>
<path d="M21.5627 2.26404H22.2189C22.2513 2.26404 22.2823 2.27688 22.3051 2.29973C22.328 2.32259 22.3408 2.35359 22.3408 2.38591C22.3408 2.41824 22.3537 2.44924 22.3765 2.47209C22.3994 2.49495 22.4304 2.50779 22.4627 2.50779H22.7908C22.8455 2.50779 22.898 2.52952 22.9367 2.5682C22.9753 2.60688 22.9971 2.65934 22.9971 2.71404C22.9971 2.76874 22.9753 2.8212 22.9367 2.85988C22.898 2.89856 22.8455 2.92029 22.7908 2.92029H22.1393C22.1117 2.91726 22.086 2.90492 22.0664 2.88532C22.0468 2.86572 22.0345 2.84003 22.0314 2.81248C22.0314 2.78015 22.0186 2.74915 21.9957 2.7263C21.9729 2.70344 21.9419 2.6906 21.9096 2.6906H21.5627C21.508 2.6906 21.4555 2.66887 21.4169 2.63019C21.3782 2.59151 21.3564 2.53905 21.3564 2.48435C21.3564 2.42965 21.3782 2.37719 21.4169 2.33851C21.4555 2.29983 21.508 2.2781 21.5627 2.2781V2.26404Z" fill="#D9EBF4"/>
<path d="M27.3046 6.97032C27.4677 6.97032 27.5999 6.83811 27.5999 6.67501C27.5999 6.51192 27.4677 6.3797 27.3046 6.3797C27.1415 6.3797 27.0093 6.51192 27.0093 6.67501C27.0093 6.83811 27.1415 6.97032 27.3046 6.97032Z" fill="#D9EBF4"/>
<path d="M22.7718 7.02659C22.9297 7.02659 23.0577 6.89857 23.0577 6.74065C23.0577 6.58273 22.9297 6.45471 22.7718 6.45471C22.6139 6.45471 22.4858 6.58273 22.4858 6.74065C22.4858 6.89857 22.6139 7.02659 22.7718 7.02659Z" fill="#D9EBF4"/>
<path d="M21.3515 7.78594C21.6052 7.78594 21.8108 7.58027 21.8108 7.32656C21.8108 7.07286 21.6052 6.86719 21.3515 6.86719C21.0978 6.86719 20.8921 7.07286 20.8921 7.32656C20.8921 7.58027 21.0978 7.78594 21.3515 7.78594Z" fill="#D9EBF4"/>
<path d="M21.0748 3.90938C21.1576 3.90938 21.2248 3.84222 21.2248 3.75938C21.2248 3.67653 21.1576 3.60938 21.0748 3.60938C20.992 3.60938 20.9248 3.67653 20.9248 3.75938C20.9248 3.84222 20.992 3.90938 21.0748 3.90938Z" fill="#D9EBF4"/>
<path d="M25.758 7.50936C25.859 7.50936 25.9408 7.42752 25.9408 7.32655C25.9408 7.22559 25.859 7.14374 25.758 7.14374C25.657 7.14374 25.5752 7.22559 25.5752 7.32655C25.5752 7.42752 25.657 7.50936 25.758 7.50936Z" fill="#D9EBF4"/>
<path d="M24.3893 8.37654C24.6533 8.37654 24.8674 8.16247 24.8674 7.89841C24.8674 7.63435 24.6533 7.42029 24.3893 7.42029C24.1252 7.42029 23.9111 7.63435 23.9111 7.89841C23.9111 8.16247 24.1252 8.37654 24.3893 8.37654Z" fill="#D9EBF4"/>
<path d="M26.2451 6.20154C26.3357 6.20154 26.4092 6.12808 26.4092 6.03748C26.4092 5.94687 26.3357 5.87341 26.2451 5.87341C26.1545 5.87341 26.0811 5.94687 26.0811 6.03748C26.0811 6.12808 26.1545 6.20154 26.2451 6.20154Z" fill="#D9EBF4"/>
<path d="M6.15459 6.375C6.15459 6.31284 6.1299 6.25323 6.08594 6.20927C6.04199 6.16532 5.98237 6.14062 5.92021 6.14062H4.6874C4.58422 6.14062 4.48526 6.18162 4.41229 6.25458C4.33933 6.32754 4.29834 6.4265 4.29834 6.52969C4.29834 6.63287 4.33933 6.73183 4.41229 6.8048C4.48526 6.87776 4.58422 6.91875 4.6874 6.91875H5.29678C5.35894 6.91875 5.41855 6.94344 5.46251 6.9874C5.50646 7.03135 5.53115 7.09096 5.53115 7.15312C5.53115 7.21529 5.55585 7.2749 5.5998 7.31885C5.64375 7.36281 5.70337 7.3875 5.76553 7.3875H7.03115C7.13434 7.3875 7.2333 7.34651 7.30626 7.27355C7.37922 7.20058 7.42021 7.10162 7.42021 6.99844C7.42021 6.89525 7.37922 6.79629 7.30626 6.72333C7.2333 6.65037 7.13434 6.60938 7.03115 6.60938H6.38896C6.3268 6.60938 6.26719 6.58468 6.22324 6.54073C6.17928 6.49677 6.15459 6.43716 6.15459 6.375Z" fill="#D9EBF4"/>
<path d="M3.89063 8.14216C3.89063 8.10611 3.90495 8.07153 3.93044 8.04604C3.95593 8.02055 3.99051 8.00623 4.02656 8.00623H4.75313C4.8128 8.00623 4.87003 8.02993 4.91222 8.07213C4.95442 8.11432 4.97812 8.17155 4.97812 8.23123C4.97812 8.2909 4.95442 8.34813 4.91222 8.39033C4.87003 8.43252 4.8128 8.45623 4.75313 8.45623H4.3875C4.35145 8.45623 4.31687 8.47055 4.29138 8.49604C4.26588 8.52153 4.25156 8.55611 4.25156 8.59216C4.25156 8.62822 4.23724 8.66279 4.21175 8.68829C4.18625 8.71378 4.15168 8.7281 4.11562 8.7281H3.38906C3.32939 8.7281 3.27216 8.7044 3.22996 8.6622C3.18777 8.62 3.16406 8.56277 3.16406 8.5031C3.16406 8.44343 3.18777 8.3862 3.22996 8.344C3.27216 8.30181 3.32939 8.2781 3.38906 8.2781H3.75C3.76824 8.27873 3.78642 8.27568 3.80346 8.26913C3.8205 8.26258 3.83604 8.25267 3.84917 8.23998C3.86229 8.2273 3.87273 8.2121 3.87985 8.19529C3.88697 8.17848 3.89064 8.16042 3.89063 8.14216Z" fill="#D9EBF4"/>
<path d="M5.4375 12.1781C5.61872 12.1781 5.76563 12.0312 5.76563 11.85C5.76563 11.6688 5.61872 11.5219 5.4375 11.5219C5.25628 11.5219 5.10938 11.6688 5.10938 11.85C5.10938 12.0312 5.25628 12.1781 5.4375 12.1781Z" fill="#D9EBF4"/>
<path d="M5.84531 9.27656C6.01876 9.27656 6.15938 9.13595 6.15938 8.9625C6.15938 8.78905 6.01876 8.64844 5.84531 8.64844C5.67186 8.64844 5.53125 8.78905 5.53125 8.9625C5.53125 9.13595 5.67186 9.27656 5.84531 9.27656Z" fill="#D9EBF4"/>
<path d="M7.40615 10.1109C7.68575 10.1109 7.9124 9.88429 7.9124 9.6047C7.9124 9.32511 7.68575 9.09845 7.40615 9.09845C7.12656 9.09845 6.8999 9.32511 6.8999 9.6047C6.8999 9.88429 7.12656 10.1109 7.40615 10.1109Z" fill="#D9EBF4"/>
<path d="M7.71094 5.84534C7.80155 5.84534 7.875 5.77188 7.875 5.68127C7.875 5.59066 7.80155 5.51721 7.71094 5.51721C7.62033 5.51721 7.54688 5.59066 7.54688 5.68127C7.54688 5.77188 7.62033 5.84534 7.71094 5.84534Z" fill="#D9EBF4"/>
<path d="M2.56387 9.80626C2.67519 9.80626 2.76543 9.71602 2.76543 9.6047C2.76543 9.49338 2.67519 9.40314 2.56387 9.40314C2.45255 9.40314 2.3623 9.49338 2.3623 9.6047C2.3623 9.71602 2.45255 9.80626 2.56387 9.80626Z" fill="#D9EBF4"/>
<path d="M4.07334 10.7578C4.36329 10.7578 4.59834 10.5228 4.59834 10.2328C4.59834 9.94288 4.36329 9.70782 4.07334 9.70782C3.78339 9.70782 3.54834 9.94288 3.54834 10.2328C3.54834 10.5228 3.78339 10.7578 4.07334 10.7578Z" fill="#D9EBF4"/>
<path d="M2.02949 8.36721C2.13046 8.36721 2.2123 8.28536 2.2123 8.1844C2.2123 8.08343 2.13046 8.00159 2.02949 8.00159C1.92853 8.00159 1.84668 8.08343 1.84668 8.1844C1.84668 8.28536 1.92853 8.36721 2.02949 8.36721Z" fill="#D9EBF4"/>
<path d="M28.5938 27.736H1.40625" stroke="black" stroke-width="2" stroke-linecap="round" stroke-linejoin="round"/>
<path d="M5.3623 9.41248H24.6373C24.9481 9.41248 25.2462 9.53594 25.4659 9.75571C25.6857 9.97548 25.8092 10.2736 25.8092 10.5844V25.3875H4.19043V10.5844C4.19043 10.2736 4.31389 9.97548 4.53366 9.75571C4.75343 9.53594 5.0515 9.41248 5.3623 9.41248Z" fill="#B8CCE8"/>
<path d="M6.74043 9.41248H5.3623C5.0515 9.41248 4.75343 9.53594 4.53366 9.75571C4.31389 9.97548 4.19043 10.2736 4.19043 10.5844V25.3875H5.56855V10.5844C5.56855 10.2736 5.69202 9.97548 5.91179 9.75571C6.13156 9.53594 6.42963 9.41248 6.74043 9.41248Z" fill="#CEDFF4"/>
<path d="M24.6373 9.41248H5.36228C5.05148 9.41248 4.75341 9.53594 4.53364 9.75571C4.31387 9.97548 4.1904 10.2736 4.1904 10.5844V11.5219C4.18595 11.363 4.21372 11.2049 4.27203 11.0571C4.33035 10.9093 4.418 10.7748 4.5297 10.6618C4.6414 10.5488 4.77483 10.4596 4.92196 10.3995C5.06908 10.3395 5.22684 10.3099 5.38572 10.3125H24.6654C24.9717 10.3186 25.2633 10.4449 25.4773 10.6642C25.6912 10.8834 25.8104 11.178 25.8092 11.4844V10.5469C25.7994 10.2426 25.6717 9.95407 25.4529 9.74235C25.2342 9.53062 24.9417 9.41232 24.6373 9.41248Z" fill="#CEDFF4"/>
<path d="M24.6373 9.41248H5.3623C5.0515 9.41248 4.75343 9.53594 4.53366 9.75571C4.31389 9.97548 4.19043 10.2735 4.19043 10.5844V11.2078C4.19043 10.897 4.31389 10.5989 4.53366 10.3791C4.75343 10.1594 5.0515 10.0359 5.3623 10.0359H24.6373C24.9481 10.0359 25.2462 10.1594 25.4659 10.3791C25.6857 10.5989 25.8092 10.897 25.8092 11.2078V10.5844C25.8092 10.2735 25.6857 9.97548 25.4659 9.75571C25.2462 9.53594 24.9481 9.41248 24.6373 9.41248Z" fill="white"/>
<path d="M5.3623 10.3125H5.59668C5.65055 10.0486 5.79368 9.8113 6.002 9.64055C6.21031 9.4698 6.47108 9.37602 6.74043 9.375H5.3623C5.0515 9.375 4.75343 9.49847 4.53366 9.71823C4.31389 9.938 4.19043 10.2361 4.19043 10.5469V11.4844C4.19043 11.1736 4.31389 10.8755 4.53366 10.6557C4.75343 10.436 5.0515 10.3125 5.3623 10.3125Z" fill="white"/>
<path d="M5.3623 9.41248H24.6373C24.9481 9.41248 25.2462 9.53594 25.4659 9.75571C25.6857 9.97548 25.8092 10.2736 25.8092 10.5844V25.3875H4.19043V10.5844C4.19043 10.2736 4.31389 9.97548 4.53366 9.75571C4.75343 9.53594 5.0515 9.41248 5.3623 9.41248Z" stroke="black" stroke-linecap="round" stroke-linejoin="round"/>
<path d="M24.2249 25.3407H5.7749V11.4844C5.7749 11.4123 5.80355 11.3431 5.85453 11.2922C5.90552 11.2412 5.97467 11.2125 6.04678 11.2125H23.953C24.0251 11.2125 24.0943 11.2412 24.1453 11.2922C24.1963 11.3431 24.2249 11.4123 24.2249 11.4844V25.3407Z" fill="#326ACC"/>
<path d="M24.2248 25.3407V11.4844C24.2248 11.4123 24.1962 11.3431 24.1452 11.2922C24.0942 11.2412 24.025 11.2125 23.9529 11.2125H12.867L10.4482 12.211L13.0639 18.8438L17.5123 21.5625C17.8556 21.7726 18.139 22.0675 18.3352 22.4189C18.5314 22.7703 18.6338 23.1663 18.6326 23.5688V25.336L24.2248 25.3407Z" fill="#326ACC"/>
<path d="M24.2248 25.3407V11.4844C24.2248 11.4123 24.1962 11.3431 24.1452 11.2922C24.0942 11.2412 24.025 11.2125 23.9529 11.2125H12.867L10.4482 12.211L13.0639 18.8438L17.5123 21.5625C17.8556 21.7726 18.139 22.0675 18.3352 22.4189C18.5314 22.7703 18.6338 23.1663 18.6326 23.5688V25.336L24.2248 25.3407Z" fill="#326ACC"/>
<path d="M23.3625 25.2H6.63281V12.2812C6.63281 12.2166 6.65849 12.1546 6.70421 12.1089C6.74992 12.0632 6.81192 12.0375 6.87656 12.0375H23.1187C23.1834 12.0375 23.2454 12.0632 23.2911 12.1089C23.3368 12.1546 23.3625 12.2166 23.3625 12.2812V25.2Z" fill="#4C8DD3"/>
<path d="M23.1188 12.0375H6.5626L6.36572 15.1968L11.6063 20.4375L16.4063 25.2H23.3626V12.2812C23.3626 12.2166 23.3369 12.1546 23.2912 12.1089C23.2455 12.0632 23.1835 12.0375 23.1188 12.0375Z" fill="#326ACC"/>
<path d="M5.7749 24.8438V11.4844C5.7749 11.4123 5.80355 11.3431 5.85453 11.2922C5.90552 11.2412 5.97467 11.2125 6.04678 11.2125H23.953C24.0251 11.2125 24.0943 11.2412 24.1453 11.2922C24.1963 11.3431 24.2249 11.4123 24.2249 11.4844V24.8438" stroke="#1E439E" stroke-miterlimit="10"/>
<path d="M1.91738 25.3875H28.083C28.2011 25.3875 28.3144 25.4344 28.3979 25.5179C28.4814 25.6015 28.5283 25.7147 28.5283 25.8328V26.4047C28.5283 26.5803 28.4936 26.7542 28.4261 26.9163C28.3586 27.0785 28.2597 27.2256 28.1351 27.3494C28.0105 27.4731 27.8626 27.571 27.7 27.6373C27.5374 27.7037 27.3633 27.7372 27.1877 27.7359H2.8127C2.45963 27.7359 2.12102 27.5957 1.87136 27.346C1.6217 27.0964 1.48145 26.7578 1.48145 26.4047V25.8328C1.48145 25.7147 1.52836 25.6015 1.61187 25.5179C1.69539 25.4344 1.80865 25.3875 1.92676 25.3875H1.91738Z" fill="#9EB9D8"/>
<path d="M2.63887 27.3328V26.4609C2.63887 26.4224 2.65418 26.3854 2.68143 26.3582C2.70868 26.3309 2.74564 26.3156 2.78418 26.3156H28.5279V25.8469C28.5223 25.7306 28.4735 25.6206 28.3912 25.5383C28.3089 25.456 28.1989 25.4072 28.0826 25.4016H1.91699C1.80072 25.4072 1.69073 25.456 1.60841 25.5383C1.5261 25.6206 1.47736 25.7306 1.47168 25.8469V26.4187C1.47203 26.7541 1.59938 27.0769 1.82811 27.3221C2.05684 27.5674 2.36997 27.7169 2.70449 27.7406C2.66131 27.609 2.63916 27.4713 2.63887 27.3328Z" fill="#B8CCE8"/>
<path d="M2.63916 27.7172H2.70479C2.66303 27.59 2.6409 27.4572 2.63916 27.3234V27.7172Z" fill="white"/>
<path d="M28.0826 25.3875H1.91699C1.80072 25.3932 1.69073 25.4419 1.60841 25.5242C1.5261 25.6066 1.47736 25.7166 1.47168 25.8328V26.4047C1.47168 26.4375 1.47168 26.4703 1.47168 26.4984C1.48212 26.3899 1.53248 26.289 1.61302 26.2154C1.69355 26.1418 1.79852 26.1007 1.90762 26.1H28.0826C28.1572 26.1005 28.2305 26.1202 28.2953 26.1571C28.3601 26.1941 28.4144 26.247 28.4529 26.311H28.5279V25.8422C28.5245 25.7243 28.4768 25.612 28.3943 25.5277C28.3117 25.4434 28.2004 25.3934 28.0826 25.3875Z" fill="white"/>
<path d="M1.91738 25.3875H28.083C28.2011 25.3875 28.3144 25.4344 28.3979 25.5179C28.4814 25.6015 28.5283 25.7147 28.5283 25.8328V26.4047C28.5283 26.5803 28.4936 26.7542 28.4261 26.9163C28.3586 27.0785 28.2597 27.2256 28.1351 27.3494C28.0105 27.4731 27.8626 27.571 27.7 27.6373C27.5374 27.7037 27.3633 27.7372 27.1877 27.7359H2.8127C2.45963 27.7359 2.12102 27.5957 1.87136 27.346C1.6217 27.0964 1.48145 26.7578 1.48145 26.4047V25.8328C1.48145 25.7147 1.52836 25.6015 1.61187 25.5179C1.69539 25.4344 1.80865 25.3875 1.92676 25.3875H1.91738Z" stroke="black" stroke-linecap="round" stroke-linejoin="round"/>
<path d="M12.1875 25.3875L12.5625 25.8563C12.6255 25.935 12.7054 25.9986 12.7963 26.0424C12.8871 26.0862 12.9866 26.1091 13.0875 26.1094H16.9219C17.0227 26.1091 17.1223 26.0862 17.2131 26.0424C17.304 25.9986 17.3838 25.935 17.4469 25.8563L17.8219 25.3875H12.1875Z" fill="black" stroke="black" stroke-linecap="round" stroke-linejoin="round"/>
<path d="M14.9998 10.4391C15.0024 10.4391 15.0045 10.437 15.0045 10.4344C15.0045 10.4318 15.0024 10.4297 14.9998 10.4297C14.9972 10.4297 14.9951 10.4318 14.9951 10.4344C14.9951 10.437 14.9972 10.4391 14.9998 10.4391Z" stroke="black" stroke-width="0.75" stroke-linecap="round" stroke-linejoin="round"/>
</svg>
