<svg width="30" height="30" viewBox="0 0 30 30" fill="none" xmlns="http://www.w3.org/2000/svg">
<path d="M12.9374 11.1813L22.1687 15.5188L21.4499 22.5L19.8749 23.2938C19.2143 23.6364 18.4893 23.8368 17.7465 23.882C17.0037 23.9272 16.2597 23.8163 15.5624 23.5563L14.6249 23.2063C13.7475 22.8786 12.8017 22.7776 11.8749 22.9125L10.3812 23.125C10.0451 23.1723 9.70253 23.1275 9.38993 22.9955C9.07734 22.8634 8.80645 22.6489 8.60615 22.375C8.55366 22.3005 8.5181 22.2154 8.50195 22.1257C8.48581 22.036 8.48948 21.9439 8.5127 21.8558C8.53593 21.7676 8.57814 21.6856 8.63639 21.6156C8.69464 21.5455 8.76751 21.489 8.8499 21.45L12.1187 19.9313L8.0874 16.9063L12.9374 11.1813Z" fill="#FFB59E" stroke="black" stroke-linecap="round" stroke-linejoin="round"/>
<path d="M6.46249 24.1188L3.74999 26.0563C3.69693 26.0918 3.63423 26.1103 3.57035 26.1092C3.50647 26.108 3.44448 26.0873 3.39272 26.0499C3.34096 26.0124 3.30193 25.96 3.28088 25.8997C3.25983 25.8394 3.25777 25.774 3.27499 25.7125L4.16249 22.5C4.18097 22.4319 4.21285 22.3682 4.25624 22.3125L16.9875 4.375C17.0831 4.24026 17.2281 4.14884 17.3909 4.12073C17.5537 4.09263 17.721 4.13011 17.8562 4.225L19.1937 5.175C19.33 5.26558 19.4254 5.406 19.4593 5.56611C19.4931 5.72621 19.4629 5.89322 19.375 6.03125L6.61249 23.975C6.57086 24.031 6.52016 24.0795 6.46249 24.1188Z" fill="#009FD9"/>
<path d="M5.19374 23.75C5.21684 23.6767 5.25053 23.6073 5.29374 23.5437L18.6312 4.75625L17.8562 4.20625C17.7881 4.16019 17.7116 4.12801 17.6311 4.11156C17.5506 4.09511 17.4676 4.09471 17.3869 4.11038C17.3062 4.12606 17.2293 4.1575 17.1608 4.20291C17.0923 4.24831 17.0334 4.3068 16.9875 4.375L4.25624 22.3C4.21285 22.3557 4.18097 22.4194 4.16249 22.4875L3.24374 25.7125C3.22652 25.774 3.22858 25.8394 3.24963 25.8997C3.27068 25.96 3.30971 26.0124 3.36147 26.0499C3.41323 26.0873 3.47522 26.108 3.5391 26.1092C3.60298 26.1103 3.66568 26.0918 3.71874 26.0562L4.68124 25.375L5.19374 23.75Z" fill="#00B8F0"/>
<path d="M6.46249 24.1188L3.74999 26.0563C3.69693 26.0918 3.63423 26.1103 3.57035 26.1092C3.50647 26.108 3.44448 26.0873 3.39272 26.0499C3.34096 26.0124 3.30193 25.96 3.28088 25.8997C3.25983 25.8394 3.25777 25.774 3.27499 25.7125L4.16249 22.5C4.18097 22.4319 4.21285 22.3682 4.25624 22.3125L16.9875 4.375C17.0831 4.24026 17.2281 4.14884 17.3909 4.12073C17.5537 4.09263 17.721 4.13011 17.8562 4.225L19.1937 5.175C19.33 5.26558 19.4254 5.406 19.4593 5.56611C19.4931 5.72621 19.4629 5.89322 19.375 6.03125L6.61249 23.975C6.57086 24.031 6.52016 24.0795 6.46249 24.1188Z" stroke="black" stroke-linecap="round" stroke-linejoin="round"/>
<path d="M8.25629 16.6562L7.40629 20.2562C7.29408 20.7298 7.00499 21.1425 6.59827 21.4098C6.19155 21.6771 5.698 21.7787 5.21879 21.6937C5.0932 21.679 4.97174 21.6397 4.86135 21.578C4.75096 21.5163 4.65382 21.4335 4.57546 21.3342C4.4971 21.235 4.43907 21.1212 4.40468 20.9995C4.37029 20.8779 4.36022 20.7506 4.37504 20.625L4.79379 16.6C4.85227 16.0391 5.05596 15.5032 5.38477 15.045C5.71357 14.5869 6.15613 14.2224 6.66879 13.9875L11.7438 11.6937L8.25629 16.6562Z" fill="#FFB59E"/>
<path d="M6.33135 15.9438L9.59385 14.775L11.7688 11.7125L6.69385 14.0063C6.18119 14.2412 5.73863 14.6057 5.40983 15.0638C5.08102 15.5219 4.87733 16.0579 4.81885 16.6188V16.9125C5.24775 16.4849 5.76358 16.1545 6.33135 15.9438Z" fill="#FFCEBF"/>
<path d="M8.25629 16.6562L7.40629 20.2562C7.29408 20.7298 7.00499 21.1425 6.59827 21.4098C6.19155 21.6771 5.698 21.7787 5.21879 21.6937C5.0932 21.679 4.97174 21.6397 4.86135 21.578C4.75096 21.5163 4.65382 21.4335 4.57546 21.3342C4.4971 21.235 4.43907 21.1212 4.40468 20.9995C4.37029 20.8779 4.36022 20.7506 4.37504 20.625L4.79379 16.6C4.85227 16.0391 5.05596 15.5032 5.38477 15.045C5.71357 14.5869 6.15613 14.2224 6.66879 13.9875L11.7438 11.6937L8.25629 16.6562Z" stroke="black" stroke-linecap="round" stroke-linejoin="round"/>
<path d="M11.7437 16.7375L7.09369 19.0313C6.79923 19.1778 6.5744 19.4345 6.46793 19.7457C6.36147 20.0569 6.38195 20.3975 6.52494 20.6938C6.81012 21.273 7.30837 21.7195 7.91534 21.9397C8.52231 22.1599 9.19093 22.1367 9.78119 21.875L11.4874 21.1C11.8139 20.9486 12.1724 20.8792 12.5319 20.8977C12.8913 20.9162 13.2407 21.0221 13.5499 21.2063L14.0499 21.5C16.1227 22.7161 18.5798 23.1003 20.9249 22.575C21.7413 22.3946 22.5925 22.4554 23.3749 22.75L26.2874 23.8563C26.3825 23.8929 26.485 23.9058 26.5862 23.8938C26.6873 23.8818 26.784 23.8452 26.8678 23.7873C26.9516 23.7294 27.02 23.6519 27.067 23.5615C27.114 23.4711 27.1382 23.3706 27.1374 23.2688V17.0188C27.1374 16.853 27.0716 16.694 26.9544 16.5768C26.8372 16.4596 26.6782 16.3938 26.5124 16.3938H25.9874C24.661 16.393 23.3509 16.1007 22.1499 15.5375L14.9999 12.15L11.7437 16.7375Z" fill="#FFCEBF"/>
<path d="M26.5313 16.375H26.0063C24.6799 16.3743 23.3698 16.082 22.1688 15.5188L15.0001 12.15L13.4751 14.2938L21.5063 17.6313C22.8942 18.2015 24.3809 18.4925 25.8813 18.4875H26.5063C26.6828 18.4772 26.8561 18.5372 26.9884 18.6543C27.1207 18.7714 27.2013 18.9361 27.2126 19.1125V17C27.213 16.913 27.1951 16.8268 27.1603 16.7471C27.1254 16.6673 27.0743 16.5958 27.0101 16.5369C26.946 16.4781 26.8703 16.4333 26.7878 16.4054C26.7054 16.3775 26.618 16.3672 26.5313 16.375Z" fill="#FFDCD1"/>
<path d="M7.86248 19.65C9.08124 19.1292 10.1541 18.3181 10.9875 17.2875L11.2 17.025L7.12498 19.0313C6.89656 19.1446 6.70828 19.3251 6.58539 19.5485C6.46251 19.772 6.41089 20.0276 6.43748 20.2813L7.86248 19.65Z" fill="#FFDCD1"/>
<path d="M11.7437 16.7375L7.09369 19.0313C6.79923 19.1778 6.5744 19.4345 6.46793 19.7457C6.36147 20.0569 6.38195 20.3975 6.52494 20.6938C6.81012 21.273 7.30837 21.7195 7.91534 21.9397C8.52231 22.1599 9.19093 22.1367 9.78119 21.875L11.4874 21.1C11.8139 20.9486 12.1724 20.8792 12.5319 20.8977C12.8913 20.9162 13.2407 21.0221 13.5499 21.2063L14.0499 21.5C16.1227 22.7161 18.5798 23.1003 20.9249 22.575C21.7413 22.3946 22.5925 22.4554 23.3749 22.75L26.2874 23.8563C26.3825 23.8929 26.485 23.9058 26.5862 23.8938C26.6873 23.8818 26.784 23.8452 26.8678 23.7873C26.9516 23.7294 27.02 23.6519 27.067 23.5615C27.114 23.4711 27.1382 23.3706 27.1374 23.2688V17.0188C27.1374 16.853 27.0716 16.694 26.9544 16.5768C26.8372 16.4596 26.6782 16.3938 26.5124 16.3938H25.9874C24.661 16.393 23.3509 16.1007 22.1499 15.5375L14.9999 12.15L11.7437 16.7375Z" stroke="black" stroke-linecap="round" stroke-linejoin="round"/>
</svg>
