<svg width="29" height="29" viewBox="0 0 29 29" fill="none" xmlns="http://www.w3.org/2000/svg">
<path d="M23.082 25.164C23.082 19.398 18.498 14.574 12.732 14.514C12.69 14.514 12.642 14.514 12.6 14.514C5.64 14.514 0 20.154 0 27.114C0 27.468 0.024 27.816 0.054 28.164H23.082V25.164Z" fill="#F2C6DD"/>
<path d="M0.600098 8.61V25.74C0.600098 26.478 1.1941 27.078 1.9381 27.078H26.8681C27.6001 27.078 28.2061 26.484 28.2061 25.74V8.61H0.600098Z" fill="#FF9D9C"/>
<path d="M3.27002 8.616V24.408H21.678L25.53 20.562V8.616H3.27002Z" fill="white"/>
<path d="M13.2242 10.554H10.5662V13.212H13.2242V10.554Z" fill="#9BEAF9"/>
<path d="M18.084 10.554H15.426V13.212H18.084V10.554Z" fill="#9BEAF9"/>
<path d="M23.2381 10.554H20.5801V13.212H23.2381V10.554Z" fill="#9BEAF9"/>
<path d="M8.21415 15.18H5.55615V17.838H8.21415V15.18Z" fill="#9BEAF9"/>
<path d="M13.2242 15.18H10.5662V17.838H13.2242V15.18Z" fill="#9BEAF9"/>
<path d="M18.084 15.18H15.426V17.838H18.084V15.18Z" fill="#9BEAF9"/>
<path d="M23.2381 15.18H20.5801V17.838H23.2381V15.18Z" fill="#9BEAF9"/>
<path d="M8.21415 19.806H5.55615V22.464H8.21415V19.806Z" fill="#9BEAF9"/>
<path d="M13.2242 19.806H10.5662V22.464H13.2242V19.806Z" fill="#9BEAF9"/>
<path d="M18.084 19.806H15.426V22.464H18.084V19.806Z" fill="#9BEAF9"/>
<path d="M21.6841 20.562H25.5301L21.6841 24.408V20.562Z" fill="#FEBECC"/>
<path d="M28.2001 5.4C28.2001 4.662 27.6001 4.062 26.8621 4.062H1.9381C1.2001 4.062 0.600098 4.656 0.600098 5.4V8.616H28.2001V5.4Z" fill="#E9F4BC"/>
<path d="M7.13401 1.71V4.062H4.61401V1.71C4.61401 1.014 5.17801 0.449997 5.87401 0.449997C6.22801 0.449997 6.54001 0.593997 6.76801 0.821997C6.99601 1.044 7.13401 1.362 7.13401 1.71Z" fill="#FEBECC"/>
<path d="M24.192 1.71V4.062H21.666V1.71C21.666 1.014 22.23 0.449997 22.926 0.449997C23.28 0.449997 23.592 0.593997 23.82 0.821997C24.048 1.044 24.192 1.362 24.192 1.71Z" fill="#FEBECC"/>
<path d="M26.868 3.618H24.642V1.71C24.642 1.254 24.462 0.822 24.138 0.498C23.808 0.174 23.382 0 22.926 0C21.984 0 21.216 0.768 21.216 1.71V3.618H7.59001V1.71C7.59001 1.254 7.41001 0.822 7.08601 0.498C6.75601 0.174 6.33001 0 5.87401 0C4.93201 0 4.16401 0.768 4.16401 1.71V3.618H1.93801C1.43401 3.618 0.954006 3.828 0.612006 4.2C0.318006 4.53 0.156006 4.956 0.156006 5.4V8.604C0.156006 8.61 0.156006 8.61 0.156006 8.616C0.156006 8.622 0.156006 8.622 0.156006 8.628V25.752C0.156006 26.736 0.954006 27.534 1.93801 27.54H17.514C17.76 27.54 17.964 27.336 17.964 27.084C17.964 26.838 17.76 26.64 17.514 26.64H1.93801C1.45201 26.64 1.05601 26.238 1.05601 25.752V9.072H2.82601V24.42C2.82601 24.666 3.03001 24.87 3.27601 24.87H21.684C21.798 24.87 21.918 24.822 22.002 24.738L25.842 20.898C25.854 20.886 25.86 20.874 25.872 20.862C25.896 20.832 25.92 20.802 25.938 20.766C25.944 20.748 25.95 20.73 25.956 20.712C25.968 20.676 25.974 20.64 25.98 20.604C25.98 20.592 25.986 20.586 25.986 20.574V9.06H27.762V25.74C27.762 26.226 27.36 26.622 26.874 26.628H19.914C19.662 26.628 19.464 26.826 19.464 27.072C19.464 27.324 19.662 27.528 19.914 27.528H26.868C27.852 27.522 28.65 26.724 28.656 25.74V5.4C28.65 4.416 27.852 3.618 26.868 3.618ZM22.116 1.71C22.116 1.266 22.482 0.9 22.926 0.9C23.202 0.9 23.394 1.032 23.502 1.14C23.658 1.296 23.742 1.494 23.742 1.71V3.612H22.116V1.71ZM5.06401 1.71C5.06401 1.266 5.43001 0.9 5.87401 0.9C6.15001 0.9 6.34201 1.032 6.45001 1.14C6.60601 1.296 6.69001 1.494 6.69001 1.71V3.612H5.06401V1.71ZM3.72001 9.066H25.08V20.112H21.684C21.438 20.112 21.234 20.316 21.234 20.562V23.958H3.72001V9.066ZM22.134 23.322V21.012H24.444L22.134 23.322ZM1.05601 8.16V5.394C1.05601 5.172 1.13401 4.962 1.28401 4.8C1.45201 4.614 1.68601 4.506 1.93801 4.506H26.868C27.354 4.512 27.756 4.908 27.756 5.394V8.16H1.05601Z" fill="black"/>
<path d="M18.7139 26.634C18.4619 26.634 18.2639 26.832 18.2639 27.078C18.2639 27.33 18.4619 27.534 18.7139 27.534C18.9599 27.534 19.1579 27.33 19.1579 27.078C19.1579 26.832 18.9599 26.634 18.7139 26.634Z" fill="black"/>
<path d="M13.23 10.104H10.566C10.32 10.104 10.116 10.308 10.116 10.554V13.218C10.116 13.464 10.32 13.668 10.566 13.668H13.23C13.476 13.668 13.68 13.464 13.68 13.218V10.554C13.68 10.308 13.476 10.104 13.23 10.104ZM12.78 12.768H11.016V11.004H12.78V12.768Z" fill="black"/>
<path d="M18.0899 10.104H15.4319C15.1859 10.104 14.9819 10.308 14.9819 10.554V13.218C14.9819 13.464 15.1859 13.668 15.4319 13.668H18.0899C18.3359 13.668 18.5399 13.464 18.5399 13.218V10.554C18.5399 10.308 18.3359 10.104 18.0899 10.104ZM17.6399 12.768H15.8819V11.004H17.6399V12.768Z" fill="black"/>
<path d="M20.5799 13.668H23.2439C23.4899 13.668 23.6939 13.464 23.6939 13.218V10.554C23.6939 10.308 23.4899 10.104 23.2439 10.104H20.5799C20.3339 10.104 20.1299 10.308 20.1299 10.554V13.218C20.1299 13.464 20.3339 13.668 20.5799 13.668ZM21.0299 11.004H22.7939V12.768H21.0299V11.004Z" fill="black"/>
<path d="M8.21996 14.73H5.55596C5.30996 14.73 5.10596 14.934 5.10596 15.18V17.844C5.10596 18.09 5.30996 18.294 5.55596 18.294H8.21996C8.46596 18.294 8.66996 18.09 8.66996 17.844V15.18C8.66996 14.934 8.46596 14.73 8.21996 14.73ZM7.76996 17.388H6.00596V15.624H7.76996V17.388Z" fill="black"/>
<path d="M13.23 14.73H10.566C10.32 14.73 10.116 14.934 10.116 15.18V17.844C10.116 18.09 10.32 18.294 10.566 18.294H13.23C13.476 18.294 13.68 18.09 13.68 17.844V15.18C13.68 14.934 13.476 14.73 13.23 14.73ZM12.78 17.388H11.016V15.624H12.78V17.388Z" fill="black"/>
<path d="M18.0899 14.73H15.4319C15.1859 14.73 14.9819 14.934 14.9819 15.18V17.844C14.9819 18.09 15.1859 18.294 15.4319 18.294H18.0899C18.3359 18.294 18.5399 18.09 18.5399 17.844V15.18C18.5399 14.934 18.3359 14.73 18.0899 14.73ZM17.6399 17.388H15.8819V15.624H17.6399V17.388Z" fill="black"/>
<path d="M23.2439 18.288C23.4899 18.288 23.6939 18.084 23.6939 17.838V15.174C23.6939 14.928 23.4899 14.724 23.2439 14.724H20.5799C20.3339 14.724 20.1299 14.928 20.1299 15.174V17.838C20.1299 18.084 20.3339 18.288 20.5799 18.288H23.2439ZM21.0299 15.63H22.7939V17.394H21.0299V15.63Z" fill="black"/>
<path d="M8.21996 19.356H5.55596C5.30996 19.356 5.10596 19.56 5.10596 19.806V22.464C5.10596 22.71 5.30996 22.914 5.55596 22.914H8.21996C8.46596 22.914 8.66996 22.71 8.66996 22.464V19.806C8.66996 19.554 8.46596 19.356 8.21996 19.356ZM7.76996 22.014H6.00596V20.256H7.76996V22.014Z" fill="black"/>
<path d="M13.23 19.356H10.566C10.32 19.356 10.116 19.56 10.116 19.806V22.464C10.116 22.71 10.32 22.914 10.566 22.914H13.23C13.476 22.914 13.68 22.71 13.68 22.464V19.806C13.68 19.554 13.476 19.356 13.23 19.356ZM12.78 22.014H11.016V20.256H12.78V22.014Z" fill="black"/>
<path d="M18.0899 19.356H15.4319C15.1859 19.356 14.9819 19.56 14.9819 19.806V22.464C14.9819 22.71 15.1859 22.914 15.4319 22.914H18.0899C18.3359 22.914 18.5399 22.71 18.5399 22.464V19.806C18.5399 19.554 18.3359 19.356 18.0899 19.356ZM17.6399 22.014H15.8819V20.256H17.6399V22.014Z" fill="black"/>
</svg>
