<svg width="30" height="30" viewBox="0 0 30 30" fill="none" xmlns="http://www.w3.org/2000/svg">
<path d="M6.24995 19.95H2.32495V26.2H6.24995V19.95Z" fill="#96CCEE"/>
<path d="M13.2749 14.4125H9.34985V26.2125H13.2749V14.4125Z" fill="#96CCEE"/>
<path d="M20.3 11.65H16.375V26.2125H20.3V11.65Z" fill="#96CCEE"/>
<path d="M27.3249 8.875H23.3999V26.2H27.3249V8.875Z" fill="#96CCEE"/>
<path d="M5.6499 16.425C5.66807 16.614 5.64652 16.8048 5.58663 16.985C5.52674 17.1653 5.42983 17.331 5.30212 17.4715C5.17441 17.6121 5.01873 17.7244 4.84506 17.8013C4.67139 17.8782 4.48357 17.9179 4.29365 17.9179C4.10373 17.9179 3.91591 17.8782 3.74224 17.8013C3.56857 17.7244 3.41289 17.6121 3.28519 17.4715C3.15748 17.331 3.06057 17.1653 3.00068 16.985C2.94079 16.8048 2.91923 16.614 2.9374 16.425C2.96982 16.0878 3.12671 15.7747 3.37747 15.5469C3.62822 15.3191 3.95486 15.1929 4.29365 15.1929C4.63244 15.1929 4.95908 15.3191 5.20984 15.5469C5.4606 15.7747 5.61749 16.0878 5.6499 16.425Z" fill="#F94060"/>
<path d="M12.6749 10.75C12.7132 10.9473 12.7074 11.1506 12.6579 11.3453C12.6084 11.5401 12.5165 11.7215 12.3886 11.8765C12.2608 12.0316 12.1003 12.1564 11.9185 12.2421C11.7368 12.3279 11.5383 12.3723 11.3374 12.3723C11.1364 12.3723 10.9379 12.3279 10.7562 12.2421C10.5744 12.1564 10.4139 12.0316 10.2861 11.8765C10.1582 11.7215 10.0663 11.5401 10.0168 11.3453C9.96733 11.1506 9.96154 10.9473 9.99985 10.75C10.0323 10.4128 10.1892 10.0997 10.4399 9.87189C10.6907 9.64407 11.0173 9.51785 11.3561 9.51785C11.6949 9.51785 12.0215 9.64407 12.2723 9.87189C12.5231 10.0997 12.6799 10.4128 12.7124 10.75" fill="#F94060"/>
<path d="M19.7 8.075C19.7181 8.26404 19.6966 8.4548 19.6367 8.63503C19.5768 8.81525 19.4799 8.98097 19.3522 9.12154C19.2245 9.26211 19.0688 9.37443 18.8951 9.45129C18.7214 9.52815 18.5336 9.56785 18.3437 9.56785C18.1538 9.56785 17.966 9.52815 17.7923 9.45129C17.6186 9.37443 17.4629 9.26211 17.3352 9.12154C17.2075 8.98097 17.1106 8.81525 17.0507 8.63503C16.9908 8.4548 16.9693 8.26404 16.9875 8.075C17.0199 7.73776 17.1768 7.4247 17.4275 7.19688C17.6783 6.96907 18.0049 6.84285 18.3437 6.84285C18.6825 6.84285 19.0091 6.96907 19.2599 7.19688C19.5106 7.4247 19.6675 7.73776 19.7 8.075Z" fill="#F94060"/>
<path d="M26.725 5.15C26.7176 5.41775 26.6315 5.6774 26.4773 5.89647C26.3232 6.11555 26.1079 6.28433 25.8584 6.38173C25.6089 6.47913 25.3362 6.50082 25.0744 6.44409C24.8126 6.38736 24.5734 6.25472 24.3866 6.06276C24.1998 5.87081 24.0737 5.62804 24.0241 5.36482C23.9745 5.10159 24.0035 4.82958 24.1077 4.5828C24.2118 4.33601 24.3864 4.12539 24.6096 3.97727C24.8327 3.82915 25.0946 3.7501 25.3625 3.75C25.5419 3.74833 25.7198 3.78243 25.8858 3.85031C26.0519 3.91819 26.2028 4.01849 26.3296 4.14534C26.4565 4.2722 26.5568 4.42306 26.6247 4.58912C26.6925 4.75518 26.7266 4.93311 26.725 5.1125" fill="#F94060"/>
<path d="M6.26255 19.95H4.73755V26.2125H6.26255V19.95Z" fill="#6F73D5"/>
<path d="M13.275 14.4125H11.75V26.2H13.275V14.4125Z" fill="#6F73D5"/>
<path d="M20.2999 11.65H18.7749V26.2125H20.2999V11.65Z" fill="#6F73D5"/>
<path d="M27.3251 8.875H25.8V26.2H27.3251V8.875Z" fill="#6F73D5"/>
<path d="M27.325 8.25H23.3999C23.2342 8.25 23.0752 8.31585 22.958 8.43306C22.8408 8.55027 22.7749 8.70924 22.7749 8.875V25.5875H20.925V11.65C20.925 11.4842 20.8591 11.3253 20.7419 11.2081C20.6247 11.0908 20.4657 11.025 20.3 11.025H16.375C16.2092 11.025 16.0502 11.0908 15.933 11.2081C15.8158 11.3253 15.75 11.4842 15.75 11.65V25.5875H13.9V14.4125C13.9 14.2467 13.8341 14.0878 13.7169 13.9706C13.5997 13.8533 13.4407 13.7875 13.275 13.7875H9.34995C9.18519 13.7907 9.02807 13.8576 8.91155 13.9741C8.79503 14.0906 8.72815 14.2477 8.72495 14.4125V25.5875H6.87495V20C6.87495 19.8342 6.8091 19.6753 6.69189 19.5581C6.57468 19.4408 6.41571 19.375 6.24995 19.375H2.32495C2.16019 19.3782 2.00307 19.4451 1.88655 19.5616C1.77003 19.6781 1.70315 19.8352 1.69995 20V26.25C1.70315 26.4148 1.77003 26.5719 1.88655 26.6884C2.00307 26.8049 2.16019 26.8718 2.32495 26.875H27.325C27.4907 26.875 27.6497 26.8092 27.7669 26.6919C27.8841 26.5747 27.95 26.4158 27.95 26.25V8.875C27.95 8.70924 27.8841 8.55027 27.7669 8.43306C27.6497 8.31585 27.4907 8.25 27.325 8.25ZM5.62495 25.5875H2.94995V20.5875H5.62495V25.5875ZM12.65 25.5875H9.99995V15H12.675L12.65 25.5875ZM19.675 25.5875H17V12.275H19.675V25.5875ZM26.7 25.5875H24.0249V9.5H26.7V25.5875Z" fill="black"/>
<path d="M4.28737 14.45C3.89272 14.445 3.50553 14.5577 3.17514 14.7736C2.84476 14.9895 2.58613 15.2989 2.43223 15.6623C2.27833 16.0258 2.23612 16.4268 2.31098 16.8143C2.38584 17.2018 2.57438 17.5583 2.85257 17.8382C3.13077 18.1182 3.48602 18.309 3.87305 18.3863C4.26008 18.4637 4.66137 18.424 5.02577 18.2724C5.39018 18.1208 5.7012 17.8642 5.9192 17.5351C6.13721 17.2061 6.25232 16.8197 6.24987 16.425C6.24988 15.9034 6.04351 15.4029 5.67583 15.0329C5.30814 14.6628 4.809 14.4533 4.28737 14.45ZM4.28737 17.1625C4.14054 17.1675 3.99557 17.1285 3.87105 17.0505C3.74652 16.9726 3.64812 16.8592 3.58844 16.725C3.52877 16.5907 3.51055 16.4417 3.53612 16.2971C3.56169 16.1524 3.62989 16.0187 3.73196 15.913C3.83404 15.8073 3.96534 15.7346 4.10904 15.704C4.25274 15.6735 4.40229 15.6866 4.53851 15.7416C4.67474 15.7966 4.79143 15.891 4.87362 16.0128C4.95582 16.1346 4.99978 16.2781 4.99987 16.425C5.00152 16.5202 4.9844 16.6148 4.94949 16.7034C4.91458 16.792 4.86255 16.8729 4.79639 16.9413C4.73022 17.0098 4.65122 17.0646 4.56388 17.1026C4.47654 17.1405 4.38258 17.1609 4.28737 17.1625Z" fill="black"/>
<path d="M9.33744 10.75C9.33992 11.1431 9.45891 11.5266 9.67935 11.8521C9.89979 12.1775 10.2118 12.4303 10.5759 12.5784C10.94 12.7266 11.3399 12.7634 11.7249 12.6843C12.11 12.6052 12.4629 12.4137 12.7391 12.134C13.0153 11.8543 13.2023 11.499 13.2766 11.1129C13.3509 10.7269 13.309 10.3276 13.1563 9.96536C13.0036 9.60315 12.7469 9.29435 12.4187 9.07802C12.0905 8.86169 11.7055 8.74754 11.3124 8.75C11.0514 8.75164 10.7933 8.80467 10.5528 8.90606C10.3123 9.00746 10.0941 9.15524 9.91072 9.34095C9.72732 9.52667 9.5823 9.7467 9.48394 9.98846C9.38557 10.2302 9.3358 10.489 9.33744 10.75ZM12.0499 10.75C12.0499 10.9456 11.9722 11.1332 11.8339 11.2715C11.6956 11.4098 11.508 11.4875 11.3124 11.4875C11.1152 11.4875 10.926 11.4091 10.7865 11.2697C10.6471 11.1302 10.5687 10.941 10.5687 10.7438C10.5687 10.5465 10.6471 10.3573 10.7865 10.2178C10.926 10.0784 11.1152 10 11.3124 10C11.4104 9.99999 11.5073 10.0195 11.5976 10.0573C11.6879 10.0952 11.7698 10.1506 11.8384 10.2204C11.9071 10.2902 11.9611 10.373 11.9974 10.4639C12.0338 10.5549 12.0516 10.6521 12.0499 10.75Z" fill="black"/>
<path d="M16.3623 8.075C16.3599 8.46914 16.4746 8.85512 16.6921 9.18387C16.9095 9.51262 17.2198 9.7693 17.5835 9.92128C17.9471 10.0733 18.3478 10.1137 18.7345 10.0374C19.1212 9.96109 19.4765 9.77154 19.7552 9.49283C20.0339 9.21413 20.2234 8.85884 20.2997 8.47215C20.376 8.08545 20.3356 7.6848 20.1836 7.32112C20.0316 6.95745 19.775 6.64718 19.4462 6.42974C19.1175 6.21231 18.7315 6.09753 18.3373 6.1C17.8146 6.10328 17.3141 6.31241 16.9444 6.68209C16.5748 7.05176 16.3656 7.55221 16.3623 8.075ZM19.0748 8.075C19.0716 8.26959 18.9929 8.45532 18.8553 8.59293C18.7177 8.73055 18.5319 8.80928 18.3373 8.8125C18.1439 8.80922 17.9595 8.73007 17.8239 8.59212C17.6883 8.45417 17.6123 8.26845 17.6123 8.075C17.6123 7.88272 17.6887 7.69831 17.8247 7.56235C17.9607 7.42638 18.1451 7.35 18.3373 7.35C18.5308 7.34997 18.7165 7.42595 18.8545 7.56157C18.9924 7.69719 19.0716 7.88158 19.0748 8.075Z" fill="black"/>
<path d="M23.3875 5.15C23.39 5.54007 23.5079 5.92068 23.7264 6.24382C23.9449 6.56696 24.2542 6.81816 24.6153 6.96572C24.9764 7.11329 25.3731 7.15062 25.7554 7.07301C26.1377 6.9954 26.4884 6.80632 26.7634 6.52962C27.0383 6.25292 27.2252 5.90099 27.3004 5.51823C27.3756 5.13546 27.3358 4.739 27.1859 4.37884C27.0361 4.01868 26.7829 3.71097 26.4584 3.4945C26.1339 3.27803 25.7526 3.16251 25.3625 3.1625C25.1021 3.16249 24.8442 3.21399 24.6038 3.31402C24.3634 3.41406 24.1451 3.56065 23.9615 3.74537C23.778 3.9301 23.6327 4.1493 23.5342 4.39036C23.4357 4.63142 23.3858 4.88959 23.3875 5.15ZM25.3625 4.4125C25.5559 4.41578 25.7403 4.49492 25.8759 4.63288C26.0115 4.77083 26.0875 4.95655 26.0875 5.15C26.0875 5.34228 26.0111 5.52669 25.8751 5.66265C25.7392 5.79861 25.5548 5.875 25.3625 5.875C25.1702 5.875 24.9858 5.79861 24.8498 5.66265C24.7139 5.52669 24.6375 5.34228 24.6375 5.15C24.6375 4.95655 24.7134 4.77083 24.8491 4.63288C24.9847 4.49492 25.1691 4.41578 25.3625 4.4125Z" fill="black"/>
</svg>
