<svg width="30" height="30" viewBox="0 0 30 30" fill="none" xmlns="http://www.w3.org/2000/svg">
<path d="M16.25 8.75H12.625C12.0375 5.9875 8.21245 5 8.21245 5V8.875C7.11868 9.13519 6.13436 9.73258 5.39862 10.5827C4.66289 11.4328 4.21297 12.4927 4.11245 13.6125H2.32495V17.3625H4.13745C4.31471 18.5272 4.87146 19.6008 5.72129 20.4167C6.57112 21.2327 7.6665 21.7453 8.83745 21.875V23.8375C8.78312 24.0238 8.7729 24.2202 8.80761 24.4111C8.84233 24.602 8.92102 24.7823 9.03745 24.9375C9.15388 25.0927 9.30486 25.2187 9.47843 25.3055C9.652 25.3923 9.84339 25.4375 10.0375 25.4375C10.2315 25.4375 10.4229 25.3923 10.5965 25.3055C10.77 25.2187 10.921 25.0927 11.0375 24.9375C11.1539 24.7823 11.2326 24.602 11.2673 24.4111C11.302 24.2202 11.2918 24.0238 11.2375 23.8375V21.95H20.125V23.8625C20.0706 24.0488 20.0604 24.2452 20.0951 24.4361C20.1298 24.627 20.2085 24.8073 20.325 24.9625C20.4414 25.1177 20.5924 25.2437 20.7659 25.3305C20.9395 25.4173 21.1309 25.4625 21.325 25.4625C21.519 25.4625 21.7104 25.4173 21.884 25.3305C22.0575 25.2437 22.2085 25.1177 22.325 24.9625C22.4414 24.8073 22.5201 24.627 22.5548 24.4361C22.5895 24.2452 22.5793 24.0488 22.525 23.8625V21.3625C23.3882 20.9179 24.1142 20.2467 24.6251 19.421C25.136 18.5952 25.4125 17.6459 25.425 16.675L16.25 8.75Z" fill="#F94060"/>
<path d="M21.2499 6.1C22.4564 6.1 23.6358 6.45775 24.6389 7.12803C25.642 7.79831 26.4239 8.751 26.8856 9.86563C27.3473 10.9803 27.4681 12.2068 27.2327 13.39C26.9973 14.5733 26.4164 15.6602 25.5633 16.5133C24.7102 17.3664 23.6233 17.9474 22.44 18.1828C21.2567 18.4182 20.0302 18.2974 18.9155 17.8357C17.8009 17.374 16.8482 16.5921 16.178 15.589C15.5077 14.5858 15.1499 13.4065 15.1499 12.2C15.1483 11.3985 15.3049 10.6045 15.6109 9.86368C15.9169 9.12285 16.3661 8.44974 16.9329 7.88297C17.4997 7.31621 18.1728 6.86695 18.9136 6.56098C19.6544 6.25501 20.4484 6.09835 21.2499 6.1Z" fill="#FFEABB"/>
<path d="M21.175 6.1C20.4757 6.11193 19.7832 6.23862 19.125 6.475H19.375C20.8934 6.475 22.3495 7.07817 23.4232 8.15181C24.4968 9.22546 25.1 10.6816 25.1 12.2C25.1 13.7184 24.4968 15.1745 23.4232 16.2482C22.3495 17.3218 20.8934 17.925 19.375 17.925H19.125C19.961 18.2325 20.8543 18.3532 21.742 18.2785C22.6296 18.2038 23.4902 17.9357 24.2631 17.4928C25.036 17.05 25.7026 16.4433 26.216 15.7153C26.7293 14.9872 27.077 14.1556 27.2345 13.2789C27.3921 12.4021 27.3557 11.5015 27.128 10.6403C26.9002 9.77911 26.4866 8.97825 25.9162 8.29402C25.3458 7.60979 24.6324 7.05878 23.8263 6.67974C23.0202 6.3007 22.1408 6.10282 21.25 6.1" fill="#F7BF75"/>
<path d="M1.7 17.375C1.7 17.5408 1.76585 17.6997 1.88306 17.8169C2.00027 17.9341 2.15924 18 2.325 18H3.575C3.8481 19.0934 4.42301 20.088 5.23414 20.8704C6.04528 21.6528 7.05998 22.1915 8.1625 22.425V23.85C8.1625 24.334 8.35478 24.7982 8.69703 25.1405C9.03928 25.4827 9.50348 25.675 9.9875 25.675C10.4715 25.675 10.9357 25.4827 11.278 25.1405C11.6202 24.7982 11.8125 24.334 11.8125 23.85V22.6H19.5V23.85C19.5 24.334 19.6923 24.7982 20.0345 25.1405C20.3768 25.4827 20.841 25.675 21.325 25.675C21.809 25.675 22.2732 25.4827 22.6155 25.1405C22.9577 24.7982 23.15 24.334 23.15 23.85V21.675C23.9819 21.1735 24.6787 20.4763 25.1798 19.6441C25.6809 18.8119 25.971 17.8699 26.025 16.9C26.6943 16.2522 27.2215 15.4722 27.5729 14.6095C27.9244 13.7469 28.0925 12.8206 28.0665 11.8895C28.0405 10.9584 27.821 10.0429 27.422 9.20123C27.023 8.35956 26.4532 7.61014 25.7488 7.00066C25.0444 6.39118 24.2209 5.93497 23.3306 5.66105C22.4403 5.38713 21.5027 5.3015 20.5776 5.4096C19.6524 5.5177 18.7599 5.81718 17.9567 6.28897C17.1536 6.76076 16.4574 7.39454 15.9125 8.15H13.1C12.1375 5.45 8.5375 4.4 8.3875 4.4C8.2934 4.37456 8.19466 4.37149 8.09916 4.39102C8.00366 4.41055 7.91405 4.45215 7.8375 4.5125C7.76058 4.57137 7.69809 4.647 7.65477 4.73363C7.61145 4.82027 7.58845 4.91564 7.5875 5.0125V8.4C6.56758 8.73469 5.65612 9.33688 4.94816 10.1438C4.24021 10.9507 3.76169 11.9327 3.5625 12.9875H2.3125C2.14674 12.9875 1.98777 13.0533 1.87056 13.1706C1.75335 13.2878 1.6875 13.4467 1.6875 13.6125L1.7 17.375ZM21.25 6.725C22.3329 6.725 23.3914 7.0461 24.2917 7.6477C25.1921 8.2493 25.8939 9.10438 26.3082 10.1048C26.7226 11.1052 26.8311 12.2061 26.6198 13.2681C26.4085 14.3302 25.8871 15.3057 25.1214 16.0714C24.3557 16.8371 23.3802 17.3585 22.3181 17.5698C21.2561 17.7811 20.1552 17.6726 19.1548 17.2582C18.1544 16.8438 17.2993 16.1421 16.6977 15.2417C16.0961 14.3414 15.775 13.2828 15.775 12.2C15.775 10.7479 16.3518 9.35535 17.3786 8.32859C18.4054 7.30183 19.7979 6.725 21.25 6.725ZM2.9625 14.225H4.125C4.27969 14.223 4.42839 14.1649 4.54339 14.0614C4.65838 13.9579 4.73181 13.8161 4.75 13.6625C4.8367 12.6718 5.23375 11.7338 5.88462 10.9819C6.53548 10.2301 7.40698 9.70272 8.375 9.475C8.51155 9.44125 8.63272 9.36242 8.71891 9.25127C8.80511 9.14012 8.8513 9.00315 8.85 8.8625V5.8375C9.57429 6.06731 10.2367 6.45918 10.7868 6.98334C11.337 7.5075 11.7604 8.15016 12.025 8.8625C12.0537 9.00034 12.1291 9.12407 12.2384 9.21287C12.3477 9.30166 12.4842 9.35009 12.625 9.35H15.125C14.6435 10.3766 14.43 11.5085 14.5043 12.64C14.5786 13.7716 14.9383 14.8658 15.5499 15.8207C16.1616 16.7755 17.0051 17.5599 18.0019 18.1005C18.9986 18.6412 20.1161 18.9205 21.25 18.9125C22.4129 18.9125 23.5554 18.6064 24.5625 18.025C24.1822 19.2064 23.3512 20.1901 22.25 20.7625C22.1481 20.8137 22.0626 20.8923 22.0029 20.9894C21.9433 21.0866 21.912 21.1985 21.9125 21.3125V23.8125C21.9125 23.965 21.8519 24.1112 21.7441 24.2191C21.6363 24.3269 21.49 24.3875 21.3375 24.3875C21.185 24.3875 21.0387 24.3269 20.9309 24.2191C20.8231 24.1112 20.7625 23.965 20.7625 23.8125V21.9375C20.7436 21.7641 20.6595 21.6043 20.5272 21.4905C20.3949 21.3768 20.2243 21.3176 20.05 21.325H11.25C11.0842 21.325 10.9253 21.3908 10.8081 21.5081C10.6908 21.6253 10.625 21.7842 10.625 21.95V23.85C10.6267 23.926 10.613 24.0015 10.5847 24.072C10.5564 24.1426 10.5141 24.2066 10.4604 24.2604C10.4067 24.3141 10.3426 24.3564 10.272 24.3847C10.2015 24.413 10.126 24.4267 10.05 24.425C9.8975 24.425 9.75125 24.3644 9.64341 24.2566C9.53558 24.1488 9.475 24.0025 9.475 23.85V21.8875C9.48199 21.7291 9.42728 21.5742 9.32237 21.4553C9.21747 21.3364 9.07054 21.2628 8.9125 21.25C7.87972 21.1311 6.91448 20.6766 6.16484 19.9563C5.41519 19.236 4.92256 18.2897 4.7625 17.2625C4.73883 17.1134 4.66301 16.9776 4.54856 16.8791C4.43411 16.7807 4.28845 16.7261 4.1375 16.725H2.8875L2.9625 14.225Z" fill="black"/>
<path d="M21.2499 12.775C21.3825 12.775 21.5097 12.8277 21.6035 12.9214C21.6972 13.0152 21.7499 13.1424 21.7499 13.275C21.7523 13.3917 21.7138 13.5055 21.6411 13.5968C21.5684 13.6881 21.466 13.7511 21.3517 13.7748C21.2375 13.7986 21.1185 13.7816 21.0154 13.7268C20.9124 13.6721 20.8317 13.583 20.7874 13.475C20.756 13.3982 20.7096 13.3285 20.6509 13.2698C20.5922 13.2111 20.5224 13.1647 20.4456 13.1333C20.3689 13.1019 20.2866 13.0861 20.2036 13.0868C20.1206 13.0875 20.0386 13.1048 19.9624 13.1375C19.8125 13.2036 19.6939 13.3249 19.631 13.4762C19.5682 13.6275 19.566 13.7971 19.6249 13.95C19.7157 14.1582 19.8427 14.3486 19.9999 14.5125C20.1796 14.683 20.3923 14.8149 20.6249 14.9V15.1625C20.6249 15.3283 20.6908 15.4872 20.808 15.6044C20.9252 15.7217 21.0841 15.7875 21.2499 15.7875C21.4157 15.7875 21.5746 15.7217 21.6918 15.6044C21.8091 15.4872 21.8749 15.3283 21.8749 15.1625V14.9C22.2507 14.7499 22.5629 14.4741 22.7583 14.1197C22.9537 13.7653 23.0202 13.3541 22.9465 12.9562C22.8729 12.5582 22.6635 12.1981 22.3542 11.9372C22.0448 11.6762 21.6546 11.5306 21.2499 11.525C21.1832 11.5267 21.1168 11.515 21.0547 11.4906C20.9926 11.4662 20.936 11.4296 20.8882 11.383C20.8405 11.3365 20.8025 11.2808 20.7766 11.2193C20.7507 11.1578 20.7374 11.0917 20.7374 11.025C20.7485 10.9305 20.7845 10.8407 20.8417 10.7646C20.8989 10.6886 20.9753 10.6291 21.063 10.5923C21.1507 10.5554 21.2466 10.5425 21.3409 10.5548C21.4353 10.5672 21.5246 10.6043 21.5999 10.6625L21.7124 10.825C21.776 10.977 21.8971 11.0977 22.0492 11.1609C22.2014 11.2241 22.3723 11.2247 22.5249 11.1625C22.6778 11.0964 22.7987 10.973 22.8618 10.8188C22.9249 10.6646 22.9251 10.4918 22.8624 10.3375C22.7729 10.1323 22.6457 9.94574 22.4874 9.7875C22.3142 9.61191 22.1053 9.47551 21.8749 9.3875V9.125C21.8749 8.95924 21.8091 8.80027 21.6918 8.68306C21.5746 8.56585 21.4157 8.5 21.2499 8.5C21.0841 8.5 20.9252 8.56585 20.808 8.68306C20.6908 8.80027 20.6249 8.95924 20.6249 9.125V9.3875C20.2409 9.53225 19.92 9.80735 19.7183 10.1647C19.5165 10.5221 19.4468 10.939 19.5212 11.3425C19.5957 11.7461 19.8096 12.1107 20.1256 12.3725C20.4416 12.6343 20.8395 12.7768 21.2499 12.775Z" fill="black"/>
<path d="M7.7749 13.125C7.94066 13.125 8.09963 13.0591 8.21684 12.9419C8.33405 12.8247 8.3999 12.6658 8.3999 12.5V11.775C8.3999 11.6092 8.33405 11.4503 8.21684 11.3331C8.09963 11.2158 7.94066 11.15 7.7749 11.15C7.60914 11.15 7.45017 11.2158 7.33296 11.3331C7.21575 11.4503 7.1499 11.6092 7.1499 11.775V12.5C7.1499 12.6658 7.21575 12.8247 7.33296 12.9419C7.45017 13.0591 7.60914 13.125 7.7749 13.125Z" fill="black"/>
</svg>
