<svg width="30" height="30" viewBox="0 0 30 30" fill="none" xmlns="http://www.w3.org/2000/svg">
<g clip-path="url(#clip0_418_14)">
<path d="M10.998 4.46398C10.998 11.424 16.638 17.064 23.598 17.064C25.542 17.064 27.372 16.614 29.016 15.828V0.677979H11.58C11.202 1.87198 10.998 3.14398 10.998 4.46398Z" fill="#F0C4DB"/>
<path d="M6.60009 22.152C8.03824 22.152 9.20409 20.9861 9.20409 19.548C9.20409 18.1098 8.03824 16.944 6.60009 16.944C5.16194 16.944 3.99609 18.1098 3.99609 19.548C3.99609 20.9861 5.16194 22.152 6.60009 22.152Z" fill="white"/>
<path d="M11.7719 28.878C11.5979 26.172 9.35394 24.03 6.60594 24.03C3.85794 24.03 1.60794 26.172 1.43994 28.878H11.7719Z" fill="#FF9D9C"/>
<path d="M22.6382 22.152C24.0763 22.152 25.2422 20.9861 25.2422 19.548C25.2422 18.1098 24.0763 16.944 22.6382 16.944C21.2 16.944 20.0342 18.1098 20.0342 19.548C20.0342 20.9861 21.2 22.152 22.6382 22.152Z" fill="white"/>
<path d="M27.8042 28.878C27.6302 26.172 25.3862 24.03 22.6382 24.03C19.8902 24.03 17.6402 26.172 17.4722 28.878H27.8042Z" fill="#FF9D9C"/>
<path d="M16.74 4.39795V1.27795H3.83398V9.13195H5.68198V11.952L8.09398 9.13195H10.284" fill="#FF9D9C"/>
<path d="M23.1962 4.39795V12.2519H21.3482V15.0719L18.9362 12.2519H10.2842V4.39795H23.1962Z" fill="#E9F4BC"/>
<path d="M3.5459 19.548C3.5459 21.234 4.9139 22.602 6.5999 22.602C8.2859 22.602 9.6539 21.234 9.6539 19.548C9.6539 17.862 8.2859 16.494 6.5999 16.494C4.9139 16.494 3.5459 17.868 3.5459 19.548ZM8.7539 19.548C8.7539 20.736 7.7879 21.702 6.5999 21.702C5.4119 21.702 4.4459 20.736 4.4459 19.548C4.4459 18.36 5.4119 17.394 6.5999 17.394C7.7879 17.394 8.7539 18.36 8.7539 19.548Z" fill="black"/>
<path d="M6.59996 23.574C3.64196 23.574 1.16996 25.89 0.983962 28.848C0.977962 28.974 1.01996 29.094 1.10396 29.184C1.18796 29.274 1.30796 29.328 1.43396 29.328H11.772C11.898 29.328 12.018 29.274 12.102 29.184C12.186 29.094 12.228 28.974 12.222 28.848C12.03 25.89 9.55796 23.574 6.59996 23.574ZM1.93796 28.422C2.31596 26.172 4.27796 24.474 6.59996 24.474C8.92196 24.474 10.89 26.172 11.262 28.422H1.93796Z" fill="black"/>
<path d="M19.584 19.548C19.584 21.234 20.952 22.602 22.638 22.602C24.324 22.602 25.692 21.234 25.692 19.548C25.692 17.862 24.324 16.494 22.638 16.494C20.952 16.494 19.584 17.868 19.584 19.548ZM24.792 19.548C24.792 20.736 23.826 21.702 22.638 21.702C21.45 21.702 20.484 20.736 20.484 19.548C20.484 18.36 21.45 17.394 22.638 17.394C23.826 17.394 24.792 18.36 24.792 19.548Z" fill="black"/>
<path d="M22.638 23.574C19.68 23.574 17.208 25.89 17.022 28.848C17.016 28.974 17.058 29.094 17.142 29.184C17.226 29.274 17.346 29.328 17.472 29.328H27.81C27.936 29.328 28.056 29.274 28.14 29.184C28.224 29.094 28.266 28.974 28.26 28.848C28.062 25.89 25.596 23.574 22.638 23.574ZM17.97 28.422C18.348 26.172 20.31 24.474 22.632 24.474C24.96 24.474 26.922 26.172 27.294 28.422H17.97Z" fill="black"/>
<path d="M10.2898 6.98398C10.5384 6.98398 10.7398 6.78251 10.7398 6.53398C10.7398 6.28546 10.5384 6.08398 10.2898 6.08398C10.0413 6.08398 9.83984 6.28546 9.83984 6.53398C9.83984 6.78251 10.0413 6.98398 10.2898 6.98398Z" fill="black"/>
<path d="M3.83379 9.58196H5.23179V11.952C5.23179 12.138 5.35179 12.306 5.52579 12.372C5.57379 12.39 5.62779 12.402 5.68179 12.402C5.80779 12.402 5.93379 12.348 6.02379 12.246L8.30379 9.58196H9.83979V12.258C9.83979 12.378 9.88779 12.492 9.97179 12.576C10.0558 12.66 10.1698 12.708 10.2898 12.708H18.7318L21.0058 15.372C21.0958 15.474 21.2158 15.528 21.3478 15.528C21.4018 15.528 21.4558 15.522 21.5038 15.498C21.6838 15.438 21.7978 15.264 21.7978 15.078V12.708H23.1958C23.3158 12.708 23.4298 12.66 23.5138 12.576C23.5978 12.492 23.6458 12.378 23.6458 12.258V4.39796C23.6458 4.27796 23.5978 4.16396 23.5138 4.07996C23.4298 3.99596 23.3158 3.94796 23.1958 3.94796H17.1958V1.27196C17.1958 1.02596 16.9918 0.82196 16.7458 0.82196H3.83379C3.58779 0.82196 3.38379 1.02596 3.38379 1.27196V9.12596C3.38379 9.37796 3.58779 9.58196 3.83379 9.58196ZM4.28379 1.72196H16.2898V3.94796H10.2898C10.1698 3.94796 10.0558 3.99596 9.97179 4.07996C9.88779 4.15796 9.83979 4.27796 9.83979 4.39796V5.33396C9.83979 5.58596 10.0378 5.78396 10.2898 5.78396C10.5358 5.78396 10.7398 5.58596 10.7398 5.33396V4.84796H22.7458V11.802H21.3478C21.2338 11.802 21.1138 11.85 21.0298 11.934C20.9458 12.018 20.8978 12.132 20.8978 12.252V13.854L19.2778 11.958C19.1938 11.856 19.0678 11.802 18.9358 11.802H10.7398V7.73396C10.7398 7.48796 10.5358 7.28396 10.2898 7.28396C10.0378 7.28396 9.83979 7.48796 9.83979 7.73396V8.67596H8.09379C7.96179 8.67596 7.83579 8.73596 7.75179 8.83196L6.13179 10.728V9.12596C6.13179 8.87996 5.92779 8.67596 5.68179 8.67596H4.28379V1.72196Z" fill="black"/>
<path d="M12.5218 7.06199H20.9578C21.2038 7.06199 21.4078 6.85799 21.4078 6.61199C21.4078 6.36599 21.2038 6.16199 20.9578 6.16199H12.5218C12.2758 6.16199 12.0718 6.36599 12.0718 6.61199C12.0718 6.85799 12.2698 7.06199 12.5218 7.06199Z" fill="black"/>
<path d="M12.5218 8.91593H20.9578C21.2038 8.91593 21.4078 8.71193 21.4078 8.46593C21.4078 8.21993 21.2038 8.01593 20.9578 8.01593H12.5218C12.2758 8.01593 12.0718 8.21993 12.0718 8.46593C12.0718 8.71193 12.2698 8.91593 12.5218 8.91593Z" fill="black"/>
<path d="M12.5218 10.776H17.7418C17.9878 10.776 18.1918 10.572 18.1918 10.326C18.1918 10.08 17.9878 9.87598 17.7418 9.87598H12.5218C12.2758 9.87598 12.0718 10.08 12.0718 10.326C12.0718 10.572 12.2698 10.776 12.5218 10.776Z" fill="black"/>
</g>
<defs>
<clipPath id="clip0_418_14">
<rect width="30" height="30" fill="white"/>
</clipPath>
</defs>
</svg>
