<svg width="30" height="28" viewBox="0 0 30 28" fill="none" xmlns="http://www.w3.org/2000/svg">
<g clip-path="url(#clip0_448_192)">
<path d="M16.9722 6.58571C16.4616 5.58315 15.8233 3.86447 15.8233 1C15.8233 3.79286 15.2488 5.51154 14.6743 6.5141" stroke="black" stroke-miterlimit="10" stroke-linecap="round" stroke-linejoin="round"/>
<path d="M11.2472 13.2471C13.9997 10.6511 15.6794 7.8104 14.9988 6.90214C14.3183 5.99387 11.5353 7.362 8.78272 9.95795C6.03019 12.5539 4.35052 15.3946 5.03106 16.3029C5.71161 17.2112 8.49466 15.843 11.2472 13.2471Z" fill="#EBCB00" stroke="black" stroke-miterlimit="10" stroke-linecap="round" stroke-linejoin="round"/>
<path d="M14.9929 6.87214C14.2908 5.94119 11.5461 7.37342 8.8014 9.95144C6.05672 12.5295 4.39715 15.3939 5.03544 16.2533C2.73757 13.2456 3.05672 8.59082 5.86523 6.0128C8.60991 3.43478 12.695 3.79284 14.9929 6.87214Z" fill="#FFE500"/>
<path d="M5.86552 7.51665C8.03574 5.43991 11.0996 5.29669 13.3974 6.87215C14.1634 6.5857 14.7379 6.5857 14.9932 6.94376C12.6953 3.86446 8.6102 3.43479 5.80169 6.08442C4.07829 7.73149 3.31233 10.1663 3.50382 12.4579C3.69531 10.596 4.46127 8.80566 5.86552 7.51665Z" fill="#FFF48C"/>
<path d="M14.9929 6.87214C14.2908 5.94119 11.5461 7.37342 8.8014 9.95144C6.05672 12.5295 4.39715 15.3939 5.03544 16.2533C2.73757 13.2456 3.05672 8.59082 5.86523 6.0128C8.60991 3.43478 12.695 3.79284 14.9929 6.87214Z" stroke="black" stroke-miterlimit="10" stroke-linecap="round" stroke-linejoin="round"/>
<path d="M26.6229 16.3195C27.3034 15.4112 25.6237 12.5705 22.8712 9.97454C20.1187 7.3786 17.3356 6.01046 16.6551 6.91873C15.9745 7.827 17.6542 10.6677 20.4067 13.2637C23.1593 15.8596 25.9423 17.2277 26.6229 16.3195Z" fill="#EBCB00" stroke="black" stroke-miterlimit="10" stroke-linecap="round" stroke-linejoin="round"/>
<path d="M16.6528 6.87216C17.355 5.94121 20.0996 7.37344 22.8443 9.95146C25.589 12.5295 27.2486 15.3939 26.6103 16.2533C28.9082 13.174 28.589 8.59084 25.8443 5.94121C23.0996 3.4348 19.0145 3.79285 16.6528 6.87216Z" fill="#FFE500"/>
<path d="M25.8445 7.51665C23.6742 5.43991 20.6104 5.29669 18.3125 6.87215C17.5466 6.5857 16.9721 6.5857 16.7168 6.94376C19.0147 3.86446 23.0998 3.43479 25.9083 6.08442C27.6317 7.73149 28.3976 10.1663 28.2062 12.4579C27.9508 10.596 27.1849 8.80566 25.8445 7.51665Z" fill="#FFF48C"/>
<path d="M16.6528 6.87216C17.355 5.94121 20.0996 7.37344 22.8443 9.95146C25.589 12.5295 27.2486 15.3939 26.6103 16.2533C28.9082 13.174 28.589 8.59084 25.8443 5.94121C23.0996 3.4348 19.0145 3.79285 16.6528 6.87216Z" stroke="black" stroke-miterlimit="10" stroke-linecap="round" stroke-linejoin="round"/>
<path d="M3.12101 19.1894C2.61037 20.0488 1.90824 20.4784 1.07846 20.55L0.3125 19.1178C1.20612 19.0462 1.90824 18.6165 2.41888 17.8288L3.12101 19.1894Z" fill="#00F5BC" stroke="black" stroke-miterlimit="10" stroke-linecap="round" stroke-linejoin="round"/>
<path d="M20.5468 10.3811C20.5468 11.3837 20.2276 12.1714 19.5255 12.8159L18.1851 12.0998C18.8872 11.5269 19.2702 10.6675 19.2063 9.66498L20.5468 10.3811Z" fill="#FF6242" stroke="black" stroke-miterlimit="10" stroke-linecap="round" stroke-linejoin="round"/>
<path d="M20.036 27.0667C19.4616 26.2789 19.3339 25.4196 19.5254 24.417L20.9935 24.059C20.802 24.9899 20.9296 25.9209 21.5041 26.7086L20.036 27.0667Z" fill="#FF6196" stroke="black" stroke-miterlimit="10" stroke-linecap="round" stroke-linejoin="round"/>
<path d="M12.6318 9.73663C12.0573 10.5244 11.9296 11.3837 12.185 12.3863L13.653 12.7443C13.3977 11.8134 13.5892 10.8824 14.0999 10.0947L12.6318 9.73663Z" fill="#BF8DF2" stroke="black" stroke-miterlimit="10" stroke-linecap="round" stroke-linejoin="round"/>
<path d="M27.7593 18.9029C28.5252 19.4758 29.2912 19.5474 30.121 19.261L30.3125 17.6139C29.4827 17.972 28.6529 17.8288 27.9508 17.2559L27.7593 18.9029Z" fill="#BF8DF2" stroke="black" stroke-miterlimit="10" stroke-linecap="round" stroke-linejoin="round"/>
<path d="M17.9936 20.908C17.5468 21.7674 16.9085 22.2687 16.0148 22.4119L15.1851 21.0513C16.0787 20.908 16.717 20.4068 17.1638 19.5474L17.9936 20.908Z" fill="#FF8A14" stroke="black" stroke-miterlimit="10" stroke-linecap="round" stroke-linejoin="round"/>
<path d="M14.2274 15.6804C15.121 15.752 15.8231 16.1817 16.2699 17.041L15.504 18.4733C14.9933 17.6139 14.355 17.1843 13.4614 17.1127L14.2274 15.6804Z" fill="#4AEFF7" stroke="black" stroke-miterlimit="10" stroke-linecap="round" stroke-linejoin="round"/>
<path d="M10.5889 25.8492C10.7804 24.8467 11.291 24.2022 12.1208 23.8441L13.2697 24.9183C12.4399 25.2763 11.9293 25.9925 11.7378 26.9234L10.5889 25.8492Z" fill="#FFF48C" stroke="black" stroke-miterlimit="10" stroke-linecap="round" stroke-linejoin="round"/>
<path d="M11.9296 14.1766L10.653 14.3198C10.653 14.3198 10.7169 16.4681 9.88707 18.6881C9.75941 18.3301 9.50409 18.0436 9.24877 17.8288C8.16367 16.8262 6.56792 17.041 5.73814 18.2584C4.84452 19.4758 5.03601 21.2661 6.12111 22.1971C6.50409 22.5551 6.9509 22.77 7.39771 22.77C5.80197 24.7035 3.82324 25.348 3.82324 25.348L4.14239 26.7086C6.05728 26.0641 8.41899 24.2738 9.69558 21.7674C11.3552 19.5475 12.1211 16.4681 11.9296 14.1766ZM6.69558 19.1178C7.14239 18.4733 7.90835 18.4017 8.48282 18.9029C9.05728 19.4042 9.12111 20.2636 8.67431 20.9081C8.2275 21.5526 7.46154 21.6242 6.88707 21.1229C6.37643 20.6216 6.3126 19.7623 6.69558 19.1178Z" fill="#FF6242"/>
<path d="M9.69531 21.7675C9.12084 22.5552 8.29106 22.9132 7.46127 22.8416C7.20595 23.1281 6.95063 23.4145 6.69531 23.6294C7.26978 23.8442 7.84425 23.8442 8.41872 23.7726C8.92936 23.1281 9.37616 22.4836 9.69531 21.7675Z" fill="#E04122"/>
<path d="M6.69553 19.1178C6.24872 19.7623 6.37638 20.6216 6.88702 21.1229C7.46148 21.6242 8.22744 21.481 8.67425 20.9081C9.12106 20.2636 8.9934 19.4042 8.48276 18.903C7.97212 18.4017 7.14233 18.5449 6.69553 19.1178Z" stroke="black" stroke-miterlimit="10" stroke-linecap="round" stroke-linejoin="round"/>
<path d="M8.73779 20.9081C9.24843 20.192 9.63141 19.4759 9.95056 18.6881C9.8229 18.4017 9.56758 18.1152 9.31226 17.8288C9.1846 18.2585 8.99311 18.7597 8.73779 19.1894C9.05694 19.6907 9.05694 20.4068 8.73779 20.9081Z" fill="#E04122"/>
<path d="M8.67432 20.9081C10.8445 18.1152 10.653 14.3198 10.653 14.3198L11.9296 14.1766C12.1211 16.4681 11.3552 19.5475 9.63176 21.7674" stroke="black" stroke-miterlimit="10" stroke-linecap="round" stroke-linejoin="round"/>
<path d="M24.3124 22.1971C24.7592 22.0539 25.1422 21.7674 25.4614 21.4094C26.4188 20.2636 26.2911 18.4733 25.2699 17.3991C24.2486 16.3965 22.6528 16.4682 21.6954 17.6139C21.4401 17.9004 21.3124 18.2584 21.1848 18.5449C20.0358 16.4682 19.7805 14.3914 19.7805 14.3914L18.5039 14.5346C18.6954 16.8262 19.8443 19.6907 21.8231 21.5526C23.4188 23.7725 24.9507 24.1306 26.9933 24.3454L27.1209 22.9132C27.1848 23.0564 25.8443 23.3429 24.3124 22.1971ZM22.6528 18.6165C23.0997 18.0436 23.9294 17.972 24.4401 18.5449C24.9507 19.0462 25.0145 19.9771 24.5039 20.55C24.0571 21.1229 23.2273 21.1945 22.7167 20.6216C22.2699 20.0487 22.206 19.1894 22.6528 18.6165Z" fill="#6DD627"/>
<path d="M21.8871 21.6242L21.8232 21.5526C22.4615 22.4835 23.0998 23.0564 23.7381 23.4861C24.3126 23.4861 24.9509 23.2712 25.4615 22.9132C25.0786 22.7699 24.6956 22.5551 24.3126 22.2687C23.4828 22.4835 22.5892 22.3403 21.8871 21.6242Z" fill="#46B000"/>
<path d="M22.7166 20.55C22.0783 19.9771 21.6315 19.261 21.2485 18.6165C21.3762 18.2584 21.5039 17.972 21.6953 17.6855C21.8868 18.0436 22.3975 18.8313 22.4613 18.9029C22.2698 19.4758 22.3336 20.1203 22.7166 20.55Z" fill="#46B000"/>
<path d="M24.3124 22.1971C24.7592 22.0539 25.1422 21.7674 25.4614 21.4094C26.4188 20.2636 26.2911 18.4733 25.2699 17.3991C24.2486 16.3965 22.6528 16.4682 21.6954 17.6139C21.4401 17.9004 21.3124 18.2584 21.1848 18.5449C20.0358 16.4682 19.7805 14.3914 19.7805 14.3914L18.5039 14.5346C18.6954 16.8262 19.8443 19.6907 21.8231 21.5526C23.4188 23.7725 24.9507 24.1306 26.9933 24.3454L27.1209 22.9132C27.1848 23.0564 25.8443 23.3429 24.3124 22.1971ZM22.6528 18.6165C23.0997 18.0436 23.9294 17.972 24.4401 18.5449C24.9507 19.0462 25.0145 19.9771 24.5039 20.55C24.0571 21.1229 23.2273 21.1945 22.7167 20.6216C22.2699 20.0487 22.206 19.1894 22.6528 18.6165Z" stroke="black" stroke-miterlimit="10" stroke-linecap="round" stroke-linejoin="round"/>
<path d="M21.8872 21.6242C22.5893 22.2687 23.483 22.4835 24.3127 22.1971" stroke="black" stroke-miterlimit="10" stroke-linecap="round" stroke-linejoin="round"/>
<path d="M22.7805 20.55C22.1422 19.9772 21.6315 19.261 21.2485 18.5449" stroke="black" stroke-miterlimit="10" stroke-linecap="round" stroke-linejoin="round"/>
<path d="M9.88708 18.6881C9.56793 19.4758 9.18495 20.192 8.67432 20.9081" stroke="black" stroke-miterlimit="10" stroke-linecap="round" stroke-linejoin="round"/>
<path d="M7.39746 22.8416C8.22725 22.9132 9.05703 22.6268 9.69533 21.7675" stroke="black" stroke-miterlimit="10" stroke-linecap="round" stroke-linejoin="round"/>
<path d="M11.9296 14.1766L10.653 14.3198C10.653 14.3198 10.7169 16.4681 9.88707 18.6881C9.75941 18.3301 9.50409 18.0436 9.24877 17.8288C8.16367 16.8262 6.56792 17.041 5.73814 18.2584C4.84452 19.4758 5.03601 21.2661 6.12111 22.1971C6.50409 22.5551 6.9509 22.77 7.39771 22.77C5.80197 24.7035 3.82324 25.348 3.82324 25.348L4.14239 26.7086C6.05728 26.0641 8.41899 24.2738 9.69558 21.7674C11.3552 19.5475 12.1211 16.4681 11.9296 14.1766ZM6.69558 19.1178C7.14239 18.4733 7.90835 18.4017 8.48282 18.9029C9.05728 19.4042 9.12111 20.2636 8.67431 20.9081C8.2275 21.5526 7.46154 21.6242 6.88707 21.1229C6.37643 20.6216 6.3126 19.7623 6.69558 19.1178Z" stroke="black" stroke-miterlimit="10"/>
</g>
<defs>
<clipPath id="clip0_448_192">
<rect width="30" height="28" fill="white"/>
</clipPath>
</defs>
</svg>
