<svg width="30" height="30" viewBox="0 0 30 30" fill="none" xmlns="http://www.w3.org/2000/svg">
<path d="M6.09375 5.625H1.40625L3.28125 7.03125L1.40625 8.4375H6.09375" fill="#F5DD90"/>
<path d="M23.9062 5.625H28.5938L26.7188 7.03125L28.5938 8.4375H23.9062" fill="#F5DD90"/>
<path d="M9.375 15H4.21875V24.375H9.375V15Z" fill="#274C77"/>
<path d="M25.7812 15H20.625V24.375H25.7812V15Z" fill="#274C77"/>
<path d="M9.375 24.375V12.1875L15 6.5625L20.625 12.1875V24.375" fill="#6096BA"/>
<path d="M13.125 24.375V20.625H16.875V24.375" fill="#F5DD90"/>
<path d="M20.625 12.1875H26.7188V15H20.625" fill="#8B8C89"/>
<path d="M9.375 15H3.28125V12.1875H9.375" fill="#8B8C89"/>
<path d="M15 15.4688C16.2944 15.4688 17.3438 14.4194 17.3438 13.125C17.3438 11.8306 16.2944 10.7812 15 10.7812C13.7056 10.7812 12.6562 11.8306 12.6562 13.125C12.6562 14.4194 13.7056 15.4688 15 15.4688Z" fill="#FFBC0A"/>
<mask id="path-10-inside-1_358_127" fill="white">
<path d="M29.0623 23.9062H26.2498V15.4688H26.7185C26.9763 15.4688 27.1873 15.2578 27.1873 15V12.1875C27.1873 11.9297 26.9763 11.7188 26.7185 11.7188H24.3748V8.90625H28.5935C28.7951 8.90625 28.9732 8.775 29.0388 8.5875C29.1044 8.39531 29.0388 8.18438 28.8748 8.0625L27.5013 7.03125L28.8748 6C29.0341 5.87813 29.1044 5.66719 29.0388 5.475C28.9732 5.28281 28.7951 5.15625 28.5935 5.15625H23.906C23.6482 5.15625 23.4373 5.36719 23.4373 5.625V11.7188H20.8169L15.3279 6.22969C15.1451 6.04687 14.8498 6.04687 14.6669 6.22969L9.17788 11.7188H6.55757V5.625C6.55757 5.36719 6.34663 5.15625 6.08882 5.15625H1.40601C1.20444 5.15625 1.02632 5.2875 0.960695 5.475C0.89507 5.66719 0.960695 5.87813 1.12476 6L2.49819 7.03125L1.12476 8.0625C0.965382 8.18438 0.89507 8.39531 0.960695 8.5875C1.02632 8.77969 1.20444 8.90625 1.40601 8.90625H5.62476V11.7188H3.28101C3.02319 11.7188 2.81226 11.9297 2.81226 12.1875V15C2.81226 15.2578 3.02319 15.4688 3.28101 15.4688H3.74976V23.9062H0.937257V24.8438H29.0623V23.9062ZM24.3748 6.09375H27.1873L26.4373 6.65625C26.3201 6.74531 26.2498 6.88125 26.2498 7.03125C26.2498 7.18125 26.3201 7.31719 26.4373 7.40625L27.1873 7.96875H24.3748V6.09375ZM2.81226 7.96875L3.56226 7.40625C3.67944 7.31719 3.74976 7.18125 3.74976 7.03125C3.74976 6.88125 3.67944 6.74531 3.56226 6.65625L2.81226 6.09375H5.62476V7.96875H2.81226ZM8.90601 23.9062H4.68726V15.4688H8.90601V23.9062ZM8.90601 14.5312H3.74976V12.6562H8.90601V14.5312ZM14.531 23.9062H13.5935V21.0938H14.531V23.9062ZM16.406 23.9062H15.4685V21.0938H16.406V23.9062ZM20.156 23.9062H17.3435V20.625C17.3435 20.3672 17.1326 20.1562 16.8748 20.1562H13.1248C12.8669 20.1562 12.656 20.3672 12.656 20.625V23.9062H9.84351V12.3797L14.9998 7.22344L20.156 12.3797V23.9062ZM21.0935 12.6562H26.2498V14.5312H21.0935V12.6562ZM25.3123 23.9062H21.0935V15.4688H25.3123V23.9062Z"/>
</mask>
<path d="M29.0623 23.9062H26.2498V15.4688H26.7185C26.9763 15.4688 27.1873 15.2578 27.1873 15V12.1875C27.1873 11.9297 26.9763 11.7188 26.7185 11.7188H24.3748V8.90625H28.5935C28.7951 8.90625 28.9732 8.775 29.0388 8.5875C29.1044 8.39531 29.0388 8.18438 28.8748 8.0625L27.5013 7.03125L28.8748 6C29.0341 5.87813 29.1044 5.66719 29.0388 5.475C28.9732 5.28281 28.7951 5.15625 28.5935 5.15625H23.906C23.6482 5.15625 23.4373 5.36719 23.4373 5.625V11.7188H20.8169L15.3279 6.22969C15.1451 6.04687 14.8498 6.04687 14.6669 6.22969L9.17788 11.7188H6.55757V5.625C6.55757 5.36719 6.34663 5.15625 6.08882 5.15625H1.40601C1.20444 5.15625 1.02632 5.2875 0.960695 5.475C0.89507 5.66719 0.960695 5.87813 1.12476 6L2.49819 7.03125L1.12476 8.0625C0.965382 8.18438 0.89507 8.39531 0.960695 8.5875C1.02632 8.77969 1.20444 8.90625 1.40601 8.90625H5.62476V11.7188H3.28101C3.02319 11.7188 2.81226 11.9297 2.81226 12.1875V15C2.81226 15.2578 3.02319 15.4688 3.28101 15.4688H3.74976V23.9062H0.937257V24.8438H29.0623V23.9062ZM24.3748 6.09375H27.1873L26.4373 6.65625C26.3201 6.74531 26.2498 6.88125 26.2498 7.03125C26.2498 7.18125 26.3201 7.31719 26.4373 7.40625L27.1873 7.96875H24.3748V6.09375ZM2.81226 7.96875L3.56226 7.40625C3.67944 7.31719 3.74976 7.18125 3.74976 7.03125C3.74976 6.88125 3.67944 6.74531 3.56226 6.65625L2.81226 6.09375H5.62476V7.96875H2.81226ZM8.90601 23.9062H4.68726V15.4688H8.90601V23.9062ZM8.90601 14.5312H3.74976V12.6562H8.90601V14.5312ZM14.531 23.9062H13.5935V21.0938H14.531V23.9062ZM16.406 23.9062H15.4685V21.0938H16.406V23.9062ZM20.156 23.9062H17.3435V20.625C17.3435 20.3672 17.1326 20.1562 16.8748 20.1562H13.1248C12.8669 20.1562 12.656 20.3672 12.656 20.625V23.9062H9.84351V12.3797L14.9998 7.22344L20.156 12.3797V23.9062ZM21.0935 12.6562H26.2498V14.5312H21.0935V12.6562ZM25.3123 23.9062H21.0935V15.4688H25.3123V23.9062Z" fill="black"/>
<path d="M29.0623 23.9062H31.0623V21.9062H29.0623V23.9062ZM26.2498 23.9062H24.2498V25.9062H26.2498V23.9062ZM26.2498 15.4688V13.4688H24.2498V15.4688H26.2498ZM24.3748 11.7188H22.3748V13.7188H24.3748V11.7188ZM24.3748 8.90625V6.90625H22.3748V8.90625H24.3748ZM29.0388 8.5875L30.9265 9.2482L30.9291 9.241L30.9315 9.23379L29.0388 8.5875ZM28.8748 8.0625L27.6739 9.66187L27.6821 9.66799L28.8748 8.0625ZM27.5013 7.03125L26.3004 5.43191L24.1704 7.03125L26.3004 8.63059L27.5013 7.03125ZM28.8748 6L30.0756 7.59934L30.0827 7.59406L30.0897 7.58872L28.8748 6ZM23.4373 11.7188V13.7188H25.4373V11.7188H23.4373ZM20.8169 11.7188L19.4027 13.133L19.9885 13.7188H20.8169V11.7188ZM15.3279 6.22969L16.7421 4.81547L16.7421 4.81547L15.3279 6.22969ZM14.6669 6.22969L16.0812 7.6439L16.0812 7.6439L14.6669 6.22969ZM9.17788 11.7188V13.7188H10.0063L10.5921 13.133L9.17788 11.7188ZM6.55757 11.7188H4.55757V13.7188H6.55757V11.7188ZM0.960695 5.475L-0.927022 4.8143L-0.929541 4.8215L-0.932005 4.82871L0.960695 5.475ZM1.12476 6L2.32565 4.40063L2.31741 4.39451L1.12476 6ZM2.49819 7.03125L3.69907 8.63059L5.8291 7.03125L3.69907 5.43191L2.49819 7.03125ZM1.12476 8.0625L-0.0761163 6.46316L-0.0831531 6.46844L-0.090143 6.47378L1.12476 8.0625ZM5.62476 8.90625H7.62476V6.90625H5.62476V8.90625ZM5.62476 11.7188V13.7188H7.62476V11.7188H5.62476ZM3.74976 15.4688H5.74976V13.4688H3.74976V15.4688ZM3.74976 23.9062V25.9062H5.74976V23.9062H3.74976ZM0.937257 23.9062V21.9062H-1.06274V23.9062H0.937257ZM0.937257 24.8438H-1.06274V26.8438H0.937257V24.8438ZM29.0623 24.8438V26.8438H31.0623V24.8438H29.0623ZM24.3748 6.09375V4.09375H22.3748V6.09375H24.3748ZM27.1873 6.09375L28.3873 7.69375L33.1873 4.09375H27.1873V6.09375ZM26.4373 6.65625L25.2372 5.05622L25.2271 5.06393L26.4373 6.65625ZM26.4373 7.40625L25.2271 8.99861L25.2373 9.00625L26.4373 7.40625ZM27.1873 7.96875V9.96875H33.1873L28.3873 6.36875L27.1873 7.96875ZM24.3748 7.96875H22.3748V9.96875H24.3748V7.96875ZM2.81226 7.96875L1.61226 6.36875L-3.18774 9.96875H2.81226V7.96875ZM3.56226 7.40625L4.76228 9.00628L4.77242 8.99857L3.56226 7.40625ZM3.56226 6.65625L4.77245 5.06389L4.76226 5.05625L3.56226 6.65625ZM2.81226 6.09375V4.09375H-3.18774L1.61226 7.69375L2.81226 6.09375ZM5.62476 6.09375H7.62476V4.09375H5.62476V6.09375ZM5.62476 7.96875V9.96875H7.62476V7.96875H5.62476ZM8.90601 23.9062V25.9062H10.906V23.9062H8.90601ZM4.68726 23.9062H2.68726V25.9062H4.68726V23.9062ZM4.68726 15.4688V13.4688H2.68726V15.4688H4.68726ZM8.90601 15.4688H10.906V13.4688H8.90601V15.4688ZM8.90601 14.5312V16.5312H10.906V14.5312H8.90601ZM3.74976 14.5312H1.74976V16.5312H3.74976V14.5312ZM3.74976 12.6562V10.6562H1.74976V12.6562H3.74976ZM8.90601 12.6562H10.906V10.6562H8.90601V12.6562ZM14.531 23.9062V25.9062H16.531V23.9062H14.531ZM13.5935 23.9062H11.5935V25.9062H13.5935V23.9062ZM13.5935 21.0938V19.0938H11.5935V21.0938H13.5935ZM14.531 21.0938H16.531V19.0938H14.531V21.0938ZM16.406 23.9062V25.9062H18.406V23.9062H16.406ZM15.4685 23.9062H13.4685V25.9062H15.4685V23.9062ZM15.4685 21.0938V19.0938H13.4685V21.0938H15.4685ZM16.406 21.0938H18.406V19.0938H16.406V21.0938ZM20.156 23.9062V25.9062H22.156V23.9062H20.156ZM17.3435 23.9062H15.3435V25.9062H17.3435V23.9062ZM12.656 23.9062V25.9062H14.656V23.9062H12.656ZM9.84351 23.9062H7.84351V25.9062H9.84351V23.9062ZM9.84351 12.3797L8.42929 10.9655L7.84351 11.5513V12.3797H9.84351ZM14.9998 7.22344L16.414 5.80922L14.9998 4.39501L13.5855 5.80922L14.9998 7.22344ZM20.156 12.3797H22.156V11.5513L21.5702 10.9655L20.156 12.3797ZM21.0935 12.6562V10.6562H19.0935V12.6562H21.0935ZM26.2498 12.6562H28.2498V10.6562H26.2498V12.6562ZM26.2498 14.5312V16.5312H28.2498V14.5312H26.2498ZM21.0935 14.5312H19.0935V16.5312H21.0935V14.5312ZM25.3123 23.9062V25.9062H27.3123V23.9062H25.3123ZM21.0935 23.9062H19.0935V25.9062H21.0935V23.9062ZM21.0935 15.4688V13.4688H19.0935V15.4688H21.0935ZM25.3123 15.4688H27.3123V13.4688H25.3123V15.4688ZM29.0623 21.9062H26.2498V25.9062H29.0623V21.9062ZM28.2498 23.9062V15.4688H24.2498V23.9062H28.2498ZM26.2498 17.4688H26.7185V13.4688H26.2498V17.4688ZM26.7185 17.4688C28.0809 17.4688 29.1873 16.3624 29.1873 15H25.1873C25.1873 14.1532 25.8717 13.4688 26.7185 13.4688V17.4688ZM29.1873 15V12.1875H25.1873V15H29.1873ZM29.1873 12.1875C29.1873 10.8251 28.0809 9.71875 26.7185 9.71875V13.7188C25.8717 13.7188 25.1873 13.0343 25.1873 12.1875H29.1873ZM26.7185 9.71875H24.3748V13.7188H26.7185V9.71875ZM26.3748 11.7188V8.90625H22.3748V11.7188H26.3748ZM24.3748 10.9062H28.5935V6.90625H24.3748V10.9062ZM28.5935 10.9062C29.6714 10.9062 30.589 10.2126 30.9265 9.2482L27.1511 7.9268C27.3574 7.33742 27.9187 6.90625 28.5935 6.90625V10.9062ZM30.9315 9.23379C31.2793 8.21517 30.9266 7.09528 30.0674 6.45701L27.6821 9.66799C27.151 9.27347 26.9296 8.57545 27.1461 7.94121L30.9315 9.23379ZM30.0756 6.46316L28.7022 5.43191L26.3004 8.63059L27.6739 9.66184L30.0756 6.46316ZM28.7022 8.63059L30.0756 7.59934L27.6739 4.40066L26.3004 5.43191L28.7022 8.63059ZM30.0897 7.58872C30.8951 6.97276 31.2894 5.87684 30.9315 4.82871L27.1461 6.12129C26.9195 5.45753 27.1731 4.78349 27.6599 4.41128L30.0897 7.58872ZM30.9315 4.82871C30.5888 3.825 29.6485 3.15625 28.5935 3.15625V7.15625C27.9416 7.15625 27.3576 6.74063 27.1461 6.12129L30.9315 4.82871ZM28.5935 3.15625H23.906V7.15625H28.5935V3.15625ZM23.906 3.15625C22.5436 3.15625 21.4373 4.26262 21.4373 5.625H25.4373C25.4373 6.47176 24.7528 7.15625 23.906 7.15625V3.15625ZM21.4373 5.625V11.7188H25.4373V5.625H21.4373ZM23.4373 9.71875H20.8169V13.7188H23.4373V9.71875ZM22.2312 10.3045L16.7421 4.81547L13.9137 7.6439L19.4027 13.133L22.2312 10.3045ZM16.7421 4.81547C15.7782 3.85161 14.2166 3.85161 13.2527 4.81547L16.0812 7.6439C15.4829 8.24214 14.5119 8.24214 13.9137 7.6439L16.7421 4.81547ZM13.2527 4.81547L7.76367 10.3045L10.5921 13.133L16.0812 7.6439L13.2527 4.81547ZM9.17788 9.71875H6.55757V13.7188H9.17788V9.71875ZM8.55757 11.7188V5.625H4.55757V11.7188H8.55757ZM8.55757 5.625C8.55757 4.26262 7.4512 3.15625 6.08882 3.15625V7.15625C5.24206 7.15625 4.55757 6.47176 4.55757 5.625H8.55757ZM6.08882 3.15625H1.40601V7.15625H6.08882V3.15625ZM1.40601 3.15625C0.328063 3.15625 -0.58949 3.84992 -0.927022 4.8143L2.84841 6.1357C2.64213 6.72508 2.08083 7.15625 1.40601 7.15625V3.15625ZM-0.932005 4.82871C-1.27982 5.84732 -0.927102 6.96722 -0.0678908 7.60549L2.31741 4.39451C2.84849 4.78903 3.06996 5.48706 2.85339 6.12129L-0.932005 4.82871ZM-0.076116 7.59934L1.29732 8.63059L3.69907 5.43191L2.32563 4.40066L-0.076116 7.59934ZM1.29732 5.43191L-0.0761163 6.46316L2.32563 9.66184L3.69907 8.63059L1.29732 5.43191ZM-0.090143 6.47378C-0.895625 7.08974 -1.2899 8.18566 -0.932005 9.23379L2.85339 7.94121C3.08004 8.60496 2.82639 9.27901 2.33966 9.65122L-0.090143 6.47378ZM-0.932005 9.23379C-0.589273 10.2375 0.350999 10.9062 1.40601 10.9062V6.90625C2.05789 6.90625 2.64191 7.32187 2.85339 7.94121L-0.932005 9.23379ZM1.40601 10.9062H5.62476V6.90625H1.40601V10.9062ZM3.62476 8.90625V11.7188H7.62476V8.90625H3.62476ZM5.62476 9.71875H3.28101V13.7188H5.62476V9.71875ZM3.28101 9.71875C1.91863 9.71875 0.812257 10.8251 0.812257 12.1875H4.81226C4.81226 13.0343 4.12776 13.7188 3.28101 13.7188V9.71875ZM0.812257 12.1875V15H4.81226V12.1875H0.812257ZM0.812257 15C0.812257 16.3624 1.91863 17.4688 3.28101 17.4688V13.4688C4.12776 13.4688 4.81226 14.1532 4.81226 15H0.812257ZM3.28101 17.4688H3.74976V13.4688H3.28101V17.4688ZM1.74976 15.4688V23.9062H5.74976V15.4688H1.74976ZM3.74976 21.9062H0.937257V25.9062H3.74976V21.9062ZM-1.06274 23.9062V24.8438H2.93726V23.9062H-1.06274ZM0.937257 26.8438H29.0623V22.8438H0.937257V26.8438ZM31.0623 24.8438V23.9062H27.0623V24.8438H31.0623ZM24.3748 8.09375H27.1873V4.09375H24.3748V8.09375ZM25.9873 4.49375L25.2373 5.05625L27.6373 8.25625L28.3873 7.69375L25.9873 4.49375ZM25.2271 5.06393C24.6286 5.51876 24.2498 6.23597 24.2498 7.03125H28.2498C28.2498 7.52653 28.0115 7.97186 27.6474 8.24857L25.2271 5.06393ZM24.2498 7.03125C24.2498 7.82653 24.6286 8.54374 25.2271 8.99857L27.6474 5.81393C28.0115 6.09064 28.2498 6.53597 28.2498 7.03125H24.2498ZM25.2373 9.00625L25.9873 9.56875L28.3873 6.36875L27.6373 5.80625L25.2373 9.00625ZM27.1873 5.96875H24.3748V9.96875H27.1873V5.96875ZM26.3748 7.96875V6.09375H22.3748V7.96875H26.3748ZM4.01226 9.56875L4.76226 9.00625L2.36226 5.80625L1.61226 6.36875L4.01226 9.56875ZM4.77242 8.99857C5.3709 8.54373 5.74976 7.82653 5.74976 7.03125H1.74976C1.74976 6.53597 1.98799 6.09064 2.35209 5.81393L4.77242 8.99857ZM5.74976 7.03125C5.74976 6.23597 5.3709 5.51877 4.77242 5.06393L2.35209 8.24857C1.98799 7.97186 1.74976 7.52653 1.74976 7.03125H5.74976ZM4.76226 5.05625L4.01226 4.49375L1.61226 7.69375L2.36226 8.25625L4.76226 5.05625ZM2.81226 8.09375H5.62476V4.09375H2.81226V8.09375ZM3.62476 6.09375V7.96875H7.62476V6.09375H3.62476ZM5.62476 5.96875H2.81226V9.96875H5.62476V5.96875ZM8.90601 21.9062H4.68726V25.9062H8.90601V21.9062ZM6.68726 23.9062V15.4688H2.68726V23.9062H6.68726ZM4.68726 17.4688H8.90601V13.4688H4.68726V17.4688ZM6.90601 15.4688V23.9062H10.906V15.4688H6.90601ZM8.90601 12.5312H3.74976V16.5312H8.90601V12.5312ZM5.74976 14.5312V12.6562H1.74976V14.5312H5.74976ZM3.74976 14.6562H8.90601V10.6562H3.74976V14.6562ZM6.90601 12.6562V14.5312H10.906V12.6562H6.90601ZM14.531 21.9062H13.5935V25.9062H14.531V21.9062ZM15.5935 23.9062V21.0938H11.5935V23.9062H15.5935ZM13.5935 23.0938H14.531V19.0938H13.5935V23.0938ZM12.531 21.0938V23.9062H16.531V21.0938H12.531ZM16.406 21.9062H15.4685V25.9062H16.406V21.9062ZM17.4685 23.9062V21.0938H13.4685V23.9062H17.4685ZM15.4685 23.0938H16.406V19.0938H15.4685V23.0938ZM14.406 21.0938V23.9062H18.406V21.0938H14.406ZM20.156 21.9062H17.3435V25.9062H20.156V21.9062ZM19.3435 23.9062V20.625H15.3435V23.9062H19.3435ZM19.3435 20.625C19.3435 19.2626 18.2371 18.1562 16.8748 18.1562V22.1562C16.028 22.1562 15.3435 21.4718 15.3435 20.625H19.3435ZM16.8748 18.1562H13.1248V22.1562H16.8748V18.1562ZM13.1248 18.1562C11.7624 18.1562 10.656 19.2626 10.656 20.625H14.656C14.656 21.4718 13.9715 22.1562 13.1248 22.1562V18.1562ZM10.656 20.625V23.9062H14.656V20.625H10.656ZM12.656 21.9062H9.84351V25.9062H12.656V21.9062ZM11.8435 23.9062V12.3797H7.84351V23.9062H11.8435ZM11.2577 13.7939L16.414 8.63765L13.5855 5.80922L8.42929 10.9655L11.2577 13.7939ZM13.5855 8.63765L18.7418 13.7939L21.5702 10.9655L16.414 5.80922L13.5855 8.63765ZM18.156 12.3797V23.9062H22.156V12.3797H18.156ZM21.0935 14.6562H26.2498V10.6562H21.0935V14.6562ZM24.2498 12.6562V14.5312H28.2498V12.6562H24.2498ZM26.2498 12.5312H21.0935V16.5312H26.2498V12.5312ZM23.0935 14.5312V12.6562H19.0935V14.5312H23.0935ZM25.3123 21.9062H21.0935V25.9062H25.3123V21.9062ZM23.0935 23.9062V15.4688H19.0935V23.9062H23.0935ZM21.0935 17.4688H25.3123V13.4688H21.0935V17.4688ZM23.3123 15.4688V23.9062H27.3123V15.4688H23.3123Z" fill="black" mask="url(#path-10-inside-1_358_127)"/>
<mask id="path-12-inside-2_358_127" fill="white">
<path d="M12.1875 13.125C12.1875 14.6766 13.4484 15.9375 15 15.9375C16.5516 15.9375 17.8125 14.6766 17.8125 13.125C17.8125 11.5734 16.5516 10.3125 15 10.3125C13.4484 10.3125 12.1875 11.5734 12.1875 13.125ZM14.5312 14.9344C13.725 14.7234 13.125 13.9969 13.125 13.125C13.125 12.2531 13.725 11.5266 14.5312 11.3156V14.9344ZM15.4688 11.3156C16.275 11.5266 16.875 12.2531 16.875 13.125C16.875 13.9969 16.275 14.7234 15.4688 14.9344V11.3156Z"/>
</mask>
<path d="M12.1875 13.125C12.1875 14.6766 13.4484 15.9375 15 15.9375C16.5516 15.9375 17.8125 14.6766 17.8125 13.125C17.8125 11.5734 16.5516 10.3125 15 10.3125C13.4484 10.3125 12.1875 11.5734 12.1875 13.125ZM14.5312 14.9344C13.725 14.7234 13.125 13.9969 13.125 13.125C13.125 12.2531 13.725 11.5266 14.5312 11.3156V14.9344ZM15.4688 11.3156C16.275 11.5266 16.875 12.2531 16.875 13.125C16.875 13.9969 16.275 14.7234 15.4688 14.9344V11.3156Z" fill="black"/>
<path d="M14.5312 14.9344L14.025 16.8693L16.5312 17.5249V14.9344H14.5312ZM14.5312 11.3156H16.5312V8.72505L14.025 9.38075L14.5312 11.3156ZM15.4688 11.3156L15.975 9.38075L13.4688 8.72505V11.3156H15.4688ZM15.4688 14.9344H13.4688V17.5249L15.975 16.8693L15.4688 14.9344ZM10.1875 13.125C10.1875 15.7811 12.3439 17.9375 15 17.9375V13.9375C14.553 13.9375 14.1875 13.572 14.1875 13.125H10.1875ZM15 17.9375C17.6561 17.9375 19.8125 15.7811 19.8125 13.125H15.8125C15.8125 13.572 15.447 13.9375 15 13.9375V17.9375ZM19.8125 13.125C19.8125 10.4689 17.6561 8.3125 15 8.3125V12.3125C15.447 12.3125 15.8125 12.678 15.8125 13.125H19.8125ZM15 8.3125C12.3439 8.3125 10.1875 10.4689 10.1875 13.125H14.1875C14.1875 12.678 14.553 12.3125 15 12.3125V8.3125ZM15.0375 12.9995C15.0609 13.0056 15.0799 13.0185 15.0943 13.0367C15.1118 13.0587 15.125 13.0928 15.125 13.125H11.125C11.125 14.9461 12.3777 16.4383 14.025 16.8693L15.0375 12.9995ZM15.125 13.125C15.125 13.1572 15.1118 13.1913 15.0943 13.2133C15.0799 13.2315 15.0609 13.2444 15.0375 13.2505L14.025 9.38075C12.3777 9.81173 11.125 11.3039 11.125 13.125H15.125ZM12.5312 11.3156V14.9344H16.5312V11.3156H12.5312ZM14.9625 13.2505C14.9391 13.2444 14.9201 13.2315 14.9057 13.2133C14.8882 13.1913 14.875 13.1572 14.875 13.125H18.875C18.875 11.3039 17.6223 9.81173 15.975 9.38075L14.9625 13.2505ZM14.875 13.125C14.875 13.0928 14.8882 13.0587 14.9057 13.0367C14.9201 13.0185 14.9391 13.0056 14.9625 12.9995L15.975 16.8693C17.6223 16.4383 18.875 14.9461 18.875 13.125H14.875ZM17.4688 14.9344V11.3156H13.4688V14.9344H17.4688Z" fill="black" mask="url(#path-12-inside-2_358_127)"/>
</svg>
