<svg width="30" height="30" viewBox="0 0 30 30" fill="none" xmlns="http://www.w3.org/2000/svg">
<g clip-path="url(#clip0_402_14)">
<path fill-rule="evenodd" clip-rule="evenodd" d="M18.566 14.9999L29.2621 4.30383C30.2467 3.31924 30.2467 1.72291 29.2621 0.738461C28.2775 -0.246129 26.6813 -0.246129 25.6967 0.738461L15.0005 11.4347L4.3042 0.738321C3.31961 -0.24627 1.72342 -0.24627 0.738825 0.738321C-0.245624 1.72291 -0.245624 3.31924 0.738825 4.30369L11.4351 14.9998L0.738825 25.6961C-0.245624 26.6807 -0.245624 28.277 0.738825 29.2614C1.72342 30.246 3.31961 30.246 4.3042 29.2614L15.0005 18.5652L25.6967 29.2614C26.6812 30.246 28.2775 30.246 29.2621 29.2614C30.2467 28.2768 30.2467 26.6807 29.2621 25.6961L18.566 14.9999Z" fill="black"/>
</g>
<defs>
<clipPath id="clip0_402_14">
<rect width="30" height="30" fill="white"/>
</clipPath>
</defs>
</svg>
