<svg width="10" height="10" viewBox="0 0 10 10" fill="none" xmlns="http://www.w3.org/2000/svg">
<path fill-rule="evenodd" clip-rule="evenodd" d="M0 3.58449C0 1.607 1.39721 0 3.125 0C3.82851 0 4.47801 0.267105 5 0.716698C5.52199 0.267105 6.17149 0 6.875 0C8.60278 0 10 1.607 10 3.58449C10 4.32302 9.68338 5.04074 9.33365 5.62549C8.97614 6.22324 8.53751 6.75755 8.20479 7.13944L6.21605 9.42206C5.54468 10.1926 4.45533 10.1926 3.78395 9.42206L1.79521 7.13944C1.45695 6.75119 1.01811 6.21668 0.661877 5.62027C0.312961 5.03609 0 4.3221 0 3.58449Z" fill="#B6B6B6"/>
</svg>
