<svg width="30" height="30" viewBox="0 0 30 30" fill="none" xmlns="http://www.w3.org/2000/svg">
<path d="M15.0022 1.71875C7.67369 1.71875 1.71924 7.66893 1.71924 14.9974C1.71924 22.3259 7.67369 28.2804 15.0022 28.2804C22.3307 28.2804 28.2809 22.3259 28.2809 14.9974C28.2809 7.66893 22.3307 1.71875 15.0022 1.71875Z" fill="#87D1EE"/>
<path d="M15.0015 1.71875C10.971 1.71875 7.35674 3.51868 4.91943 6.3577C6.58633 5.60373 8.43509 5.18356 10.3817 5.18356C17.7102 5.18356 23.6613 11.1335 23.6613 18.462C23.6613 21.7626 22.4532 24.7846 20.457 27.1094C25.0684 25.0254 28.281 20.3821 28.281 14.9972C28.281 7.66869 22.33 1.71875 15.0015 1.71875Z" fill="#2BB3CD"/>
<path d="M15.0015 1.71889C10.6814 1.71889 6.83991 3.78712 4.41309 6.98605L4.9883 7.3199C5.07453 7.38603 7.98699 9.61127 11.0675 9.5497C11.4161 9.54924 11.8314 9.49045 12.2529 9.42563C12.9337 10.096 13.4845 10.4682 14.529 11.4163C15.2555 12.0759 15.9604 12.5438 16.7667 12.6107C17.5729 12.6777 18.3551 12.2798 19.0732 11.5314C21.1229 9.39493 21.3154 6.73955 21.78 4.01636C21.7818 4.00663 21.7834 3.99685 21.7847 3.98703L21.832 3.61031C19.8359 2.40956 17.4986 1.71889 15.0015 1.71889Z" fill="#50B86B"/>
<path d="M11.8662 12.5747C11.5818 12.5729 11.3423 12.5848 11.1703 12.5848H1.93981C1.79582 13.3673 1.71875 14.1735 1.71875 14.9974C1.71875 16.7513 2.06145 18.4262 2.68082 19.96L3.0237 20.0017C3.67988 20.1218 4.3438 20.1992 4.95461 20.2454C5.96507 20.3215 6.84151 21.2321 7.51714 22.2439C8.04856 23.0398 8.80127 23.7633 9.6646 24.2516C10.5227 24.7368 11.5174 24.991 12.4865 24.7377C13.4584 24.5222 14.1558 23.9847 14.5291 23.3402C14.9005 22.6992 14.9757 21.9842 14.8359 21.3665V21.3653C14.6724 20.5446 14.9027 20.1789 15.2622 19.6656C15.6219 19.152 16.1865 18.5199 16.2006 17.5429C16.2006 17.5426 16.2006 17.5422 16.2006 17.5418C16.2006 17.5414 16.2006 17.541 16.2006 17.5406C16.2006 17.5403 16.2006 17.5399 16.2006 17.5395C16.2006 17.5391 16.2006 17.5387 16.2006 17.5383C16.2006 17.5379 16.2006 17.5376 16.2006 17.5372C16.2006 17.5368 16.2006 17.5364 16.2006 17.536C16.2006 17.5356 16.2006 17.5353 16.2006 17.5349C16.2006 17.5345 16.2006 17.5341 16.2006 17.5337C16.2006 15.0356 15.2678 13.6606 14.1197 13.0617C13.3303 12.65 12.4918 12.579 11.8662 12.5747Z" fill="#50B86B"/>
<path d="M25.1005 13.592C24.4143 13.6003 23.7952 13.781 23.2756 14.0894C22.0879 14.7943 21.4259 16.0668 21.4259 17.2779C21.4259 17.8157 21.3308 18.1067 21.2172 18.3054C21.1036 18.504 20.951 18.6366 20.7311 18.8129C20.5111 18.9893 20.2206 19.2023 19.9856 19.563C19.7505 19.9236 19.6055 20.4115 19.6055 21.0292C19.6055 22.5365 19.7806 23.5288 20.1254 24.2989C20.4703 25.069 20.9715 25.5668 21.4856 26.0809L21.7935 26.4103C25.677 24.0907 28.2811 19.8447 28.2811 14.9973C28.2811 14.9032 28.2799 14.8091 28.2776 14.7154L28.0633 14.5451C28.047 14.5329 28.03 14.5216 28.0125 14.5112C27.0922 13.9288 26.2046 13.6465 25.3993 13.5988C25.2986 13.5928 25.1985 13.5908 25.1005 13.592Z" fill="#50B86B"/>
<path d="M15.0017 1.71887C14.8758 1.71887 14.7502 1.72118 14.625 1.72464C14.5561 1.72638 14.4873 1.72984 14.4186 1.73256C14.3494 1.73544 14.2801 1.73775 14.2111 1.74156C14.1907 1.74272 14.1706 1.74503 14.1502 1.74619C14.0332 1.75364 13.9168 1.76281 13.8006 1.77327C13.6807 1.78406 13.5609 1.79654 13.4419 1.81051C13.3986 1.81571 13.3554 1.82079 13.3122 1.82628C13.2303 1.83673 13.1489 1.84822 13.0674 1.86012C13.0169 1.86751 12.9667 1.87583 12.9163 1.8838C12.8432 1.89535 12.7702 1.90713 12.6975 1.91989C12.6492 1.92832 12.6012 1.93686 12.5531 1.94581C12.4683 1.96163 12.3836 1.97914 12.2994 1.99658C12.2626 2.0042 12.2255 2.01124 12.1888 2.01915C12.108 2.03665 12.0278 2.05547 11.9475 2.07442C11.8985 2.08597 11.8496 2.09728 11.8008 2.10935C11.7236 2.12853 11.6463 2.14862 11.5696 2.16913C11.5305 2.17958 11.4913 2.18992 11.4523 2.20072C11.3558 2.22746 11.2604 2.25529 11.1647 2.28418C11.1441 2.29042 11.1233 2.29591 11.1027 2.3022C11.0246 2.32622 10.9468 2.35123 10.8692 2.37664C10.8139 2.39477 10.7584 2.41308 10.7034 2.43191C10.6967 2.43422 10.6899 2.43653 10.6831 2.43867C10.5859 2.4721 10.4894 2.50678 10.3932 2.54242C10.2868 2.58186 10.1815 2.62326 10.0763 2.66537C10.061 2.67149 10.0454 2.67721 10.0301 2.68339C9.91478 2.72999 9.7997 2.77687 9.68606 2.82662C9.68561 2.82681 9.68547 2.82777 9.68489 2.82777C9.56858 2.8787 9.45319 2.93152 9.33864 2.98567C9.23403 3.03511 9.13044 3.08587 9.02734 3.13794C8.96829 3.16773 8.90994 3.19862 8.8514 3.22929C8.79833 3.25707 8.74501 3.28427 8.69237 3.31276C8.6654 3.32737 8.63912 3.34307 8.61229 3.35785C8.5184 3.40954 8.42506 3.4619 8.33258 3.51576C8.22818 3.57657 8.12499 3.63831 8.02241 3.70186C8.00734 3.71122 7.99233 3.72069 7.97731 3.73004C7.89479 3.78161 7.81273 3.83461 7.73144 3.88794C7.69748 3.91023 7.66369 3.93304 7.62993 3.95562C7.56867 3.99662 7.50775 4.0377 7.44721 4.07967C7.40217 4.11091 7.35762 4.14266 7.313 4.17442C7.24967 4.21952 7.18602 4.26473 7.12351 4.31089C7.09972 4.32844 7.0761 4.34618 7.05246 4.36391C6.96166 4.4319 6.87188 4.50006 6.7829 4.5703C6.77886 4.57318 6.77539 4.57637 6.77164 4.57931C6.68187 4.65032 6.59333 4.72373 6.50546 4.79699C6.49478 4.80588 6.48339 4.81402 6.47277 4.82291C6.39249 4.89027 6.31343 4.95899 6.23479 5.02819C6.22018 5.04106 6.20534 5.0536 6.19078 5.06653C6.09985 5.14725 6.0099 5.22927 5.92122 5.31241C5.82984 5.3981 5.73947 5.48474 5.65053 5.57295C5.56254 5.66022 5.47554 5.74831 5.38999 5.838C5.38884 5.83915 5.38884 5.84031 5.38769 5.84146C5.30126 5.93214 5.21666 6.02358 5.13279 6.11666C5.06156 6.19571 4.99121 6.27616 4.92188 6.3569C6.58817 5.60358 8.43617 5.18391 10.3819 5.18391C14.357 5.18391 17.9255 6.93512 20.3602 9.70668C21.2426 7.96361 21.4402 6.00888 21.7802 4.01657C21.782 4.00683 21.7835 3.99705 21.7848 3.98723L21.8321 3.61051C21.8161 3.60087 21.7997 3.59192 21.7836 3.58234C21.6989 3.53186 21.6135 3.4832 21.5276 3.43458C21.4844 3.4101 21.4415 3.38527 21.3979 3.36127C21.3126 3.31427 21.2261 3.26774 21.1396 3.22254C21.1155 3.2099 21.0917 3.19667 21.0674 3.1842C21.0599 3.18015 21.0524 3.17675 21.0448 3.17294C20.9413 3.11992 20.8363 3.0688 20.7313 3.01842C20.6786 2.99312 20.6254 2.96859 20.5723 2.94399C20.4964 2.90882 20.4199 2.87396 20.3433 2.84022C20.3068 2.82411 20.2706 2.80748 20.2339 2.79172C20.1237 2.74436 20.0129 2.69853 19.9012 2.65411C19.8895 2.64949 19.878 2.64405 19.8663 2.63944C19.851 2.63343 19.8353 2.62847 19.82 2.62252C19.7111 2.58007 19.602 2.53922 19.4918 2.49958C19.4611 2.48849 19.4301 2.4777 19.3993 2.4669C19.3025 2.43288 19.2049 2.40057 19.1072 2.36876C19.0658 2.35531 19.0247 2.34122 18.9831 2.32817C18.887 2.29797 18.7903 2.26939 18.6933 2.24132C18.6736 2.23555 18.6543 2.22885 18.6346 2.2233C18.5763 2.20673 18.5173 2.19172 18.4587 2.17595C18.3938 2.15845 18.3288 2.14055 18.2635 2.1241C18.2001 2.10804 18.1367 2.09297 18.0729 2.07784C17.9749 2.05457 17.8763 2.03234 17.7774 2.0113C17.7627 2.00841 17.7481 2.00425 17.7334 2.00113C17.7305 2.00055 17.7274 1.9994 17.7244 1.99882C17.5819 1.96908 17.4388 1.94275 17.2947 1.91762C17.293 1.91735 17.2918 1.91704 17.2901 1.91646C17.2849 1.91531 17.2795 1.9153 17.2743 1.91414C17.1614 1.89463 17.0476 1.87661 16.9337 1.86004C16.8742 1.85132 16.8141 1.84312 16.7544 1.83521C16.6325 1.8191 16.5106 1.80397 16.3878 1.79121C16.2479 1.77665 16.1072 1.76412 15.966 1.75396C15.9288 1.75107 15.8915 1.74934 15.8543 1.7472C15.7513 1.74068 15.6478 1.73444 15.5442 1.73028C15.4991 1.72855 15.454 1.72739 15.4088 1.72566C15.2734 1.72161 15.1382 1.71887 15.0017 1.71887Z" fill="#46A05D"/>
<path d="M25.1006 13.592C24.4144 13.6007 23.7953 13.781 23.2757 14.0893C23.1756 14.1487 23.0807 14.2139 22.9881 14.2812C23.4247 15.5961 23.6614 17.0015 23.6614 18.4622C23.6614 21.2358 22.8085 23.8128 21.3516 25.9445C21.3966 25.9897 21.4405 26.0357 21.4858 26.0809L21.7937 26.4102C21.8052 26.4037 21.8161 26.395 21.8275 26.3884C21.9372 26.3225 22.0459 26.2555 22.1535 26.1866C22.273 26.11 22.3919 26.0322 22.5087 25.9519C22.5425 25.9288 22.5755 25.9043 22.6091 25.8808C22.6984 25.8181 22.7876 25.7549 22.8753 25.6903C22.8805 25.6859 22.886 25.6837 22.891 25.6794C22.9227 25.656 22.9532 25.6309 22.9846 25.6071C23.0648 25.5466 23.145 25.4855 23.2237 25.4233C23.2888 25.3718 23.3525 25.3192 23.4166 25.2666C23.4594 25.2315 23.5017 25.1963 23.544 25.1606C23.6104 25.1047 23.6762 25.0486 23.7414 24.9914C23.794 24.9453 23.8463 24.8984 23.8982 24.8515C23.9591 24.7965 24.0199 24.7408 24.0798 24.6845C24.1225 24.6446 24.1651 24.6044 24.2072 24.5638C24.2663 24.5069 24.324 24.4492 24.382 24.3912C24.4446 24.3288 24.5068 24.2655 24.5681 24.2018C24.6035 24.1649 24.6392 24.1284 24.6741 24.0913C24.7417 24.0195 24.8078 23.947 24.8738 23.8737C24.9139 23.829 24.9549 23.7847 24.9945 23.7395C25.0308 23.698 25.0658 23.6552 25.1016 23.6131C25.1652 23.5387 25.2291 23.4644 25.2911 23.3886C25.3804 23.2793 25.468 23.1693 25.5539 23.0571C25.6391 22.9457 25.7226 22.8328 25.8043 22.7187C25.8088 22.7121 25.8132 22.7056 25.8178 22.699C25.86 22.6399 25.9006 22.5795 25.9419 22.5197C25.9762 22.4697 26.0108 22.4201 26.0445 22.3697C26.0502 22.3609 26.0556 22.3522 26.0615 22.3437C26.1049 22.2784 26.1467 22.2123 26.189 22.1464C26.2285 22.0846 26.2688 22.0229 26.3074 21.9602C26.3484 21.8939 26.3882 21.8266 26.4281 21.7594C26.4626 21.7011 26.497 21.6434 26.5307 21.5846C26.5714 21.5137 26.612 21.4421 26.6514 21.3703C26.6893 21.3011 26.7263 21.2315 26.763 21.1616C26.79 21.1103 26.8168 21.0588 26.8431 21.0071C26.8869 20.9211 26.9298 20.8347 26.9717 20.7477C26.9969 20.6954 27.0215 20.6425 27.0461 20.5897C27.0913 20.4926 27.1352 20.3948 27.1781 20.2965C27.194 20.26 27.2099 20.2236 27.2254 20.1871C27.2711 20.0797 27.3145 19.971 27.3574 19.8623C27.3694 19.8319 27.3829 19.8025 27.3946 19.7721C27.397 19.7656 27.399 19.7591 27.4014 19.7547C27.456 19.6126 27.5084 19.4693 27.5582 19.325C27.558 19.3253 27.5583 19.3246 27.5582 19.325C27.6073 19.1824 27.6548 19.0377 27.6992 18.893C27.7221 18.8184 27.743 18.7426 27.7646 18.6674C27.7833 18.6024 27.8021 18.5378 27.8198 18.4723C27.8388 18.4023 27.8561 18.3317 27.874 18.2614C27.8971 18.17 27.9204 18.0783 27.9416 17.9862C27.953 17.9371 27.9636 17.8878 27.9744 17.8385C27.9962 17.739 28.0169 17.6399 28.0364 17.5396C28.0477 17.4809 28.0585 17.4215 28.0691 17.3626C28.0868 17.2642 28.1032 17.165 28.1187 17.0659C28.1321 16.9812 28.1454 16.8964 28.1571 16.8111C28.1583 16.8024 28.1604 16.7936 28.1617 16.784C28.1621 16.7818 28.1624 16.7774 28.1628 16.7753C28.1794 16.6515 28.1937 16.5278 28.2068 16.4031C28.2109 16.3644 28.2144 16.3256 28.2181 16.287C28.2299 16.1658 28.2402 16.0436 28.2486 15.9215C28.2491 15.9149 28.2503 15.9062 28.2508 15.899C28.2515 15.8881 28.2523 15.8763 28.253 15.8652C28.2608 15.7439 28.2665 15.622 28.2711 15.4997C28.2712 15.4954 28.2709 15.491 28.2711 15.4866C28.2721 15.4576 28.2737 15.4288 28.2743 15.3998C28.2783 15.2658 28.2811 15.132 28.2811 14.9971C28.2811 14.9031 28.2797 14.8087 28.2778 14.7151L28.0635 14.5449C28.0472 14.5327 28.0303 14.5215 28.0128 14.5111C27.0924 13.9287 26.2049 13.6464 25.3995 13.5987C25.2988 13.5921 25.1986 13.5898 25.1006 13.592Z" fill="#46A05D"/>
<path d="M11.8663 12.5747C11.582 12.5727 11.3424 12.5856 11.1704 12.5856H9.90723C10.4773 12.6157 11.1604 12.7237 11.8099 13.0627C12.9581 13.6616 13.8909 15.0365 13.8909 17.5347C13.8909 17.5343 13.8909 17.535 13.8909 17.5347C13.8909 17.535 13.8909 17.5365 13.8909 17.5369C13.8909 17.5365 13.8909 17.5373 13.8909 17.5369C13.8909 17.5373 13.8909 17.5388 13.8909 17.5392C13.8909 17.5388 13.8909 17.5396 13.8909 17.5392C13.8909 17.5396 13.8909 17.5411 13.8909 17.5415C13.8909 17.5411 13.8909 17.5418 13.8909 17.5415C13.8909 17.5418 13.8909 17.5433 13.8909 17.5437C13.8767 18.5207 13.3122 19.1528 12.9525 19.6663C12.5929 20.1797 12.3626 20.5453 12.5261 21.3661C12.666 21.9839 12.5907 22.6999 12.2194 23.341C11.8936 23.9032 11.3216 24.3837 10.5354 24.6402C11.164 24.8476 11.8314 24.9097 12.4867 24.7385C13.4586 24.5231 14.1559 23.9855 14.5292 23.341C14.9006 22.7 14.9759 21.9851 14.836 21.3673C14.6725 20.5465 14.9028 20.1798 15.2623 19.6665C15.6221 19.1529 16.1866 18.5207 16.2007 17.5438C16.2007 17.5442 16.2007 17.5434 16.2007 17.5438C16.2007 17.5434 16.2007 17.5419 16.2007 17.5415C16.2007 17.5419 16.2007 17.5412 16.2007 17.5415C16.2007 17.5411 16.2007 17.5396 16.2007 17.5393C16.2007 17.5396 16.2007 17.5389 16.2007 17.5393C16.2007 17.5389 16.2007 17.5374 16.2007 17.537C16.2007 17.5374 16.2007 17.5366 16.2007 17.537C16.2007 17.5366 16.2007 17.5352 16.2007 17.5348C16.2007 15.0367 15.268 13.6617 14.1198 13.0628C13.3305 12.651 12.4919 12.579 11.8663 12.5747Z" fill="#46A05D"/>
<path d="M15.0017 1.71912C7.67319 1.71912 1.71875 7.66906 1.71875 14.9975C1.71875 22.3261 7.67319 28.2805 15.0017 28.2805C22.3302 28.2805 28.2812 22.3261 28.2812 14.9975C28.2812 7.66906 22.3302 1.71912 15.0017 1.71912ZM15.0017 2.87408C17.0124 2.87408 18.9076 3.36188 20.5756 4.22526C20.1479 6.82423 19.8956 9.00742 18.2421 10.7308C17.6577 11.3399 17.2544 11.4921 16.8604 11.4594C16.4665 11.4267 15.9553 11.1467 15.3096 10.5605C14.7318 10.0375 14.0629 9.6053 13.4633 9.18339C13.5369 9.16366 13.6113 9.1415 13.6855 9.11919C13.9902 9.02602 14.1617 8.70334 14.0689 8.39849C13.9758 8.09373 13.6531 7.92223 13.3482 8.01502C12.4882 8.27478 11.6363 8.39509 11.0587 8.39509C11.0541 8.39505 11.0506 8.39505 11.0462 8.39509C9.1846 8.43232 7.1037 7.29377 6.15238 6.70328C8.58733 4.26831 12.1378 2.91971 15.0017 2.87408ZM16.1975 17.2887C16.1381 14.9461 15.2295 13.6422 14.1197 13.0632C13.2586 12.6141 12.3395 12.5699 11.7016 12.576C8.85691 12.6018 5.97337 12.5846 3.11395 12.5846C3.48632 10.7363 4.2785 9.04133 5.38661 7.60275C6.33106 8.2331 8.65606 9.59771 11.0677 9.54948C11.3746 9.5491 11.7167 9.52325 12.0817 9.47297C12.3002 9.78108 12.6478 10.0105 12.9095 10.2061C13.4021 10.5516 13.9872 10.9243 14.5291 11.4163C15.2557 12.0759 15.9605 12.5438 16.7668 12.6107C17.5731 12.6776 18.3553 12.2798 19.0733 11.5313C20.9109 9.61607 21.2573 7.27488 21.6438 4.84981C24.6913 6.84625 26.7816 10.1784 27.0868 14.0206C26.4983 13.7662 25.9307 13.6302 25.3995 13.5988C25.2989 13.5919 25.1987 13.5902 25.1006 13.5919C24.4145 13.6005 23.7953 13.7809 23.2758 14.0893C22.0881 14.7942 21.426 16.0667 21.426 17.2778C21.426 17.8156 21.3309 18.1066 21.2174 18.3053C20.8287 18.7706 20.2809 19.1469 19.9858 19.5628C19.7507 19.9234 19.6057 20.4114 19.6057 21.0291C19.6057 22.5364 19.7808 23.5287 20.1256 24.2988C20.3545 24.8098 20.6548 25.1974 20.9794 25.553C19.2161 26.5531 17.1767 27.1252 15.0017 27.1252C10.1421 27.1252 5.95675 24.2752 4.02074 20.1539C4.33961 20.1923 4.654 20.2227 4.95461 20.2453C5.96508 20.3215 6.84152 21.2332 7.51714 22.245C8.04856 23.0409 8.80241 23.7644 9.66574 24.2526C10.5238 24.7379 11.5186 24.9921 12.4877 24.7388C13.4596 24.5233 14.1558 23.9846 14.5291 23.3402C14.8938 22.7106 14.9724 22.0103 14.8427 21.4002C14.7079 20.7506 14.9509 20.1132 15.2623 19.6667C15.622 19.1531 16.1865 18.5199 16.2006 17.5429L16.1975 17.2887ZM11.7185 13.7377C12.3092 13.7395 13.0028 13.7827 13.5828 14.0851C14.3556 14.4882 15.0434 15.299 15.0445 17.5297C15.0354 18.0691 14.7244 18.4217 14.3159 19.0049C14.2254 19.1341 14.1342 19.2769 14.0486 19.4323C13.9709 19.3047 13.8934 19.1816 13.8174 19.0647C13.6438 18.7954 13.2837 18.719 13.0155 18.8944C12.7477 19.0695 12.6736 19.4282 12.8497 19.6953C13.0597 20.0183 13.2794 20.3894 13.4419 20.7272C13.7842 21.4315 13.7533 22.1 13.5277 22.7653C13.3118 23.138 12.9405 23.4644 12.2751 23.6244C11.6097 23.7843 10.9147 23.6329 10.2321 23.2469C9.5494 22.8608 8.90891 22.2475 8.48047 21.6059C7.7347 20.489 6.64575 19.2162 5.04046 19.0952C4.55289 19.0585 4.03213 18.9942 3.51784 18.9104C3.10063 17.6832 2.87495 16.3671 2.87495 14.9977C2.87495 14.5729 2.89678 14.1537 2.93925 13.7402H11.1705C11.3367 13.7402 11.5215 13.7377 11.7185 13.7377ZM25.3465 14.7314C25.8611 14.7636 26.4507 14.9405 27.1218 15.3224C27.0177 19.2975 25.0069 22.7923 21.9697 24.9273C21.6296 24.5732 21.3731 24.2588 21.179 23.8254C20.9264 23.2611 20.7617 22.447 20.7617 21.0294C20.7617 20.5749 20.8476 20.3561 20.9535 20.1937C21.1859 19.9097 21.4057 19.7511 21.6595 19.544C21.8311 19.4352 22.6461 18.9336 23.4641 18.6767C23.7693 18.5818 23.939 18.2564 23.8431 17.9515C23.7481 17.6462 23.4239 17.4766 23.119 17.5725C22.9255 17.6332 22.7361 17.7034 22.555 17.7779C22.5725 17.6219 22.581 17.4555 22.581 17.2782C22.581 16.5126 23.0592 15.564 23.869 15.0834C24.2739 14.843 24.7623 14.6946 25.3465 14.7314Z" fill="black"/>
</svg>
