<svg width="38" height="38" viewBox="0 0 38 38" fill="none" xmlns="http://www.w3.org/2000/svg">
<rect x="1.5" y="1.5" width="35" height="35" rx="17.5" fill="#E8EFF3" stroke="white" stroke-width="3"/>
<path d="M26.5105 23.1797C25.1513 20.9131 24.3335 19.9234 24.3335 17.4762C24.3321 16.1943 23.8694 14.9558 23.03 13.987C22.1906 13.0183 21.0306 12.3839 19.762 12.2V12.1429C19.762 11.9408 19.6818 11.747 19.5389 11.6041C19.396 11.4612 19.2022 11.381 19.0001 11.381C18.7981 11.381 18.6043 11.4612 18.4614 11.6041C18.3185 11.747 18.2382 11.9408 18.2382 12.1429V12.2032C16.9618 12.4449 15.8086 13.1216 14.9751 14.1181C14.1416 15.1145 13.6792 16.3691 13.6668 17.6682C13.6668 19.9234 12.7053 21.1531 11.4897 23.1797C11.4205 23.2953 11.3831 23.4272 11.3814 23.562C11.3797 23.6968 11.4139 23.8296 11.4803 23.9469C11.5467 24.0641 11.643 24.1617 11.7594 24.2296C11.8759 24.2975 12.0082 24.3333 12.143 24.3333H25.8573C25.9921 24.3333 26.1244 24.2975 26.2409 24.2296C26.3573 24.1617 26.4537 24.0641 26.5201 23.9468C26.5865 23.8295 26.6206 23.6967 26.6189 23.562C26.6173 23.4272 26.5799 23.2953 26.5105 23.1797Z" fill="black"/>
<path d="M20.5239 25.0952H17.4763C17.2742 25.0952 17.0804 25.1755 16.9375 25.3184C16.7946 25.4613 16.7144 25.6551 16.7144 25.8572C16.7144 26.0592 16.7946 26.253 16.9375 26.3959C17.0804 26.5388 17.2742 26.6191 17.4763 26.6191H20.5239C20.7259 26.6191 20.9197 26.5388 21.0626 26.3959C21.2055 26.253 21.2858 26.0592 21.2858 25.8572C21.2858 25.6551 21.2055 25.4613 21.0626 25.3184C20.9197 25.1755 20.7259 25.0952 20.5239 25.0952Z" fill="black"/>
</svg>
