<svg width="30" height="30" viewBox="0 0 30 30" fill="none" xmlns="http://www.w3.org/2000/svg">
<g clip-path="url(#clip0_358_89)">
<path d="M29.375 0.625H0.625V6.48561H29.375V0.625Z" fill="#BDC3C7"/>
<path d="M29.375 6.4856H0.625V29.375H29.375V6.4856Z" fill="#ED7161"/>
<path d="M30 30H0V0H30V30ZM1.25 28.75H28.75V1.25H1.25V28.75Z" fill="black"/>
<path d="M29.2286 7.1106H1.01904V5.8606H29.2286V7.1106Z" fill="black"/>
<path d="M4.58056 4.21876H3.33057V3.02063H4.58056V4.21876Z" fill="black"/>
<path d="M7.34278 4.21876H6.09277V3.02063H7.34278V4.21876Z" fill="black"/>
<path d="M10.1025 4.21876H8.85254V3.02063H10.1025V4.21876Z" fill="black"/>
<path d="M26.0446 4.245H13.4219V2.995H26.0446V4.245Z" fill="black"/>
<path d="M9.5927 16.7096C9.55547 16.5942 9.45811 16.5088 9.33787 16.4862L7.70701 16.1792L6.90441 14.7565C6.84612 14.6527 6.73473 14.5874 6.61448 14.5874C6.49394 14.5874 6.38286 14.6527 6.32427 14.7565L5.52165 16.1792L3.89109 16.4862C3.77055 16.5088 3.67351 16.5942 3.63596 16.7096C3.59843 16.8243 3.6265 16.9507 3.71074 17.0386L4.84446 18.222L4.63847 19.8322C4.62321 19.9512 4.67478 20.069 4.77306 20.1398C4.83043 20.1819 4.8994 20.2038 4.96959 20.2038C5.01628 20.2038 5.06418 20.1935 5.10875 20.1733L6.61448 19.4824L8.11992 20.1733C8.16447 20.1935 8.21238 20.2038 8.25908 20.2038C8.32926 20.2038 8.39733 20.1819 8.45562 20.1398C8.55388 20.069 8.60423 19.9512 8.59019 19.8322L8.38451 18.222L9.51793 17.0386C9.60094 16.9507 9.63023 16.8243 9.5927 16.7096Z" fill="#FFCA70"/>
<path d="M8.25926 20.8289C8.12436 20.8289 7.98704 20.799 7.86284 20.7428L6.61466 20.1703L5.36954 20.7416C5.04728 20.8862 4.6765 20.8441 4.40336 20.6439C4.12351 20.4419 3.97429 20.0995 4.01884 19.7528L4.18669 18.4387L3.25956 17.4707C3.01573 17.2168 2.9324 16.8506 3.04227 16.5155C3.15 16.1835 3.43138 15.9363 3.77623 15.8722L5.12021 15.6189L5.78 14.4495C5.94968 14.1492 6.26951 13.9624 6.61466 13.9624C6.96042 13.9624 7.28055 14.1492 7.44962 14.4501L8.10849 15.6189L9.45372 15.8722C9.79856 15.9369 10.0799 16.1841 10.1877 16.5173C10.2957 16.8475 10.2136 17.2125 9.97252 17.4677L9.04234 18.4387L9.21019 19.7528C9.25168 20.1038 9.10246 20.4443 8.82108 20.647C8.65659 20.766 8.46219 20.8289 8.25926 20.8289ZM6.61466 18.7946L7.90342 19.386L7.72703 18.0054L8.68955 17.0001L7.30589 16.7395L6.61436 15.5145L5.92314 16.7395L4.53947 17.0001L5.5026 18.0054L5.32591 19.386L6.61466 18.7946Z" fill="black"/>
<path d="M17.9784 16.7096C17.9409 16.5942 17.8426 16.5088 17.7233 16.4862L16.0915 16.1792L15.2901 14.7565C15.2315 14.6527 15.1204 14.5874 14.9999 14.5874C14.8793 14.5874 14.7682 14.6527 14.7084 14.7565L13.9073 16.1792L12.2753 16.4862C12.1559 16.5088 12.0577 16.5942 12.0204 16.7096C11.9841 16.8243 12.0122 16.9507 12.0964 17.0386L13.2298 18.222L13.0239 19.8322C13.0089 19.9512 13.0602 20.069 13.1575 20.1398C13.2158 20.1819 13.2848 20.2038 13.354 20.2038C13.402 20.2038 13.4499 20.1935 13.4944 20.1733L14.9999 19.4824L16.5044 20.1733C16.5499 20.1935 16.5978 20.2038 16.6448 20.2038C16.715 20.2038 16.7827 20.1819 16.8413 20.1398C16.9396 20.069 16.9899 19.9512 16.9747 19.8322L16.7699 18.222L17.9033 17.0386C17.9866 16.9507 18.0156 16.8243 17.9784 16.7096Z" fill="#FFCA70"/>
<path d="M16.6449 20.8289C16.5097 20.8289 16.3773 20.8008 16.2516 20.7446L15 20.1703L13.7552 20.7416C13.4354 20.8875 13.0689 20.8472 12.7918 20.6463C12.5086 20.4407 12.3606 20.0989 12.4039 19.754L12.5721 18.4387L11.6452 17.4707C11.4035 17.2186 11.319 16.8549 11.4246 16.521C11.5332 16.1847 11.8143 15.9375 12.1592 15.8722L13.5059 15.6189L14.1639 14.4501C14.3384 14.1473 14.6576 13.9624 15 13.9624C15.3452 13.9624 15.665 14.1492 15.8344 14.4489L16.4933 15.6189L17.8391 15.8722C18.1839 15.9375 18.4647 16.1841 18.5727 16.5161C18.6811 16.8494 18.5984 17.2144 18.357 17.4683L17.4277 18.4387L17.5949 19.7534C17.6392 20.0995 17.4906 20.4425 17.2068 20.647C17.0411 20.766 16.847 20.8289 16.6449 20.8289ZM12.9252 17.0001L13.888 18.0054L13.7113 19.386L15 18.7946L16.2882 19.386L16.1124 18.0054L17.0749 17.0001L15.69 16.7395L14.9994 15.5139L14.3091 16.7395L12.9252 17.0001Z" fill="black"/>
<path d="M26.3636 16.7096C26.3261 16.5942 26.2278 16.5088 26.1085 16.4862L24.4767 16.1792L23.6753 14.7565C23.6167 14.6527 23.5056 14.5874 23.3851 14.5874C23.2649 14.5874 23.1535 14.6527 23.094 14.7565L22.2926 16.1792L20.6605 16.4862C20.5415 16.5088 20.4432 16.5942 20.4057 16.7096C20.3694 16.8243 20.3974 16.9507 20.4817 17.0386L21.6151 18.222L21.4094 19.8322C21.3942 19.9512 21.4457 20.069 21.5428 20.1398C21.6011 20.1819 21.6703 20.2038 21.7393 20.2038C21.7872 20.2038 21.8351 20.1935 21.8797 20.1733L23.3851 19.4824L24.8896 20.1733C24.9354 20.1935 24.9833 20.2038 25.03 20.2038C25.1002 20.2038 25.168 20.1819 25.2266 20.1398C25.3248 20.069 25.3752 19.9512 25.3599 19.8322L25.1551 18.222L26.2889 17.0386C26.3719 16.9507 26.4012 16.8243 26.3636 16.7096Z" fill="#ECF0F1"/>
<path d="M25.0302 20.8289C24.8959 20.8289 24.7641 20.8008 24.638 20.7452L23.3853 20.1703L22.1405 20.7416C21.8231 20.8856 21.4514 20.8453 21.177 20.6464C20.8929 20.4395 20.7455 20.0977 20.7898 19.7528L20.9576 18.4387L20.0305 17.4707C19.7888 17.2186 19.7042 16.8549 19.8099 16.521C19.9197 16.1841 20.2002 15.9375 20.5441 15.8722L21.8912 15.6189L22.5497 14.4495C22.7228 14.1473 23.0423 13.9624 23.3853 13.9624C23.7305 13.9624 24.0503 14.1492 24.2197 14.4489L24.8785 15.6189L26.2243 15.8722C26.5692 15.9375 26.85 16.1841 26.958 16.5161C27.0666 16.8475 26.9842 17.2125 26.7434 17.4677L25.813 18.4393L25.9802 19.7534C26.0245 20.0995 25.8759 20.4425 25.592 20.647C25.4263 20.766 25.2322 20.8289 25.0302 20.8289ZM21.3104 17.0001L22.2729 18.0054L22.0966 19.386L23.3853 18.7946L24.6735 19.386L24.4977 18.0048L25.4602 17.0001L24.0753 16.7395L23.3847 15.5139L22.6944 16.7395L21.3104 17.0001Z" fill="black"/>
</g>
<defs>
<clipPath id="clip0_358_89">
<rect width="30" height="30" fill="white"/>
</clipPath>
</defs>
</svg>
