<svg width="30" height="30" viewBox="0 0 30 30" fill="none" xmlns="http://www.w3.org/2000/svg">
<path d="M15.0015 1.28905C7.43455 1.28905 1.28906 7.43127 1.28906 14.9983C1.28906 22.5653 7.43455 28.7107 15.0015 28.7107C22.5685 28.7107 28.7108 22.5653 28.7108 14.9983C28.7108 7.43127 22.5685 1.28905 15.0015 1.28905Z" fill="#ECECEC"/>
<path d="M7.14629 14.724L8.57631 23.5718C8.59617 23.6969 8.66868 23.8074 8.77547 23.8755C10.4941 24.9758 12.5403 25.6124 14.7306 25.6124C20.832 25.6124 25.7855 20.6589 25.7855 14.5575C25.7855 13.4341 25.6209 12.3479 25.3088 11.3253C25.2771 11.2218 25.2086 11.1335 25.1162 11.0772L20.0442 7.96905L17.5841 7.25078L12.0436 6.42481L11.2731 6.56352L8.71344 8.78522L6.41333 11.8672L7.14629 14.724Z" fill="#FED883"/>
<path d="M10.8976 6.32351C10.596 6.32685 10.2911 6.40258 9.98671 6.51614C9.37791 6.74334 8.76985 7.12899 8.32489 7.57396C7.9863 7.91254 7.68692 8.34602 7.4597 8.80155C7.42168 8.87674 7.40593 8.96124 7.4143 9.04509C7.42266 9.12893 7.4548 9.20861 7.50694 9.2748C7.55907 9.341 7.62902 9.39093 7.70857 9.41871C7.78812 9.4465 7.87395 9.45101 7.95596 9.43167C8.30313 9.35026 8.53623 9.35159 8.64158 9.37617C8.74695 9.40074 8.72511 9.39591 8.7428 9.4382C8.77813 9.52295 8.74271 9.99423 8.50772 10.5874C8.47659 10.6661 8.46865 10.7519 8.48484 10.835C8.50104 10.918 8.5407 10.9946 8.59912 11.0557C8.65753 11.1169 8.73224 11.1601 8.81442 11.1801C8.89659 11.2001 8.98277 11.1961 9.06275 11.1686C9.70598 10.9488 10.356 10.5446 10.8258 10.0749C11.2707 9.62988 11.6564 9.02183 11.8836 8.41303C11.9972 8.10863 12.0723 7.8037 12.0762 7.50213C12.0801 7.20055 12.0062 6.87378 11.7661 6.63367C11.526 6.39356 11.1992 6.3196 10.8976 6.32351Z" fill="#50B86B"/>
<path d="M8.47825 8.46525C7.51306 8.55033 6.54442 9.08579 5.90553 9.71243C5.32782 10.5177 4.80095 11.3223 4.65834 12.2852C4.6545 12.5867 4.7284 12.9135 4.96851 13.1536C5.08216 13.2674 5.21998 13.3471 5.36029 13.3952C5.52389 13.4509 5.70498 13.4069 5.82391 13.2809C6.09531 12.9963 6.49999 12.6287 6.94702 12.3667C7.39405 12.1048 7.86762 11.9572 8.30195 12.0272C8.45886 12.0523 8.61714 11.9911 8.71659 11.8672C9.28084 11.1237 9.58923 10.3785 9.65687 9.53281C9.64316 9.26779 9.55779 8.98644 9.34671 8.77536C9.10659 8.53525 8.77983 8.46134 8.47825 8.46525Z" fill="#50B86B"/>
<path d="M8.47811 8.46532C8.32592 8.46699 8.17371 8.48738 8.02115 8.52148C8.18149 8.56846 8.33453 8.64739 8.46256 8.77548C8.67365 8.98656 8.75896 9.26802 8.77267 9.53304C8.78638 9.79805 8.73641 10.0652 8.6552 10.3329C8.49279 10.8683 8.1908 11.4141 7.83197 11.8671C7.7831 11.928 7.71899 11.9748 7.64616 12.0029C7.57334 12.0309 7.4944 12.0393 7.41733 12.0269C6.983 11.9571 6.50986 12.1045 6.06284 12.3664C5.6552 12.6053 5.29536 12.9276 5.0271 13.1991C5.1288 13.2861 5.24234 13.3548 5.36054 13.3952C5.44066 13.4226 5.52696 13.4265 5.60919 13.4063C5.69142 13.386 5.76612 13.3426 5.82442 13.2812C6.09582 12.9966 6.50037 12.6284 6.9474 12.3664C7.39443 12.1045 7.86757 11.957 8.30189 12.0269C8.37896 12.0393 8.4579 12.031 8.53073 12.0029C8.60355 11.9748 8.66766 11.928 8.71653 11.8672C9.07537 11.4141 9.37734 10.8683 9.53975 10.333C9.62096 10.0653 9.67088 9.7981 9.65724 9.53309C9.64353 9.26807 9.55821 8.98656 9.34712 8.77548C9.10702 8.53537 8.77968 8.46141 8.47811 8.46532Z" fill="#349951"/>
<path d="M8.03767 11.1163C7.06985 11.1992 6.1047 11.739 5.46494 12.3668C4.74223 13.1525 4.35184 13.9791 4.2145 14.9395C4.21065 15.2411 4.28455 15.5678 4.52466 15.808C4.76477 16.0481 5.09154 16.122 5.39312 16.1181C6.36093 16.0352 7.3261 15.4955 7.96584 14.8677C8.68855 14.0819 9.07894 13.2553 9.21629 12.295C9.22013 11.9934 9.14623 11.6699 8.90612 11.4298C8.66601 11.1896 8.33924 11.1124 8.03767 11.1163Z" fill="#50B86B"/>
<path d="M16.2063 9.9995C15.9108 9.7546 15.6596 9.39253 15.1648 9.1441C14.5342 8.82746 13.9427 8.73832 13.4311 8.88617C12.9196 9.03411 12.5346 9.41104 12.295 9.86589C12.0223 10.3835 12.0633 10.9747 12.2689 11.4722C12.4744 11.9697 12.8425 12.4021 13.3234 12.6574C13.9275 12.978 14.5318 13.059 15.1158 13.023C15.3346 13.4523 15.6006 13.8673 16.0398 14.1004C17.0016 14.6109 18.2091 14.2352 18.717 13.2712C18.9831 12.766 19.0004 12.1717 18.8345 11.6452C18.6687 11.1188 18.2777 10.6211 17.638 10.4877C16.8372 10.4411 16.5018 10.2444 16.2063 9.9995Z" fill="#ECECEC"/>
<path d="M17.5383 10.5188C17.4699 10.5215 17.403 10.5399 17.343 10.5728C17.2829 10.6057 17.2313 10.652 17.1922 10.7082C16.5848 11.5671 15.9222 12.0504 15.2431 12.1676C15.1858 12.1776 15.1311 12.1989 15.0821 12.2301C15.033 12.2613 14.9906 12.3019 14.9573 12.3495C14.9239 12.3971 14.9003 12.4507 14.8877 12.5075C14.8751 12.5642 14.8738 12.6229 14.8839 12.6802C14.9043 12.7951 14.9692 12.8974 15.0646 12.9647C15.16 13.032 15.2782 13.0588 15.3933 13.0393C16.378 12.8694 17.2217 12.196 17.9137 11.2175C17.9474 11.1701 17.9715 11.1166 17.9844 11.0599C17.9974 11.0033 17.9991 10.9446 17.9894 10.8873C17.9797 10.83 17.9588 10.7752 17.9279 10.7259C17.897 10.6767 17.8567 10.6341 17.8093 10.6005C17.7303 10.5443 17.6351 10.5156 17.5383 10.5188Z" fill="#ECECEC"/>
<path d="M13.8294 8.81952C13.7147 8.82621 13.6034 8.84444 13.4951 8.87135C13.7482 8.92267 14.0096 9.00842 14.2803 9.14433C14.7751 9.39274 15.0257 9.75458 15.3213 9.99947C15.6168 10.2444 15.9525 10.4407 16.7189 10.4824C16.7419 10.4839 16.7647 10.4873 16.7872 10.4924C17.3927 10.6208 17.7841 11.1184 17.9499 11.6448C18.1157 12.1712 18.0986 12.7654 17.8324 13.2705C17.5527 13.8014 17.0587 14.1457 16.5125 14.2699C17.3673 14.4693 18.2896 14.0817 18.717 13.2705C18.9831 12.7654 19.0003 12.1712 18.8345 11.6448C18.6686 11.1184 18.2773 10.6207 17.6717 10.4924C17.6493 10.4873 17.6265 10.4839 17.6035 10.4824C16.8371 10.4407 16.5014 10.2444 16.2058 9.99947C15.9103 9.75458 15.6597 9.39274 15.1649 9.14433C14.692 8.90684 14.2411 8.79705 13.8294 8.81952Z" fill="#CCCCCC"/>
<path d="M16.34 5.49426C15.8953 5.26876 15.5005 4.90565 14.861 4.74007C14.0211 4.52259 13.2995 4.57384 12.7421 4.88041C12.1848 5.18704 11.8331 5.72992 11.668 6.33655C11.4845 7.01076 11.68 7.69332 12.05 8.23344C12.4199 8.77356 12.9709 9.19758 13.6008 9.37615C14.4251 9.60989 15.181 9.55536 15.8764 9.34676C16.2318 9.83805 16.6924 10.2506 17.3162 10.4274C18.576 10.7846 19.8922 10.0276 20.2383 8.75582C20.4139 8.11074 20.2912 7.41035 19.9738 6.82954C19.6565 6.24876 19.1045 5.75959 18.3365 5.71464C17.2916 5.87645 16.7848 5.71961 16.34 5.49426Z" fill="#F01C19"/>
<path d="M18.25 5.76521C18.17 5.77214 18.0934 5.80074 18.0284 5.8479C17.9634 5.89507 17.9125 5.95902 17.8811 6.03293C17.3599 7.27011 16.6538 8.13329 15.8405 8.47179C15.7323 8.51688 15.6465 8.60305 15.6018 8.7114C15.5571 8.81976 15.5572 8.94143 15.6022 9.04968C15.6245 9.10364 15.6573 9.15266 15.6986 9.19389C15.74 9.23513 15.7891 9.26779 15.8431 9.28995C15.8971 9.31211 15.955 9.32334 16.0134 9.32301C16.0718 9.32268 16.1295 9.31078 16.1833 9.28801C17.3095 8.81927 18.1235 7.74099 18.6973 6.37901C18.7201 6.32543 18.7322 6.26789 18.7327 6.20964C18.7333 6.1514 18.7223 6.09361 18.7005 6.03961C18.6786 5.98561 18.6463 5.93642 18.6055 5.89494C18.5646 5.85345 18.5159 5.82048 18.4622 5.79786C18.3952 5.76973 18.3223 5.75848 18.25 5.76521Z" fill="#F01C19"/>
<path d="M13.9687 4.6083C13.5032 4.59659 13.0904 4.6887 12.7421 4.8804C12.3762 5.08167 12.1008 5.38554 11.9067 5.74162C12.4573 5.45783 13.1604 5.41286 13.9765 5.62413C14.6159 5.78962 15.0106 6.15363 15.4554 6.37913C15.9001 6.60448 16.4073 6.76124 17.4016 6.60109C17.435 6.59612 17.4689 6.59503 17.5026 6.59778C18.2201 6.64442 18.7721 7.13307 19.0895 7.71386C19.4068 8.29466 19.5294 8.99511 19.3538 9.64018C19.2988 9.84228 19.217 10.0297 19.1171 10.2034C19.648 9.90001 20.0651 9.39246 20.2384 8.75561C20.414 8.11053 20.2914 7.41008 19.9741 6.82928C19.6567 6.24849 19.1046 5.75982 18.3872 5.7132C18.3535 5.71045 18.3196 5.71159 18.2861 5.71657C17.2918 5.87671 16.7847 5.71989 16.3399 5.49456C15.8951 5.26906 15.5005 4.90599 14.861 4.74042C14.5461 4.65885 14.248 4.61498 13.9687 4.6083Z" fill="#C00F0C"/>
<path d="M20.7707 6.98627C19.9924 6.95936 19.4255 7.64067 19.4255 8.37058V15.4358C19.4255 16.1661 19.9939 16.8626 20.7837 16.8103C23.3196 16.6426 25.3448 14.3244 25.3448 11.9032C25.3448 9.49234 23.5885 7.08398 20.7707 6.98627Z" fill="#F4504C"/>
<path d="M8.03747 11.1164C7.88443 11.1181 7.73045 11.139 7.57619 11.1734C7.73779 11.2211 7.89213 11.301 8.02107 11.43C8.26117 11.6701 8.33503 11.9931 8.33118 12.2947C8.32734 12.5963 8.25214 12.9016 8.13854 13.206C7.91134 13.8148 7.52618 14.4231 7.08122 14.868C6.63625 15.313 6.028 15.6982 5.4192 15.9254C5.26813 15.9817 5.1174 16.0284 4.96655 16.062C5.10668 16.1029 5.25278 16.12 5.39328 16.1181C5.69486 16.1148 5.99936 16.039 6.30376 15.9255C6.91256 15.6983 7.52081 15.3131 7.96578 14.8681C8.41074 14.4232 8.79591 13.8149 9.02311 13.2061C9.13671 12.9017 9.21184 12.5964 9.21575 12.2948C9.21959 11.9932 9.14573 11.6702 8.90562 11.4301C8.66551 11.19 8.33905 11.1125 8.03747 11.1164Z" fill="#349951"/>
<path d="M11.828 12.3113C8.41352 12.3113 5.63452 15.087 5.63452 18.5015C5.63452 21.916 8.41352 24.695 11.828 24.695C15.2425 24.695 18.0182 21.916 18.0182 18.5015C18.0182 15.087 15.2425 12.3113 11.828 12.3113Z" fill="#F9F9F9"/>
<path d="M12.7128 16.2912C11.0082 16.2912 9.61768 17.6817 9.61768 19.3863C9.61768 21.0909 11.0082 22.4814 12.7128 22.4814C14.4174 22.4814 15.8079 21.0909 15.8079 19.3863C15.8079 17.6817 14.4174 16.2912 12.7128 16.2912Z" fill="#FED883"/>
<path d="M19.3405 17.571C19.2278 17.5736 19.1204 17.6192 19.0401 17.6984C18.9989 17.7395 18.9661 17.7883 18.9438 17.8421C18.9214 17.8959 18.9099 17.9536 18.9099 18.0118C18.9099 18.0701 18.9214 18.1278 18.9438 18.1816C18.9661 18.2353 18.9989 18.2842 19.0401 18.3253L19.667 18.9488C19.7499 19.0312 19.862 19.0775 19.9788 19.0775C20.0956 19.0775 20.2077 19.0312 20.2906 18.9488C20.3729 18.866 20.4192 18.7539 20.4192 18.6371C20.4192 18.5202 20.3729 18.4081 20.2906 18.3253L19.667 17.6984C19.6241 17.656 19.573 17.6229 19.5169 17.601C19.4608 17.5791 19.4007 17.5689 19.3405 17.571Z" fill="#FCA311"/>
<path d="M23.3857 16.7875C23.273 16.7901 23.1655 16.8357 23.0853 16.9149L22.4584 17.5417C22.3761 17.6246 22.3298 17.7367 22.3298 17.8535C22.3298 17.9703 22.3761 18.0824 22.4584 18.1653C22.4995 18.2066 22.5484 18.2393 22.6022 18.2617C22.6559 18.284 22.7136 18.2955 22.7719 18.2955C22.8301 18.2955 22.8878 18.284 22.9416 18.2617C22.9954 18.2393 23.0442 18.2066 23.0853 18.1653L23.7121 17.5417C23.7534 17.5006 23.7862 17.4518 23.8085 17.398C23.8309 17.3442 23.8424 17.2865 23.8424 17.2283C23.8424 17.17 23.8309 17.1123 23.8085 17.0586C23.7862 17.0048 23.7534 16.9559 23.7121 16.9149C23.6693 16.8725 23.6182 16.8394 23.562 16.8175C23.5059 16.7956 23.4459 16.7853 23.3857 16.7875Z" fill="#FCA311"/>
<path d="M18.4329 21.8447C18.3198 21.8482 18.2123 21.8949 18.1326 21.9752L17.5057 22.5988C17.4644 22.6399 17.4317 22.6888 17.4093 22.7426C17.387 22.7964 17.3755 22.854 17.3755 22.9123C17.3755 22.9705 17.387 23.0282 17.4093 23.082C17.4317 23.1358 17.4644 23.1846 17.5057 23.2257C17.5468 23.267 17.5956 23.2997 17.6494 23.3221C17.7032 23.3444 17.7609 23.3559 17.8191 23.3559C17.8774 23.3559 17.9351 23.3444 17.9888 23.3221C18.0426 23.2997 18.0915 23.267 18.1326 23.2257L18.7594 22.5988C18.8418 22.516 18.888 22.4039 18.888 22.287C18.888 22.1702 18.8418 22.0581 18.7594 21.9752C18.7168 21.9323 18.6659 21.8986 18.6097 21.8761C18.5536 21.8537 18.4934 21.843 18.4329 21.8447Z" fill="#50B86B"/>
<path d="M21.4531 18.7496C21.3947 18.7494 21.3368 18.7607 21.2829 18.7829C21.2289 18.8051 21.1799 18.8378 21.1386 18.8791C21.0973 18.9204 21.0646 18.9695 21.0424 19.0234C21.0201 19.0774 21.0088 19.1352 21.009 19.1936V20.0784C21.0092 20.1365 21.0209 20.194 21.0433 20.2476C21.0657 20.3012 21.0985 20.3498 21.1397 20.3907C21.181 20.4317 21.2299 20.4641 21.2836 20.4861C21.3374 20.5082 21.395 20.5194 21.4531 20.5192C21.5698 20.5187 21.6817 20.4722 21.7643 20.3896C21.8469 20.3071 21.8934 20.1952 21.8938 20.0784V19.1936C21.894 19.1355 21.8828 19.078 21.8608 19.0242C21.8388 18.9704 21.8064 18.9215 21.7654 18.8803C21.7245 18.839 21.6758 18.8063 21.6222 18.7839C21.5686 18.7614 21.5112 18.7498 21.4531 18.7496Z" fill="#50B86B"/>
<path d="M18.8901 19.9347C18.832 19.9345 18.7744 19.9457 18.7206 19.9677C18.6669 19.9898 18.618 20.0222 18.5767 20.0631C18.5355 20.1041 18.5027 20.1527 18.4803 20.2063C18.4579 20.2599 18.4462 20.3174 18.446 20.3755C18.4458 20.4339 18.4572 20.4917 18.4794 20.5457C18.5016 20.5997 18.5343 20.6487 18.5756 20.69C18.6169 20.7313 18.6659 20.7639 18.7199 20.7862C18.7739 20.8084 18.8317 20.8197 18.8901 20.8195H19.7749C19.833 20.8193 19.8904 20.8077 19.944 20.7852C19.9976 20.7628 20.0463 20.7301 20.0872 20.6888C20.1282 20.6476 20.1606 20.5987 20.1826 20.5449C20.2046 20.4912 20.2158 20.4336 20.2156 20.3755C20.2152 20.2587 20.1686 20.1468 20.0861 20.0643C20.0035 19.9817 19.8916 19.9351 19.7749 19.9347H18.8901Z" fill="#FCA311"/>
<path d="M21.7762 9.31415C21.6642 9.31845 21.558 9.36511 21.4791 9.4447L21.1656 9.75486C21.1243 9.79596 21.0916 9.84478 21.0692 9.89857C21.0469 9.95235 21.0354 10.01 21.0354 10.0683C21.0354 10.1265 21.0469 10.1842 21.0692 10.238C21.0916 10.2918 21.1243 10.3406 21.1656 10.3817C21.2067 10.423 21.2556 10.4557 21.3093 10.4781C21.3631 10.5004 21.4208 10.512 21.4791 10.512C21.5373 10.512 21.595 10.5004 21.6488 10.4781C21.7025 10.4557 21.7514 10.423 21.7925 10.3817L22.1059 10.0683C22.1883 9.98542 22.2345 9.87333 22.2345 9.75649C22.2345 9.63966 22.1883 9.52756 22.1059 9.4447C22.0629 9.40136 22.0114 9.36738 21.9547 9.34491C21.8979 9.32245 21.8372 9.31198 21.7762 9.31415Z" fill="#F9A19F"/>
<path d="M21.4661 13.294C21.3529 13.2975 21.2454 13.3442 21.1657 13.4245C21.0833 13.5074 21.0371 13.6195 21.0371 13.7363C21.0371 13.8532 21.0833 13.9652 21.1657 14.0481L21.4791 14.3615C21.5202 14.4028 21.5691 14.4356 21.6228 14.4579C21.6766 14.4803 21.7343 14.4918 21.7926 14.4918C21.8508 14.4918 21.9085 14.4803 21.9623 14.4579C22.016 14.4356 22.0649 14.4028 22.106 14.3615C22.1884 14.2787 22.2346 14.1666 22.2346 14.0497C22.2346 13.9329 22.1884 13.8208 22.106 13.738L21.7926 13.4245C21.75 13.3816 21.699 13.3479 21.6428 13.3254C21.5867 13.3029 21.5265 13.2923 21.4661 13.294Z" fill="#F9A19F"/>
<path d="M21.8578 11.4591C21.7995 11.4589 21.7416 11.4702 21.6877 11.4924C21.6337 11.5147 21.5846 11.5474 21.5434 11.5887C21.5021 11.6299 21.4694 11.679 21.4472 11.733C21.4249 11.7869 21.4136 11.8448 21.4138 11.9032C21.414 11.9613 21.4257 12.0187 21.4481 12.0723C21.4705 12.1259 21.5033 12.1746 21.5445 12.2155C21.5858 12.2564 21.6346 12.2889 21.6884 12.3109C21.7422 12.3329 21.7997 12.3441 21.8578 12.3439H22.2986C22.3567 12.3441 22.4143 12.3329 22.468 12.3109C22.5218 12.2889 22.5707 12.2564 22.6119 12.2155C22.6532 12.1746 22.6859 12.1259 22.7084 12.0723C22.7308 12.0187 22.7424 11.9613 22.7426 11.9032C22.7429 11.8448 22.7315 11.7869 22.7093 11.733C22.6871 11.679 22.6544 11.6299 22.6131 11.5887C22.5718 11.5474 22.5228 11.5147 22.4688 11.4924C22.4148 11.4702 22.357 11.4589 22.2986 11.4591H21.8578Z" fill="#F9A19F"/>
<path d="M12.7126 16.2908C12.5619 16.2908 12.4153 16.3059 12.2703 16.3262C13.7664 16.5423 14.9231 17.8317 14.9231 19.3859C14.9231 20.9402 13.7663 22.2296 12.2703 22.4456C12.4153 22.4665 12.5619 22.4811 12.7126 22.4811C14.4172 22.4811 15.8077 21.0906 15.8077 19.3859C15.8077 17.6813 14.4172 16.2908 12.7126 16.2908Z" fill="#FEC872"/>
<path d="M11.828 12.3111C11.6788 12.3111 11.5324 12.3228 11.3857 12.3335C14.5936 12.5616 17.1337 15.236 17.1337 18.5013C17.1337 21.7665 14.5936 24.444 11.3857 24.6724C11.5324 24.6825 11.6788 24.6948 11.828 24.6948C15.2425 24.6948 18.0182 21.9156 18.0182 18.5012C18.0182 15.0867 15.2425 12.3111 11.828 12.3111Z" fill="#ECECEC"/>
<path d="M10.8976 6.32387C10.7451 6.32554 10.5918 6.34576 10.438 6.38003C10.599 6.42684 10.7527 6.50555 10.8812 6.63398C11.1213 6.87409 11.1952 7.20055 11.1913 7.50213C11.1875 7.80371 11.1123 8.10822 10.9987 8.41262C10.7715 9.02143 10.3863 9.62963 9.94134 10.0746C9.56515 10.4508 9.07224 10.78 8.56095 11.011C8.61678 11.0875 8.69566 11.144 8.786 11.1723C8.87634 11.2005 8.97338 11.1991 9.06284 11.1681C9.70607 10.9483 10.3561 10.5443 10.8259 10.0745C11.2709 9.62958 11.656 9.02132 11.8832 8.41252C11.9968 8.10812 12.072 7.8036 12.0759 7.50203C12.0797 7.20045 12.0059 6.87399 11.7658 6.63388C11.5256 6.39377 11.1992 6.31996 10.8976 6.32387ZM7.60986 9.36882C7.68326 9.41773 7.7696 9.44358 7.85779 9.44305C7.85746 9.44215 7.85813 9.43805 7.85779 9.43805C7.8401 9.39576 7.86213 9.40044 7.75672 9.37586C7.72604 9.36918 7.66185 9.3705 7.60986 9.36882Z" fill="#349951"/>
<path d="M20.7703 6.98644C20.643 6.98142 20.5246 7.00319 20.4101 7.03311C22.9196 7.39111 24.4598 9.64589 24.4598 11.9034C24.4598 14.1767 22.6744 16.3576 20.3574 16.7547C20.4907 16.7951 20.6311 16.82 20.7833 16.81C23.3192 16.6423 25.3443 14.3247 25.3443 11.9034C25.3443 9.4926 23.5882 7.08414 20.7703 6.98644Z" fill="#F01C19"/>
<path d="M15.0018 1.28943C12.4506 1.28943 10.0622 1.98896 8.01514 3.20454C9.62413 2.54119 11.3856 2.17401 13.2327 2.17401C20.7997 2.17401 26.9417 8.31603 26.9417 15.883C26.9417 20.8994 24.2411 25.2888 20.2168 27.6795C25.1993 25.6248 28.7108 20.719 28.7108 14.9984C28.7108 7.43146 22.5688 1.28943 15.0018 1.28943Z" fill="#CCCCCC"/>
<path d="M15.0018 1.28943C7.43478 1.28943 1.28931 7.43146 1.28931 14.9984C1.28931 22.5654 7.43478 28.7109 15.0018 28.7109C22.5688 28.7109 28.7108 22.5654 28.7108 14.9984C28.7108 7.43146 22.5688 1.28943 15.0018 1.28943ZM15.0018 2.17401C22.0907 2.17401 27.8262 7.90951 27.8262 14.9984C27.8262 22.0874 22.0907 27.8264 15.0018 27.8264C7.91284 27.8264 2.17387 22.0874 2.17387 14.9984C2.17387 7.90951 7.91284 2.17401 15.0018 2.17401ZM10.8977 6.32382C10.5961 6.32717 10.2908 6.40288 9.98637 6.51645C9.37755 6.74366 8.77018 7.12884 8.32522 7.57381C8.01792 7.88111 7.7451 8.26775 7.52703 8.67693C6.93294 8.90591 6.33982 9.27848 5.90563 9.71266C5.46066 10.1576 5.07808 10.765 4.85089 11.3738C4.73728 11.6782 4.66215 11.9836 4.65825 12.2851C4.65473 12.5536 4.72046 12.8383 4.90271 13.0678C4.70234 13.3714 4.52997 13.6985 4.40687 14.0284C4.29327 14.3328 4.21814 14.6381 4.21423 14.9397C4.21022 15.2413 4.28424 15.5677 4.52435 15.8078C4.76446 16.0479 5.0918 16.1219 5.39337 16.118C5.6561 16.1147 5.92111 16.0506 6.18637 15.9608C5.83504 16.737 5.63437 17.5953 5.63437 18.5014C5.63437 20.8837 6.98946 22.9537 8.96705 23.9893C10.6459 25.0169 12.6199 25.6124 14.7305 25.6124C20.8319 25.6124 25.7858 20.6593 25.7858 14.5579C25.7858 13.4346 25.6211 12.3481 25.309 11.3255L25.3072 11.3264C25.0527 9.12237 23.3627 7.07639 20.7703 6.98649C20.5296 6.97813 20.3131 7.04283 20.1233 7.15065C20.0752 7.02913 20.0213 6.91027 19.9575 6.79733C19.6366 6.22962 19.0796 5.75923 18.3145 5.7413C17.2838 5.90261 16.7859 5.74208 16.3432 5.51021C15.9004 5.27834 15.5037 4.90352 14.8609 4.73709C14.5459 4.65552 14.2478 4.61187 13.9686 4.60568C13.5031 4.59565 13.0903 4.68877 12.7419 4.88039C12.1846 5.18702 11.8333 5.73018 11.6487 6.43228C11.4092 6.37578 11.1462 6.32065 10.8977 6.32382ZM13.7639 5.49454C14.0054 5.47783 14.2936 5.50627 14.639 5.5957C15.0288 5.69667 15.37 6.00017 15.9321 6.29454C16.3007 6.48755 16.9579 6.47275 17.5484 6.5062C17.1631 7.23348 16.7634 7.93457 16.2457 8.26321C15.5827 8.68409 14.8188 8.80085 13.8425 8.5241C13.446 8.4116 13.0384 8.1085 12.7817 7.73369C12.525 7.35888 12.4227 6.93865 12.5234 6.56838C12.6426 6.13054 12.8538 5.83166 13.1696 5.65789C13.3275 5.57097 13.5224 5.51076 13.7639 5.49454ZM18.591 6.67107C18.8207 6.75616 19.0277 6.94893 19.187 7.23085C19.4061 7.61831 19.4876 8.13691 19.3831 8.52058C19.1607 9.33776 18.351 9.80358 17.5579 9.57875C17.1016 9.44937 16.7733 9.28102 16.6431 9.04923C17.5095 8.5051 18.1235 7.69512 18.591 6.67107ZM11.0541 8.10247C10.8769 8.57714 10.5346 9.11863 10.2023 9.45091C10.0499 9.60336 9.84947 9.75584 9.63566 9.8958C9.65269 9.77461 9.66344 9.65347 9.65724 9.53299C9.64353 9.26798 9.55821 8.98646 9.34713 8.77539C9.16704 8.59531 8.93827 8.50864 8.70789 8.47823C8.78856 8.37576 8.86999 8.27901 8.95149 8.19751C9.28376 7.86522 9.8218 7.52287 10.2965 7.34573C10.5338 7.25713 10.8634 7.10442 11.1571 7.24447C11.2952 7.53984 11.1427 7.86513 11.0541 8.10247ZM20.7376 7.87097C23.0687 7.95171 24.4599 9.91439 24.4599 11.9033C24.4599 13.8145 22.7387 15.7956 20.7247 15.9288C20.5351 15.9422 20.3074 15.6889 20.3074 15.4355V8.37024C20.3074 8.11644 20.534 7.86391 20.7376 7.87097ZM12.9873 9.09846C12.6944 9.28819 12.4589 9.55518 12.2954 9.86555C12.0227 10.3832 12.063 10.9748 12.2686 11.4723C12.4204 11.8395 12.662 12.1704 12.9709 12.4216C12.6 12.3521 12.2189 12.3111 11.828 12.3111C10.8482 12.3111 9.92458 12.5463 9.10007 12.953C9.16496 12.7329 9.21299 12.5128 9.21582 12.2947C9.21933 12.0261 9.15381 11.7436 8.97136 11.5147C9.05852 11.3826 9.13965 11.2458 9.21409 11.1061C9.8066 10.8775 10.3932 10.5075 10.826 10.0747C11.271 9.62969 11.6561 9.02147 11.9667 8.32325C12.2926 8.58797 12.6179 8.88157 12.9873 9.09846ZM21.776 9.3144C21.664 9.31941 21.5577 9.36522 21.4788 9.44479L21.1661 9.7549C20.9923 9.92781 20.9923 10.2092 21.1661 10.3821C21.3389 10.5553 21.6196 10.5553 21.7924 10.3821L22.1059 10.0685C22.2775 9.89597 22.2775 9.6173 22.1059 9.44479C22.019 9.3572 21.8993 9.30989 21.776 9.3144ZM8.69407 10.0746C8.59312 10.4074 8.39343 10.7921 8.16196 11.1242C8.12034 11.1208 8.07854 11.1158 8.03755 11.1158C7.73598 11.1191 7.43148 11.1949 7.12707 11.3084C6.55101 11.5234 5.97999 11.8819 5.54281 12.2967C5.54498 12.1434 5.59174 11.9212 5.68016 11.6842C5.8573 11.2095 6.20047 10.6706 6.53276 10.3383C6.86505 10.0061 7.40308 9.66029 7.87775 9.48315C8.11509 9.39456 8.33777 9.29825 8.63145 9.41076C8.77802 9.64441 8.7544 9.87572 8.69407 10.0746ZM13.8823 9.70399C14.109 9.69062 14.3985 9.74832 14.7694 9.93468C15.0336 10.0674 15.2434 10.3517 15.6419 10.6819C15.8723 10.8728 16.3621 10.9477 16.7484 11.0775C16.3674 11.4922 15.9846 11.9359 15.5831 12.0795C15.0197 12.2811 14.4347 12.2472 13.738 11.8774C13.4686 11.7345 13.2136 11.4441 13.0849 11.1328C12.9563 10.8214 12.9514 10.5156 13.0754 10.2802C13.2325 9.98204 13.4269 9.81051 13.6758 9.73858C13.738 9.72052 13.8067 9.7085 13.8823 9.70399ZM19.4255 9.98651V15.4355C19.4255 16.1659 19.9936 16.8622 20.7834 16.8099C22.5943 16.6902 24.1403 15.4722 24.8788 13.9048C24.8927 14.1209 24.9039 14.3383 24.9039 14.5579C24.9039 20.1812 20.3539 24.7278 14.7305 24.7278C14.1443 24.7278 13.572 24.6731 13.0132 24.5784C15.8619 24.0233 18.0183 21.5103 18.0183 18.5013C18.0183 16.8255 17.3467 15.3062 16.2621 14.1907C17.1809 14.5414 18.2473 14.1625 18.7171 13.2708C18.9832 12.7656 19.0004 12.1715 18.8346 11.6451C18.6757 11.1406 18.3075 10.6662 17.722 10.5065C18.331 10.5677 18.9468 10.3708 19.4255 9.98651ZM21.858 11.4593C21.6124 11.4583 21.413 11.6577 21.414 11.9033C21.4149 12.1476 21.6137 12.3449 21.858 12.3439H22.2986C22.5428 12.3449 22.7416 12.1476 22.7426 11.9033C22.7435 11.6577 22.5442 11.4584 22.2986 11.4593H21.858ZM17.7125 11.4744C17.8303 11.5707 17.9267 11.7156 17.9889 11.9132C18.087 12.2244 18.0642 12.6121 17.9336 12.86C17.6481 13.4019 16.9934 13.6028 16.4547 13.3169C16.1978 13.1805 16.0112 13.0424 15.8846 12.9118C16.5789 12.6629 17.1826 12.1518 17.7125 11.4744ZM5.23615 14.3388C5.41329 13.8642 5.75647 13.3262 6.08877 12.9939C6.42105 12.6616 6.96252 12.3158 7.4372 12.1387C7.67453 12.0501 7.94676 11.8973 8.24217 12.0374C8.3825 12.3328 8.28245 12.6588 8.19391 12.8962C8.01677 13.3708 7.67445 13.9123 7.34217 14.2446C7.00988 14.5769 6.46841 14.9193 5.99374 15.0964C5.75641 15.185 5.5098 15.2847 5.2144 15.1463C5.07406 14.8527 5.14757 14.5762 5.23615 14.3388ZM11.8281 13.196C14.7645 13.196 17.1372 15.5652 17.1372 18.5017C17.1372 21.4381 14.7645 23.8108 11.8281 23.8108C10.9575 23.8108 10.1388 23.5976 9.41451 23.2277C9.36094 23.1947 9.30502 23.1656 9.25211 23.1317L9.24609 23.1418C7.61881 22.2358 6.51984 20.5003 6.51984 18.5021C6.51984 17.0981 7.0659 15.8277 8.01298 14.8144C9.03314 13.7894 10.3599 13.196 11.8281 13.196ZM21.4658 13.2944C21.3529 13.2978 21.2457 13.3448 21.1661 13.4248C20.9946 13.5974 20.9946 13.876 21.1661 14.0485L21.4788 14.3621C21.6517 14.5359 21.933 14.5359 22.1059 14.3621C22.2775 14.1896 22.2775 13.9109 22.1059 13.7384L21.7924 13.4248C21.7062 13.3381 21.588 13.2909 21.4658 13.2944ZM12.7126 16.2911C11.008 16.2911 9.61751 17.6816 9.61751 19.3862C9.61751 21.0908 11.008 22.4813 12.7126 22.4813C14.4172 22.4813 15.8077 21.0908 15.8077 19.3862C15.8077 17.6816 14.4172 16.2911 12.7126 16.2911ZM23.3861 16.7878C23.2734 16.7895 23.1659 16.8356 23.0855 16.9148L22.4584 17.542C22.2868 17.7145 22.2868 17.9932 22.4584 18.1657C22.6313 18.3395 22.9126 18.3395 23.0855 18.1657L23.7127 17.542C23.8865 17.3691 23.8865 17.0877 23.7127 16.9148C23.6259 16.8294 23.5078 16.7835 23.3861 16.7878ZM12.7126 17.1765C13.9392 17.1765 14.9232 18.1596 14.9232 19.3862C14.9232 20.6128 13.9392 21.5967 12.7126 21.5967C11.4861 21.5967 10.5029 20.6128 10.5029 19.3862C10.5029 18.1596 11.4861 17.1765 12.7126 17.1765ZM19.3408 17.5713C19.2281 17.5729 19.1205 17.6192 19.0402 17.6983C18.8664 17.8712 18.8664 18.1525 19.0402 18.3255L19.6673 18.9492C19.8399 19.1207 20.1185 19.1207 20.291 18.9492C20.4625 18.7766 20.4625 18.498 20.291 18.3255L19.6673 17.6983C19.5806 17.6129 19.4625 17.5669 19.3408 17.5713ZM21.4529 18.7495C21.2073 18.7486 21.0079 18.9479 21.0089 19.1936V20.079C21.0098 20.3233 21.2086 20.5205 21.4529 20.5196C21.6958 20.5186 21.8925 20.3219 21.8934 20.079V19.1936C21.8943 18.9493 21.6971 18.7505 21.4529 18.7495ZM18.8899 19.9347C18.6453 19.9338 18.4464 20.1316 18.4459 20.3762C18.445 20.6218 18.6443 20.8211 18.8899 20.8201H19.7744C20.019 20.8196 20.2168 20.6208 20.2159 20.3762C20.2154 20.1326 20.018 19.9352 19.7744 19.9347H18.8899ZM18.4329 21.8446C18.3196 21.848 18.212 21.8953 18.1323 21.9759L17.506 22.5996C17.3328 22.7724 17.3328 23.053 17.506 23.2258C17.6788 23.3991 17.9595 23.3991 18.1323 23.2258L18.7594 22.5996C18.931 22.4271 18.931 22.1484 18.7594 21.9759C18.6735 21.8888 18.5552 21.8413 18.4329 21.8446Z" fill="black"/>
</svg>
