<svg width="30" height="30" viewBox="0 0 30 30" fill="none" xmlns="http://www.w3.org/2000/svg">
<g clip-path="url(#clip0_412_14)">
<mask id="mask0_412_14" style="mask-type:luminance" maskUnits="userSpaceOnUse" x="0" y="0" width="30" height="30">
<path d="M30 0H0V30H30V0Z" fill="white"/>
</mask>
<g mask="url(#mask0_412_14)">
<path fill-rule="evenodd" clip-rule="evenodd" d="M18.566 14.9998L29.2621 4.30371C30.2467 3.31912 30.2467 1.72279 29.2621 0.738339C28.2775 -0.246251 26.6813 -0.246251 25.6967 0.738339L15.0005 11.4346L4.3042 0.738199C3.31961 -0.246392 1.72342 -0.246392 0.738825 0.738199C-0.245624 1.72279 -0.245624 3.31912 0.738825 4.30357L11.4351 14.9997L0.738825 25.696C-0.245624 26.6806 -0.245624 28.2769 0.738825 29.2613C1.72342 30.2459 3.31961 30.2459 4.3042 29.2613L15.0005 18.5651L25.6967 29.2613C26.6812 30.2459 28.2775 30.2459 29.2621 29.2613C30.2467 28.2767 30.2467 26.6806 29.2621 25.696L18.566 14.9998Z" fill="white"/>
</g>
</g>
<defs>
<clipPath id="clip0_412_14">
<rect width="30" height="30" fill="white"/>
</clipPath>
</defs>
</svg>
