<svg width="12" height="12" viewBox="0 0 12 12" fill="none" xmlns="http://www.w3.org/2000/svg">
<path fill-rule="evenodd" clip-rule="evenodd" d="M0 4.30139C0 1.9284 1.67666 0 3.75 0C4.59421 0 5.37362 0.320526 6 0.860038C6.62638 0.320526 7.40579 0 8.25 0C10.3233 0 12 1.9284 12 4.30139C12 5.18762 11.6201 6.04889 11.2004 6.75059C10.7714 7.46788 10.245 8.10906 9.84575 8.56732L7.45926 11.3065C6.65361 12.2312 5.34639 12.2312 4.54074 11.3065L2.15425 8.56732C1.74834 8.10143 1.22173 7.46002 0.794252 6.74432C0.375554 6.04331 0 5.18652 0 4.30139Z" fill="#FF0000"/>
</svg>
