<svg width="30" height="30" viewBox="0 0 30 30" fill="none" xmlns="http://www.w3.org/2000/svg">
<g clip-path="url(#clip0_358_284)">
<path d="M30.8065 20.3606C31.0724 20.3596 31.2877 20.1443 31.2887 19.8784V8.26237C31.2877 7.99644 31.0724 7.78111 30.8065 7.78015H14.8398C14.5711 7.77913 14.353 7.99721 14.354 8.26594L14.3719 19.8784C14.3729 20.1443 14.5882 20.3597 14.8541 20.3606C20.1716 20.3606 25.489 20.3606 30.8065 20.3606Z" fill="#ECECEC"/>
<path d="M4.67752 12.7238C4.60844 12.7239 4.54019 12.7388 4.47735 12.7675C4.41451 12.7961 4.35854 12.8379 4.31319 12.89C4.26785 12.9421 4.23419 13.0034 4.21447 13.0696C4.19475 13.1358 4.18944 13.2054 4.19888 13.2738L4.95971 18.5996C4.97257 18.6868 5.00897 18.7687 5.06499 18.8367C5.12102 18.9047 5.19453 18.9561 5.27761 18.9854C8.97013 20.2765 12.3523 20.0467 16.2114 18.9964C16.3029 18.9709 16.3849 18.919 16.4471 18.8473C16.5094 18.7755 16.5491 18.687 16.5614 18.5928L17.2544 13.2705C17.2633 13.202 17.2575 13.1325 17.2373 13.0665C17.2171 13.0005 17.1831 12.9395 17.1374 12.8878C17.0917 12.836 17.0355 12.7946 16.9725 12.7663C16.9095 12.7381 16.8412 12.7237 16.7722 12.724L4.67752 12.7238Z" fill="#3A4D5C"/>
<path d="M14.8398 7.78015C14.5711 7.77914 14.353 7.9972 14.354 8.26593L14.3588 9.78858L21.2507 9.76377C25.1251 9.74983 29.4471 14.3197 29.3969 18.1937V20.3611H30.807C31.073 20.3601 31.2881 20.1441 31.289 19.8781V8.26215C31.288 7.99621 31.0729 7.78111 30.807 7.78015H14.8398Z" fill="#CCCCCC"/>
<path d="M10.6826 8.26596C10.6216 8.26533 10.561 8.27626 10.504 8.29816L1.60985 11.5344C1.51607 11.568 1.43498 11.6299 1.37765 11.7114C1.32032 11.7929 1.28955 11.8901 1.28955 11.9898C1.28955 12.0894 1.32032 12.1867 1.37765 12.2682C1.43498 12.3497 1.51607 12.4115 1.60985 12.4452L10.504 15.6814C10.6113 15.7206 10.729 15.7206 10.8362 15.6814L19.7304 12.4452C19.8242 12.4115 19.9053 12.3497 19.9626 12.2682C20.0199 12.1867 20.0507 12.0894 20.0507 11.9898C20.0507 11.8901 20.0199 11.7929 19.9626 11.7114C19.9053 11.6299 19.8242 11.568 19.7304 11.5344L10.8362 8.29816C10.7871 8.27915 10.7352 8.26826 10.6826 8.26596Z" fill="#3A4D5C"/>
<path d="M20.1621 9.71613C20.0985 9.71588 20.0355 9.72814 19.9767 9.75224C19.9179 9.77634 19.8644 9.81183 19.8193 9.85661C19.7741 9.90139 19.7383 9.95463 19.7138 10.0133C19.6892 10.0719 19.6765 10.1348 19.6763 10.1983C19.676 10.2622 19.6884 10.3255 19.7127 10.3845C19.7371 10.4436 19.7728 10.4973 19.818 10.5424C19.8632 10.5876 19.9168 10.6234 19.9759 10.6477C20.0349 10.672 20.0982 10.6844 20.1621 10.6841H27.4203C27.4838 10.6839 27.5467 10.6712 27.6054 10.6466C27.664 10.6221 27.7172 10.5863 27.762 10.5411C27.8068 10.496 27.8423 10.4425 27.8664 10.3837C27.8905 10.3249 27.9027 10.2619 27.9025 10.1983C27.9021 10.0706 27.8511 9.94818 27.7608 9.85784C27.6704 9.76749 27.548 9.71657 27.4203 9.71613H20.1621Z" fill="#5F8EA2"/>
<path d="M18.7088 14.0704C18.6452 14.0706 18.5823 14.0833 18.5237 14.1079C18.465 14.1324 18.4118 14.1683 18.367 14.2134C18.3222 14.2585 18.2868 14.312 18.2627 14.3708C18.2386 14.4296 18.2263 14.4926 18.2266 14.5562C18.227 14.6839 18.2779 14.8063 18.3683 14.8967C18.4586 14.987 18.581 15.0379 18.7088 15.0384H22.5808C22.6443 15.0386 22.7073 15.0264 22.7662 15.0023C22.825 14.9782 22.8785 14.9427 22.9236 14.8979C22.9687 14.8531 23.0045 14.7999 23.0291 14.7413C23.0536 14.6827 23.0663 14.6197 23.0666 14.5562C23.0668 14.4923 23.0544 14.429 23.0301 14.37C23.0058 14.3109 22.97 14.2572 22.9248 14.2121C22.8797 14.1669 22.826 14.1311 22.767 14.1068C22.7079 14.0825 22.6446 14.0701 22.5808 14.0704H18.7088Z" fill="#5F8EA2"/>
<path d="M18.7088 16.0063C18.581 16.0067 18.4586 16.0577 18.3683 16.148C18.2779 16.2383 18.227 16.3607 18.2266 16.4885C18.2263 16.5521 18.2386 16.615 18.2627 16.6739C18.2868 16.7327 18.3222 16.7862 18.367 16.8313C18.4118 16.8764 18.465 16.9123 18.5237 16.9368C18.5823 16.9613 18.6452 16.9741 18.7088 16.9743H22.5808C22.6446 16.9745 22.7079 16.9622 22.767 16.9378C22.826 16.9135 22.8797 16.8777 22.9248 16.8326C22.97 16.7874 23.0058 16.7337 23.0301 16.6747C23.0544 16.6156 23.0668 16.5524 23.0666 16.4885C23.0663 16.4249 23.0536 16.3621 23.0291 16.3034C23.0045 16.2448 22.9687 16.1915 22.9236 16.1468C22.8785 16.102 22.825 16.0665 22.7662 16.0424C22.7073 16.0183 22.6443 16.006 22.5808 16.0063H18.7088Z" fill="#5F8EA2"/>
<path d="M21.8911 11.6522C21.8275 11.6519 21.7645 11.6642 21.7057 11.6883C21.6469 11.7124 21.5934 11.7479 21.5483 11.7926C21.5032 11.8374 21.4673 11.8906 21.4428 11.9493C21.4182 12.0079 21.4055 12.0708 21.4053 12.1344C21.405 12.1982 21.4174 12.2615 21.4417 12.3206C21.4661 12.3796 21.5018 12.4333 21.547 12.4785C21.5922 12.5236 21.6458 12.5594 21.7049 12.5837C21.7639 12.608 21.8272 12.6204 21.8911 12.6202H25.7595C25.8234 12.6204 25.8866 12.608 25.9457 12.5837C26.0047 12.5594 26.0584 12.5236 26.1036 12.4785C26.1487 12.4333 26.1845 12.3796 26.2088 12.3206C26.2331 12.2615 26.2455 12.1982 26.2453 12.1344C26.2451 12.0708 26.2323 12.0079 26.2078 11.9493C26.1833 11.8907 26.1474 11.8374 26.1023 11.7926C26.0572 11.7479 26.0037 11.7124 25.9449 11.6883C25.886 11.6642 25.8231 11.6519 25.7595 11.6522H21.8911Z" fill="#5F8EA2"/>
<path d="M17.2497 13.3032L10.8354 15.6366C10.7865 15.6555 10.7348 15.6664 10.6823 15.6687C10.6213 15.6693 10.5607 15.6584 10.5037 15.6366L4.20947 13.3466L4.35502 14.3673L10.5037 16.6043C10.5607 16.6262 10.6213 16.6371 10.6823 16.6365C10.7348 16.6341 10.7865 16.6233 10.8354 16.6043L17.1183 14.3182L17.2497 13.3032Z" fill="#143441"/>
<path d="M10.6433 11.5021C10.569 11.5028 10.496 11.5206 10.4297 11.554C10.3634 11.5875 10.3057 11.6357 10.2611 11.695C10.2227 11.7459 10.1948 11.8038 10.1789 11.8655C10.163 11.9271 10.1594 11.9913 10.1684 12.0544C10.1773 12.1174 10.1987 12.1781 10.2311 12.2329C10.2636 12.2877 10.3065 12.3355 10.3575 12.3737L13.0758 14.4026V15.8385C13.0755 15.9021 13.0878 15.965 13.1119 16.0238C13.136 16.0827 13.1714 16.1362 13.2162 16.1813C13.261 16.2264 13.3142 16.2622 13.3729 16.2868C13.4315 16.3113 13.4944 16.3241 13.558 16.3243C13.6218 16.3245 13.6851 16.3121 13.7442 16.2878C13.8032 16.2635 13.8569 16.2277 13.902 16.1826C13.9472 16.1374 13.983 16.0837 14.0073 16.0247C14.0316 15.9656 14.044 15.9024 14.0438 15.8385V14.1597C14.0442 14.0842 14.027 14.0097 13.9935 13.9421C13.96 13.8745 13.9112 13.8157 13.8509 13.7703L10.9362 11.5986C10.8517 11.5354 10.7488 11.5015 10.6433 11.5021Z" fill="#5F8EA2"/>
<path d="M25.2383 16.8029C25.1175 16.8132 25.005 16.8684 24.9229 16.9577C24.8409 17.047 24.7954 17.1638 24.7954 17.2851V23.0931C24.7955 23.1804 24.8192 23.2661 24.864 23.341C24.9089 23.4159 24.9731 23.4773 25.05 23.5187C25.1269 23.5601 25.2136 23.5799 25.3008 23.576C25.388 23.5722 25.4726 23.5448 25.5455 23.4967L26.7278 22.7073L27.9137 23.4967C27.9867 23.5448 28.0712 23.5722 28.1584 23.576C28.2457 23.5799 28.3323 23.5601 28.4092 23.5187C28.4861 23.4773 28.5504 23.4159 28.5952 23.341C28.64 23.2661 28.6637 23.1804 28.6638 23.0931V17.2851C28.6633 17.1918 28.6358 17.1007 28.5847 17.0227C28.5336 16.9447 28.461 16.8831 28.3757 16.8454C28.2905 16.8077 28.1961 16.7954 28.104 16.81C28.0119 16.8247 27.926 16.8656 27.8566 16.9279C27.4326 17.3104 27.0661 17.4563 26.7278 17.4565C26.3896 17.4568 26.0273 17.3115 25.6027 16.9279C25.5537 16.8832 25.4962 16.8491 25.4335 16.8276C25.3708 16.806 25.3044 16.7977 25.2383 16.8029Z" fill="#4895EF"/>
<path d="M26.7278 13.5882C25.3973 13.5882 24.3096 14.6759 24.3096 16.0064C24.3096 17.3369 25.3973 18.4246 26.7278 18.4246C28.0583 18.4246 28.9509 17.3369 28.9509 16.0064C28.9509 14.6759 28.0583 13.5882 26.7278 13.5882Z" fill="#FED883"/>
<path d="M26.7271 19.8781C26.5993 19.8786 26.4768 19.9296 26.3865 20.0201C26.2962 20.1106 26.2454 20.2332 26.2451 20.361V23.029L26.7271 22.7076L27.2138 23.0318V20.361C27.2137 20.2973 27.201 20.2342 27.1764 20.1755C27.1519 20.1167 27.116 20.0633 27.0708 20.0184C27.0255 19.9736 26.9719 19.9381 26.9129 19.914C26.854 19.8899 26.7908 19.8777 26.7271 19.8781Z" fill="#4377D1"/>
<path d="M26.727 13.5885C26.5614 13.5885 26.3997 13.605 26.2432 13.6377C27.3447 13.8631 28.1815 14.841 28.1815 16.0061C28.1815 17.1712 27.3447 18.15 26.2432 18.3754C26.3997 18.4074 26.5614 18.4246 26.727 18.4246C28.0575 18.4246 28.8712 17.3366 28.8712 16.0061C28.8712 14.6756 28.0575 13.5885 26.727 13.5885Z" fill="#FEC872"/>
<path d="M14.8398 7.78016C14.5725 7.77909 14.355 7.99481 14.3541 8.26215C14.3531 8.53088 14.5711 8.74899 14.8398 8.74793H30.324V19.3924H28.6635V17.4398C28.9642 17.037 29.1493 16.5442 29.1493 16.0061C29.1493 14.6757 28.0575 13.5886 26.727 13.5886C25.3966 13.5886 24.3095 14.6757 24.3095 16.0061C24.3095 16.5454 24.4943 17.0393 24.7953 17.4426V19.3924H18.226C17.9573 19.3913 17.7392 19.6094 17.7403 19.8781C17.7412 20.1454 17.9587 20.3621 18.226 20.361H24.7953V23.0932C24.7957 23.4783 25.2232 23.7086 25.5447 23.4968L26.727 22.7077L27.9131 23.4968C28.2347 23.7086 28.6631 23.4781 28.6635 23.0932V20.361H30.807C31.0729 20.3601 31.288 20.144 31.2889 19.8781V8.26215C31.288 7.99621 31.0729 7.78111 30.807 7.78016H14.8398ZM10.6824 8.26594C10.6214 8.26531 10.5608 8.27619 10.5038 8.29809L1.60965 11.5341C1.51579 11.5677 1.43463 11.6296 1.37725 11.7111C1.31986 11.7926 1.28906 11.8899 1.28906 11.9896C1.28906 12.0893 1.31986 12.1866 1.37725 12.2681C1.43463 12.3496 1.51579 12.4115 1.60965 12.4451L4.21618 13.393L4.95996 18.5995C4.98619 18.7771 5.10818 18.9263 5.2775 18.986C8.97002 20.2771 12.353 20.0467 16.2121 18.997C16.3992 18.9449 16.5366 18.786 16.5618 18.5934L17.2441 13.3501L19.7297 12.4457C19.8235 12.412 19.9047 12.3502 19.9621 12.2687C20.0195 12.1871 20.0502 12.0899 20.0502 11.9902C20.0502 11.8904 20.0195 11.7932 19.9621 11.7117C19.9047 11.6301 19.8235 11.5683 19.7297 11.5346L10.8355 8.2987C10.7866 8.27974 10.7349 8.26829 10.6824 8.26594ZM10.6682 9.26581L18.1513 11.9914L13.6574 13.6264L10.9356 11.5982C10.8511 11.535 10.7482 11.5012 10.6426 11.5019C10.4922 11.5033 10.3513 11.5743 10.2608 11.6947C10.0996 11.9086 10.1428 12.2127 10.3572 12.3732L12.5678 14.0234L10.6719 14.7133L3.18784 11.9876L10.6682 9.26581ZM20.1624 9.7166C20.0989 9.71635 20.0359 9.72862 19.9771 9.75271C19.9183 9.7768 19.8648 9.81221 19.8197 9.85697C19.7746 9.90173 19.7388 9.95496 19.7142 10.0136C19.6897 10.0722 19.6769 10.135 19.6767 10.1986C19.6764 10.2625 19.6888 10.3257 19.7131 10.3848C19.7374 10.4438 19.7732 10.4975 19.8184 10.5427C19.8635 10.5878 19.9172 10.6236 19.9762 10.6479C20.0353 10.6723 20.0986 10.6846 20.1624 10.6844H27.4206C27.4842 10.6841 27.5471 10.6714 27.6057 10.6468C27.6643 10.6223 27.7175 10.5864 27.7622 10.5413C27.807 10.4962 27.8424 10.4427 27.8665 10.3839C27.8906 10.3251 27.9029 10.2621 27.9026 10.1986C27.9021 10.0709 27.8512 9.94859 27.7609 9.85831C27.6706 9.76803 27.5483 9.7171 27.4206 9.7166H20.1624ZM21.891 11.6522C21.8274 11.6519 21.7645 11.6642 21.7057 11.6883C21.6469 11.7124 21.5934 11.7478 21.5483 11.7925C21.5032 11.8373 21.4673 11.8905 21.4428 11.9491C21.4182 12.0077 21.4055 12.0706 21.4052 12.1341C21.405 12.198 21.4174 12.2613 21.4417 12.3203C21.466 12.3794 21.5018 12.433 21.5469 12.4782C21.5921 12.5233 21.6457 12.5591 21.7048 12.5834C21.7638 12.6078 21.8271 12.6201 21.891 12.6199H25.7592C25.8231 12.6201 25.8863 12.6078 25.9454 12.5834C26.0044 12.5591 26.0581 12.5233 26.1032 12.4782C26.1484 12.433 26.1842 12.3794 26.2085 12.3203C26.2328 12.2613 26.2452 12.198 26.245 12.1341C26.2447 12.0706 26.232 12.0077 26.2074 11.9491C26.1829 11.8905 26.147 11.8373 26.1019 11.7925C26.0568 11.7478 26.0033 11.7124 25.9445 11.6883C25.8857 11.6642 25.8227 11.6519 25.7592 11.6522H21.891ZM16.2186 13.7228L15.6506 18.1146C12.1358 19.0355 9.14359 19.1959 5.86715 18.1146L5.24623 13.7682L10.5037 15.681C10.6108 15.7201 10.7283 15.7201 10.8354 15.681L13.0753 14.8664V15.493C12.8265 15.6402 12.6498 15.8941 12.6075 16.1904L12.254 17.5097C12.1847 17.7682 12.3385 18.0345 12.5971 18.1033C12.8555 18.1726 13.1208 18.0188 13.1896 17.7602L13.3238 17.2593C13.3993 17.2787 13.4762 17.2924 13.5573 17.2924C13.6392 17.2924 13.7181 17.2796 13.7945 17.2593L13.9287 17.7602C13.9975 18.0188 14.2637 18.1726 14.5222 18.1033C14.7808 18.0345 14.9346 17.7691 14.8652 17.5107L14.5118 16.1885C14.4688 15.8937 14.2912 15.6411 14.043 15.4939V14.5139L16.2186 13.7228ZM18.708 14.0706C18.5796 14.0711 18.4567 14.1225 18.3664 14.2136C18.276 14.3047 18.2255 14.428 18.226 14.5564C18.2265 14.6841 18.2774 14.8063 18.3677 14.8966C18.458 14.9869 18.5803 15.0379 18.708 15.0384H22.5799C22.6435 15.0386 22.7065 15.0263 22.7653 15.0023C22.8241 14.9782 22.8775 14.9427 22.9227 14.8979C22.9678 14.8532 23.0036 14.8 23.0282 14.7414C23.0527 14.6828 23.0655 14.6199 23.0657 14.5564C23.066 14.4925 23.0536 14.4292 23.0292 14.3702C23.0049 14.3111 22.9692 14.2575 22.924 14.2123C22.8788 14.1671 22.8252 14.1314 22.7661 14.1071C22.7071 14.0828 22.6438 14.0703 22.5799 14.0706H18.708ZM26.727 14.5564C27.5344 14.5564 28.1814 15.1987 28.1814 16.0061C28.1814 16.8136 27.5344 17.4568 26.727 17.4568C25.9195 17.4568 25.2772 16.8136 25.2772 16.0061C25.2772 15.1987 25.9195 14.5564 26.727 14.5564ZM18.708 16.0061C18.5801 16.0066 18.4577 16.0577 18.3673 16.1482C18.277 16.2387 18.2262 16.3612 18.226 16.4891C18.2255 16.6174 18.276 16.7407 18.3664 16.8318C18.4567 16.9229 18.5796 16.9743 18.708 16.9748H22.5799C22.6438 16.9751 22.7071 16.9627 22.7661 16.9384C22.8252 16.9141 22.8788 16.8783 22.924 16.8331C22.9692 16.788 23.0049 16.7343 23.0292 16.6753C23.0536 16.6162 23.066 16.5529 23.0657 16.4891C23.0656 16.4255 23.0529 16.3625 23.0284 16.3037C23.0039 16.245 22.9681 16.1917 22.923 16.1468C22.8779 16.102 22.8243 16.0665 22.7655 16.0423C22.7066 16.0182 22.6436 16.0059 22.5799 16.0061H18.708ZM27.6957 18.2176V22.186L27.2137 21.8647V20.361C27.2127 20.0937 26.9943 19.877 26.727 19.8781C26.461 19.879 26.2459 20.0951 26.245 20.361V21.8656L25.7592 22.1898V18.2185C26.0561 18.3495 26.3829 18.4246 26.727 18.4246C27.0714 18.4246 27.398 18.3489 27.6957 18.2176Z" fill="black"/>
</g>
<defs>
<clipPath id="clip0_358_284">
<rect width="30" height="30" fill="white"/>
</clipPath>
</defs>
</svg>
