<svg width="16" height="14" viewBox="0 0 16 14" fill="none" xmlns="http://www.w3.org/2000/svg">
<path fill-rule="evenodd" clip-rule="evenodd" d="M5 1.50003C3.07004 1.50003 1.5 3.07218 1.5 5.01832C1.5 5.59514 1.79489 6.28585 2.29789 7.02273C2.78918 7.74246 3.41393 8.41328 3.93527 8.93686L7.11725 12.1325C7.60515 12.6225 8.39485 12.6225 8.88275 12.1325L12.0647 8.93686C12.5765 8.42285 13.2016 7.75176 13.6955 7.02926C14.2018 6.28858 14.5 5.59385 14.5 5.01832C14.5 3.07218 12.93 1.50003 11 1.50003C10.0365 1.50003 9.16466 1.89042 8.53056 2.52507C8.38989 2.66586 8.19902 2.74497 8 2.74497C7.80098 2.74497 7.61011 2.66586 7.46944 2.52507C6.83534 1.89042 5.96348 1.50003 5 1.50003ZM0 5.01832C0 2.24983 2.23554 3.05176e-05 5 3.05176e-05C6.12562 3.05176e-05 7.16482 0.373978 8 1.00341C8.83518 0.373978 9.87438 3.05176e-05 11 3.05176e-05C13.7645 3.05176e-05 16 2.24983 16 5.01832C16 6.05225 15.4934 7.05707 14.9338 7.87572C14.3618 8.71256 13.66 9.46061 13.1277 9.99524L9.94568 13.1909C8.87148 14.2697 7.12852 14.2697 6.05432 13.1909L2.87234 9.99524C2.33112 9.4517 1.62897 8.70339 1.059 7.8684C0.500738 7.05056 0 6.05097 0 5.01832Z" fill="black"/>
</svg>
