<svg width="30" height="30" viewBox="0 0 30 30" fill="none" xmlns="http://www.w3.org/2000/svg">
<g clip-path="url(#clip0_358_140)">
<path d="M4.12324 18.0445V17.5445H3.62324H3.53652C2.3947 17.5445 1.46777 16.6176 1.46777 15.4758V12.3703C1.46777 11.2285 2.3947 10.3016 3.53652 10.3016H26.4936C27.6358 10.3016 28.5628 11.2268 28.5646 12.3688V15.4734C28.5646 16.6153 27.6377 17.5422 26.4959 17.5422H26.4092H25.9092V18.0422V26.8734C25.9092 28.0153 24.9823 28.9422 23.8404 28.9422H6.19199C5.05017 28.9422 4.12324 28.0153 4.12324 26.8734V18.0445Z" fill="url(#paint0_linear_358_140)" stroke="black"/>
<path d="M23.7306 12.7094H6.23682C6.1239 12.7094 6.03369 12.6192 6.03369 12.5063V1.65704C6.03369 1.54412 6.1239 1.45392 6.23682 1.45392H23.7306C23.8435 1.45392 23.9337 1.54412 23.9337 1.65704V12.5063C23.9337 12.6192 23.8435 12.7094 23.7306 12.7094Z" fill="url(#paint1_linear_358_140)" stroke="black"/>
<path d="M23.7306 27.2102H6.23682C6.1239 27.2102 6.03369 27.12 6.03369 27.0071V15.6891C6.03369 15.5762 6.1239 15.486 6.23682 15.486H23.7306C23.8435 15.486 23.9337 15.5762 23.9337 15.6891V27.0071C23.9337 27.1187 23.8424 27.2102 23.7306 27.2102Z" fill="#7A7A7A" stroke="black"/>
<path d="M23.7306 26.3711H6.23682C6.1239 26.3711 6.03369 26.2809 6.03369 26.168V15.6891C6.03369 15.5762 6.1239 15.486 6.23682 15.486H23.7306C23.8435 15.486 23.9337 15.5762 23.9337 15.6891V26.168C23.9337 26.2809 23.8435 26.3711 23.7306 26.3711Z" fill="#BDBDBD" stroke="black"/>
<path d="M23.7306 25.1805H6.23682C6.1239 25.1805 6.03369 25.0903 6.03369 24.9774V15.6891C6.03369 15.5762 6.1239 15.486 6.23682 15.486H23.7306C23.8435 15.486 23.9337 15.5762 23.9337 15.6891V24.9774C23.9337 25.0903 23.8435 25.1805 23.7306 25.1805Z" fill="url(#paint2_linear_358_140)" stroke="black"/>
<path d="M13.061 3.56097V10.6891H7.93213V3.56097H13.061Z" fill="#78909C" stroke="black"/>
<mask id="path-7-inside-1_358_140" fill="white">
<path d="M22.7204 4.31254H15.6071C15.4478 4.31254 15.3188 4.13207 15.3188 3.90941C15.3188 3.68676 15.4478 3.50629 15.6071 3.50629H22.7204C22.8798 3.50629 23.0087 3.68676 23.0087 3.90941C23.011 4.13207 22.8821 4.31254 22.7204 4.31254Z"/>
</mask>
<path d="M22.7204 4.31254H15.6071C15.4478 4.31254 15.3188 4.13207 15.3188 3.90941C15.3188 3.68676 15.4478 3.50629 15.6071 3.50629H22.7204C22.8798 3.50629 23.0087 3.68676 23.0087 3.90941C23.011 4.13207 22.8821 4.31254 22.7204 4.31254Z" fill="#7A7A7A"/>
<path d="M23.0087 3.90941L22.0086 3.90941L22.0087 3.91994L23.0087 3.90941ZM22.7204 3.31254H15.6071V5.31254H22.7204V3.31254ZM15.6071 3.31254C15.9335 3.31254 16.1354 3.49919 16.2167 3.61292C16.2992 3.72831 16.3188 3.83638 16.3188 3.90941H14.3188C14.3188 4.20509 14.4029 4.51473 14.5897 4.77602C14.7753 5.03565 15.1214 5.31254 15.6071 5.31254V3.31254ZM16.3188 3.90941C16.3188 3.98244 16.2992 4.09051 16.2167 4.2059C16.1354 4.31964 15.9335 4.50629 15.6071 4.50629V2.50629C15.1214 2.50629 14.7753 2.78317 14.5897 3.04281C14.4029 3.30409 14.3188 3.61373 14.3188 3.90941H16.3188ZM15.6071 4.50629H22.7204V2.50629H15.6071V4.50629ZM22.7204 4.50629C22.3941 4.50629 22.1921 4.31964 22.1108 4.2059C22.0283 4.09051 22.0087 3.98244 22.0087 3.90941H24.0087C24.0087 3.61373 23.9246 3.30409 23.7378 3.04281C23.5522 2.78317 23.2061 2.50629 22.7204 2.50629V4.50629ZM22.0087 3.91994C22.0079 3.84382 22.0277 3.73162 22.1126 3.61292C22.1974 3.49418 22.4002 3.31254 22.7204 3.31254V5.31254C23.2024 5.31254 23.5504 5.04065 23.7396 4.77602C23.9287 4.51143 24.0118 4.19766 24.0086 3.89889L22.0087 3.91994Z" fill="black" mask="url(#path-7-inside-1_358_140)"/>
<mask id="path-9-inside-2_358_140" fill="white">
<path d="M22.7204 6.60471H15.6071C15.4478 6.60471 15.3188 6.42424 15.3188 6.20159C15.3188 5.97893 15.4478 5.79846 15.6071 5.79846H22.7204C22.8798 5.79846 23.0087 5.97893 23.0087 6.20159C23.0087 6.42424 22.8821 6.60471 22.7204 6.60471Z"/>
</mask>
<path d="M22.7204 6.60471H15.6071C15.4478 6.60471 15.3188 6.42424 15.3188 6.20159C15.3188 5.97893 15.4478 5.79846 15.6071 5.79846H22.7204C22.8798 5.79846 23.0087 5.97893 23.0087 6.20159C23.0087 6.42424 22.8821 6.60471 22.7204 6.60471Z" fill="#7A7A7A"/>
<path d="M22.7204 5.60471H15.6071V7.60471H22.7204V5.60471ZM15.6071 5.60471C15.9335 5.60471 16.1354 5.79136 16.2167 5.9051C16.2992 6.02049 16.3188 6.12856 16.3188 6.20159H14.3188C14.3188 6.49727 14.4029 6.8069 14.5897 7.06819C14.7753 7.32783 15.1214 7.60471 15.6071 7.60471V5.60471ZM16.3188 6.20159C16.3188 6.27461 16.2992 6.38269 16.2167 6.49807C16.1354 6.61181 15.9335 6.79846 15.6071 6.79846V4.79846C15.1214 4.79846 14.7753 5.07535 14.5897 5.33498C14.4029 5.59627 14.3188 5.9059 14.3188 6.20159H16.3188ZM15.6071 6.79846H22.7204V4.79846H15.6071V6.79846ZM22.7204 6.79846C22.3941 6.79846 22.1921 6.61181 22.1108 6.49807C22.0283 6.38269 22.0087 6.27461 22.0087 6.20159H24.0087C24.0087 5.9059 23.9246 5.59627 23.7378 5.33498C23.5522 5.07535 23.2061 4.79846 22.7204 4.79846V6.79846ZM22.0087 6.20159C22.0087 6.13264 22.0267 6.02458 22.1101 5.90727C22.1944 5.78875 22.3978 5.60471 22.7204 5.60471V7.60471C23.2047 7.60471 23.5523 7.33044 23.7403 7.06602C23.9274 6.80281 24.0087 6.49319 24.0087 6.20159H22.0087Z" fill="black" mask="url(#path-9-inside-2_358_140)"/>
<mask id="path-11-inside-3_358_140" fill="white">
<path d="M22.7204 8.89689H15.6071C15.4478 8.89689 15.3188 8.71642 15.3188 8.49376C15.3188 8.27111 15.4478 8.09064 15.6071 8.09064H22.7204C22.8798 8.09064 23.0087 8.27111 23.0087 8.49376C23.0087 8.71642 22.8821 8.89689 22.7204 8.89689Z"/>
</mask>
<path d="M22.7204 8.89689H15.6071C15.4478 8.89689 15.3188 8.71642 15.3188 8.49376C15.3188 8.27111 15.4478 8.09064 15.6071 8.09064H22.7204C22.8798 8.09064 23.0087 8.27111 23.0087 8.49376C23.0087 8.71642 22.8821 8.89689 22.7204 8.89689Z" fill="#7A7A7A"/>
<path d="M22.7204 7.89689H15.6071V9.89689H22.7204V7.89689ZM15.6071 7.89689C15.9335 7.89689 16.1354 8.08354 16.2167 8.19727C16.2992 8.31266 16.3188 8.42074 16.3188 8.49376H14.3188C14.3188 8.78945 14.4029 9.09908 14.5897 9.36037C14.7753 9.62 15.1214 9.89689 15.6071 9.89689V7.89689ZM16.3188 8.49376C16.3188 8.56679 16.2992 8.67486 16.2167 8.79025C16.1354 8.90399 15.9335 9.09064 15.6071 9.09064V7.09064C15.1214 7.09064 14.7753 7.36752 14.5897 7.62716C14.4029 7.88845 14.3188 8.19808 14.3188 8.49376H16.3188ZM15.6071 9.09064H22.7204V7.09064H15.6071V9.09064ZM22.7204 9.09064C22.3941 9.09064 22.1921 8.90399 22.1108 8.79025C22.0283 8.67486 22.0087 8.56679 22.0087 8.49376H24.0087C24.0087 8.19808 23.9246 7.88845 23.7378 7.62716C23.5522 7.36752 23.2061 7.09064 22.7204 7.09064V9.09064ZM22.0087 8.49376C22.0087 8.42482 22.0267 8.31675 22.1101 8.19944C22.1944 8.08093 22.3978 7.89689 22.7204 7.89689V9.89689C23.2047 9.89689 23.5523 9.62261 23.7403 9.3582C23.9274 9.09499 24.0087 8.78536 24.0087 8.49376H22.0087Z" fill="black" mask="url(#path-11-inside-3_358_140)"/>
<mask id="path-13-inside-4_358_140" fill="white">
<path d="M22.7204 11.1891H15.6071C15.4478 11.1891 15.3188 11.0087 15.3188 10.786C15.3188 10.5633 15.4478 10.3829 15.6071 10.3829H22.7204C22.8798 10.3829 23.0087 10.5633 23.0087 10.786C23.0087 11.0087 22.8821 11.1891 22.7204 11.1891Z"/>
</mask>
<path d="M22.7204 11.1891H15.6071C15.4478 11.1891 15.3188 11.0087 15.3188 10.786C15.3188 10.5633 15.4478 10.3829 15.6071 10.3829H22.7204C22.8798 10.3829 23.0087 10.5633 23.0087 10.786C23.0087 11.0087 22.8821 11.1891 22.7204 11.1891Z" fill="#7A7A7A"/>
<path d="M22.7204 10.1891H15.6071V12.1891H22.7204V10.1891ZM15.6071 10.1891C15.9335 10.1891 16.1354 10.3758 16.2167 10.4895C16.2992 10.6049 16.3188 10.713 16.3188 10.786H14.3188C14.3188 11.0817 14.4029 11.3913 14.5897 11.6526C14.7753 11.9122 15.1214 12.1891 15.6071 12.1891V10.1891ZM16.3188 10.786C16.3188 10.859 16.2992 10.9671 16.2167 11.0825C16.1354 11.1962 15.9335 11.3829 15.6071 11.3829V9.38287C15.1214 9.38287 14.7753 9.65976 14.5897 9.9194C14.4029 10.1807 14.3188 10.4903 14.3188 10.786H16.3188ZM15.6071 11.3829H22.7204V9.38287H15.6071V11.3829ZM22.7204 11.3829C22.3941 11.3829 22.1921 11.1962 22.1108 11.0825C22.0283 10.9671 22.0087 10.859 22.0087 10.786H24.0087C24.0087 10.4903 23.9246 10.1807 23.7378 9.9194C23.5522 9.65976 23.2061 9.38287 22.7204 9.38287V11.3829ZM22.0087 10.786C22.0087 10.7171 22.0267 10.609 22.1101 10.4917C22.1944 10.3732 22.3978 10.1891 22.7204 10.1891V12.1891C23.2047 12.1891 23.5523 11.9148 23.7403 11.6504C23.9274 11.3872 24.0087 11.0776 24.0087 10.786H22.0087Z" fill="black" mask="url(#path-13-inside-4_358_140)"/>
<path d="M10.7173 12.4719V15.6156H10.2876V12.4719H10.7173Z" fill="#7A7A7A" stroke="black"/>
<path d="M19.7456 12.4719V15.6156H19.3159V12.4719H19.7456Z" fill="#7A7A7A" stroke="black"/>
<g opacity="0.2">
<mask id="path-17-inside-5_358_140" fill="white">
<path d="M23.625 1.65704C23.6648 1.65704 23.6977 1.68986 23.6977 1.7297V9.79923C23.6977 10.1883 24.0117 10.5024 24.4008 10.5024H26.4609C27.4898 10.5024 28.3266 11.3391 28.3266 12.368V15.4734C28.3266 16.5024 27.4898 17.3391 26.4609 17.3391H26.3742C25.9852 17.3391 25.6711 17.6531 25.6711 18.0422V26.8711C25.6711 27.9 24.8344 28.7367 23.8055 28.7367H6.15703C5.12813 28.7367 4.29141 27.9 4.29141 26.8711V18.0422C4.29141 17.6531 3.97734 17.3391 3.58828 17.3391H3.50156C2.47266 17.3391 1.63594 16.5024 1.63594 15.4734V12.368C1.63594 11.3391 2.47266 10.5024 3.50156 10.5024H5.49609C5.88516 10.5024 6.19922 10.1883 6.19922 9.79923V1.73204C6.19922 1.6922 6.23203 1.65939 6.27188 1.65939H23.625M23.625 0.953918H6.27891C5.85 0.953918 5.50312 1.30079 5.50312 1.7297V9.79923H3.50859C2.08828 9.80158 0.9375 10.95 0.9375 12.368V15.4734C0.9375 16.8914 2.08828 18.0422 3.50625 18.0422H3.59297V26.8711C3.59297 28.2891 4.74375 29.4399 6.16172 29.4399H23.8102C25.2281 29.4399 26.3789 28.2891 26.3789 26.8711V18.0422H26.4656C27.8836 18.0422 29.0344 16.8914 29.0344 15.4734V12.368C29.0344 10.95 27.8836 9.79923 26.4656 9.79923H24.4055V1.73204C24.4031 1.30314 24.0539 0.953918 23.625 0.953918Z"/>
</mask>
<path d="M23.625 1.65704C23.6648 1.65704 23.6977 1.68986 23.6977 1.7297V9.79923C23.6977 10.1883 24.0117 10.5024 24.4008 10.5024H26.4609C27.4898 10.5024 28.3266 11.3391 28.3266 12.368V15.4734C28.3266 16.5024 27.4898 17.3391 26.4609 17.3391H26.3742C25.9852 17.3391 25.6711 17.6531 25.6711 18.0422V26.8711C25.6711 27.9 24.8344 28.7367 23.8055 28.7367H6.15703C5.12813 28.7367 4.29141 27.9 4.29141 26.8711V18.0422C4.29141 17.6531 3.97734 17.3391 3.58828 17.3391H3.50156C2.47266 17.3391 1.63594 16.5024 1.63594 15.4734V12.368C1.63594 11.3391 2.47266 10.5024 3.50156 10.5024H5.49609C5.88516 10.5024 6.19922 10.1883 6.19922 9.79923V1.73204C6.19922 1.6922 6.23203 1.65939 6.27188 1.65939H23.625M23.625 0.953918H6.27891C5.85 0.953918 5.50312 1.30079 5.50312 1.7297V9.79923H3.50859C2.08828 9.80158 0.9375 10.95 0.9375 12.368V15.4734C0.9375 16.8914 2.08828 18.0422 3.50625 18.0422H3.59297V26.8711C3.59297 28.2891 4.74375 29.4399 6.16172 29.4399H23.8102C25.2281 29.4399 26.3789 28.2891 26.3789 26.8711V18.0422H26.4656C27.8836 18.0422 29.0344 16.8914 29.0344 15.4734V12.368C29.0344 10.95 27.8836 9.79923 26.4656 9.79923H24.4055V1.73204C24.4031 1.30314 24.0539 0.953918 23.625 0.953918Z" fill="#7A7A7A"/>
<path d="M5.50312 9.79923V10.7992H6.50312V9.79923H5.50312ZM3.50859 9.79923L3.50859 8.79923L3.50694 8.79923L3.50859 9.79923ZM3.59297 18.0422H4.59297V17.0422H3.59297V18.0422ZM26.3789 18.0422V17.0422H25.3789V18.0422H26.3789ZM24.4055 9.79923H23.4055V10.7992H24.4055V9.79923ZM24.4055 1.73204L25.4055 1.73204L25.4055 1.72658L24.4055 1.73204ZM23.625 2.65704C23.1125 2.65704 22.6977 2.24213 22.6977 1.7297H24.6977C24.6977 1.13758 24.2171 0.657043 23.625 0.657043V2.65704ZM22.6977 1.7297V9.79923H24.6977V1.7297H22.6977ZM22.6977 9.79923C22.6977 10.7406 23.4594 11.5024 24.4008 11.5024V9.50236C24.564 9.50236 24.6977 9.63601 24.6977 9.79923H22.6977ZM24.4008 11.5024H26.4609V9.50236H24.4008V11.5024ZM26.4609 11.5024C26.9376 11.5024 27.3266 11.8914 27.3266 12.368H29.3266C29.3266 10.7868 28.0421 9.50236 26.4609 9.50236V11.5024ZM27.3266 12.368V15.4734H29.3266V12.368H27.3266ZM27.3266 15.4734C27.3266 15.9501 26.9376 16.3391 26.4609 16.3391V18.3391C28.0421 18.3391 29.3266 17.0546 29.3266 15.4734H27.3266ZM26.4609 16.3391H26.3742V18.3391H26.4609V16.3391ZM26.3742 16.3391C25.4329 16.3391 24.6711 17.1009 24.6711 18.0422H26.6711C26.6711 18.2054 26.5374 18.3391 26.3742 18.3391V16.3391ZM24.6711 18.0422V26.8711H26.6711V18.0422H24.6711ZM24.6711 26.8711C24.6711 27.3477 24.2821 27.7367 23.8055 27.7367V29.7367C25.3867 29.7367 26.6711 28.4523 26.6711 26.8711H24.6711ZM23.8055 27.7367H6.15703V29.7367H23.8055V27.7367ZM6.15703 27.7367C5.68041 27.7367 5.29141 27.3477 5.29141 26.8711H3.29141C3.29141 28.4523 4.57584 29.7367 6.15703 29.7367V27.7367ZM5.29141 26.8711V18.0422H3.29141V26.8711H5.29141ZM5.29141 18.0422C5.29141 17.1009 4.52963 16.3391 3.58828 16.3391V18.3391C3.42506 18.3391 3.29141 18.2054 3.29141 18.0422H5.29141ZM3.58828 16.3391H3.50156V18.3391H3.58828V16.3391ZM3.50156 16.3391C3.02494 16.3391 2.63594 15.9501 2.63594 15.4734H0.635938C0.635938 17.0546 1.92037 18.3391 3.50156 18.3391V16.3391ZM2.63594 15.4734V12.368H0.635938V15.4734H2.63594ZM2.63594 12.368C2.63594 11.8914 3.02494 11.5024 3.50156 11.5024V9.50236C1.92037 9.50236 0.635938 10.7868 0.635938 12.368H2.63594ZM3.50156 11.5024H5.49609V9.50236H3.50156V11.5024ZM5.49609 11.5024C6.43744 11.5024 7.19922 10.7406 7.19922 9.79923H5.19922C5.19922 9.63601 5.33287 9.50236 5.49609 9.50236V11.5024ZM7.19922 9.79923V1.73204H5.19922V9.79923H7.19922ZM7.19922 1.73204C7.19922 2.24448 6.78432 2.65939 6.27188 2.65939V0.659387C5.67974 0.659387 5.19922 1.13992 5.19922 1.73204H7.19922ZM6.27188 2.65939H23.625V0.659387H6.27188V2.65939ZM23.625 -0.0460815H6.27891V1.95392H23.625V-0.0460815ZM6.27891 -0.0460815C5.29772 -0.0460815 4.50312 0.748508 4.50312 1.7297H6.50312C6.50312 1.85308 6.40228 1.95392 6.27891 1.95392V-0.0460815ZM4.50312 1.7297V9.79923H6.50312V1.7297H4.50312ZM5.50312 8.79923H3.50859V10.7992H5.50312V8.79923ZM3.50694 8.79923C1.53774 8.80248 -0.0625 10.3956 -0.0625 12.368H1.9375C1.9375 11.5044 2.63883 10.8007 3.51024 10.7992L3.50694 8.79923ZM-0.0625 12.368V15.4734H1.9375V12.368H-0.0625ZM-0.0625 15.4734C-0.0625 17.4437 1.536 19.0422 3.50625 19.0422V17.0422C2.64057 17.0422 1.9375 16.3391 1.9375 15.4734H-0.0625ZM3.50625 19.0422H3.59297V17.0422H3.50625V19.0422ZM2.59297 18.0422V26.8711H4.59297V18.0422H2.59297ZM2.59297 26.8711C2.59297 28.8414 4.19147 30.4399 6.16172 30.4399V28.4399C5.29603 28.4399 4.59297 27.7368 4.59297 26.8711H2.59297ZM6.16172 30.4399H23.8102V28.4399H6.16172V30.4399ZM23.8102 30.4399C25.7804 30.4399 27.3789 28.8414 27.3789 26.8711H25.3789C25.3789 27.7368 24.6758 28.4399 23.8102 28.4399V30.4399ZM27.3789 26.8711V18.0422H25.3789V26.8711H27.3789ZM26.3789 19.0422H26.4656V17.0422H26.3789V19.0422ZM26.4656 19.0422C28.4359 19.0422 30.0344 17.4437 30.0344 15.4734H28.0344C28.0344 16.3391 27.3313 17.0422 26.4656 17.0422V19.0422ZM30.0344 15.4734V12.368H28.0344V15.4734H30.0344ZM30.0344 12.368C30.0344 10.3977 28.4359 8.79923 26.4656 8.79923V10.7992C27.3313 10.7992 28.0344 11.5023 28.0344 12.368H30.0344ZM26.4656 8.79923H24.4055V10.7992H26.4656V8.79923ZM25.4055 9.79923V1.73204H23.4055V9.79923H25.4055ZM25.4055 1.72658C25.4001 0.750719 24.6072 -0.0460815 23.625 -0.0460815V1.95392C23.5006 1.95392 23.4061 1.85556 23.4055 1.73751L25.4055 1.72658Z" fill="black" mask="url(#path-17-inside-5_358_140)"/>
</g>
</g>
<defs>
<linearGradient id="paint0_linear_358_140" x1="15.0159" y1="9.7146" x2="15.0159" y2="29.6544" gradientUnits="userSpaceOnUse">
<stop stop-color="#757575"/>
<stop offset="1"/>
</linearGradient>
<linearGradient id="paint1_linear_358_140" x1="14.984" y1="0.997606" x2="14.984" y2="12.8891" gradientUnits="userSpaceOnUse">
<stop stop-color="white"/>
<stop offset="1" stop-color="#C8C9CA"/>
</linearGradient>
<linearGradient id="paint2_linear_358_140" x1="14.984" y1="15.198" x2="14.984" y2="25.4982" gradientUnits="userSpaceOnUse">
<stop stop-color="#C8C9CA"/>
<stop offset="1" stop-color="white"/>
</linearGradient>
<clipPath id="clip0_358_140">
<rect width="30" height="30" fill="white"/>
</clipPath>
</defs>
</svg>
