<svg width="32" height="32" viewBox="0 0 32 32" fill="none" xmlns="http://www.w3.org/2000/svg">
<rect width="32" height="32" rx="16" fill="#E8EFF3"/>
<path d="M23.5105 20.1797C22.1513 17.9131 21.3335 16.9234 21.3335 14.4762C21.3321 13.1943 20.8694 11.9558 20.03 10.987C19.1906 10.0183 18.0306 9.38392 16.762 9.2V9.14286C16.762 8.94079 16.6818 8.74699 16.5389 8.60411C16.396 8.46122 16.2022 8.38095 16.0001 8.38095C15.7981 8.38095 15.6043 8.46122 15.4614 8.60411C15.3185 8.74699 15.2382 8.94079 15.2382 9.14286V9.2032C13.9618 9.4449 12.8086 10.1216 11.9751 11.1181C11.1416 12.1145 10.6792 13.3691 10.6668 14.6682C10.6668 16.9234 9.70529 18.1531 8.48974 20.1797C8.42045 20.2953 8.38307 20.4272 8.38141 20.562C8.37974 20.6968 8.41386 20.8296 8.48027 20.9469C8.54668 21.0641 8.64301 21.1617 8.75944 21.2296C8.87587 21.2975 9.00822 21.3333 9.143 21.3333H22.8573C22.9921 21.3333 23.1244 21.2975 23.2409 21.2296C23.3573 21.1617 23.4537 21.0641 23.5201 20.9468C23.5865 20.8295 23.6206 20.6967 23.6189 20.562C23.6173 20.4272 23.5799 20.2953 23.5105 20.1797Z" fill="black"/>
<path d="M17.5239 22.0952H14.4763C14.2742 22.0952 14.0804 22.1755 13.9375 22.3184C13.7946 22.4613 13.7144 22.6551 13.7144 22.8572C13.7144 23.0592 13.7946 23.253 13.9375 23.3959C14.0804 23.5388 14.2742 23.6191 14.4763 23.6191H17.5239C17.7259 23.6191 17.9197 23.5388 18.0626 23.3959C18.2055 23.253 18.2858 23.0592 18.2858 22.8572C18.2858 22.6551 18.2055 22.4613 18.0626 22.3184C17.9197 22.1755 17.7259 22.0952 17.5239 22.0952Z" fill="black"/>
</svg>
