<svg width="30" height="30" viewBox="0 0 30 30" fill="none" xmlns="http://www.w3.org/2000/svg">
<path d="M7.96875 10.1953V19.9805C7.96875 19.9805 14.1211 26.5488 21.5625 19.9805V9.25781" fill="#4CB6AC"/>
<path d="M15.8027 24.082C11.5137 24.082 8.50195 21.0352 8.45508 20.9883L8.25586 20.8184V9.66797H9.31055V20.3262C10.4238 21.2695 15.6973 25.6406 22.0254 20.3027V9.66797H23.1387V20.8418L22.9805 21.0176C20.3848 23.3145 17.9531 24.082 15.8027 24.082Z" fill="black"/>
<path d="M2.086 13.8984L15.6212 19.1133C15.668 19.1309 15.7208 19.1309 15.7735 19.1074L28.4356 13.0898C28.6583 12.9844 28.6583 12.5449 28.4298 12.4453L15.7559 6.89648C15.7032 6.87305 15.6505 6.87305 15.5977 6.89648L2.07428 13.248C1.84577 13.3594 1.85162 13.8047 2.086 13.8984Z" fill="white"/>
<path d="M1.47079 12.5039L13.5938 6.82031L27.047 12.7441L13.8282 19.0078L1.60556 14.2969C0.908291 14.0273 0.785245 12.8203 1.47079 12.5039Z" fill="#4CB6AC"/>
<path d="M15.6914 19.7227C15.5977 19.7227 15.498 19.7051 15.4102 19.6699L1.875 14.4551C1.54102 14.3262 1.32422 14.0039 1.3125 13.6113C1.30078 13.2188 1.5 12.8672 1.82227 12.7148L15.3516 6.36328C15.5566 6.26953 15.791 6.26367 16.002 6.35742L28.6699 11.8945C28.9922 12.0352 29.1914 12.3633 29.2031 12.7441C29.209 13.1309 29.0156 13.4707 28.6934 13.623L16.0313 19.6465C15.9258 19.6934 15.8086 19.7227 15.6914 19.7227ZM2.8418 13.5469L15.6797 18.4922L27.7031 12.7734L15.6855 7.51172L2.8418 13.5469Z" fill="black"/>
<path d="M5.15625 14.707H4.16016V18.457H5.15625V14.707Z" fill="black"/>
<path d="M4.61133 19.9336C5.2909 19.9336 5.8418 19.3827 5.8418 18.7031C5.8418 18.0236 5.2909 17.4727 4.61133 17.4727C3.93176 17.4727 3.38086 18.0236 3.38086 18.7031C3.38086 19.3827 3.93176 19.9336 4.61133 19.9336Z" fill="black"/>
</svg>
