<svg width="21" height="20" viewBox="0 0 21 20" fill="none" xmlns="http://www.w3.org/2000/svg">
<path d="M19.3335 2.55248C18.268 1.49086 16.8251 0.894775 15.321 0.894775C13.8169 0.894775 12.374 1.49086 11.3085 2.55248L10.4985 3.36248L9.68849 2.55248C8.62295 1.49086 7.18012 0.894775 5.67599 0.894775C4.17185 0.894775 2.72902 1.49086 1.66349 2.55248C0.601403 3.6193 0.00512695 5.06337 0.00512695 6.56874C0.00512695 8.0741 0.601403 9.51817 1.66349 10.585L9.96599 18.8875C10.0357 18.9578 10.1187 19.0136 10.2101 19.0517C10.3014 19.0897 10.3995 19.1093 10.4985 19.1093C10.5975 19.1093 10.6955 19.0897 10.7869 19.0517C10.8783 19.0136 10.9613 18.9578 11.031 18.8875L19.3335 10.585C20.3956 9.51817 20.9918 8.0741 20.9918 6.56874C20.9918 5.06337 20.3956 3.6193 19.3335 2.55248V2.55248Z" fill="#C5C5C5"/>
</svg>
