<svg width="19" height="18" viewBox="0 0 19 18" fill="none" xmlns="http://www.w3.org/2000/svg">
<path d="M1.49854 10H7.49854C8.04854 10 8.49854 9.55 8.49854 9V1C8.49854 0.45 8.04854 0 7.49854 0H1.49854C0.948535 0 0.498535 0.45 0.498535 1V9C0.498535 9.55 0.948535 10 1.49854 10ZM1.49854 18H7.49854C8.04854 18 8.49854 17.55 8.49854 17V13C8.49854 12.45 8.04854 12 7.49854 12H1.49854C0.948535 12 0.498535 12.45 0.498535 13V17C0.498535 17.55 0.948535 18 1.49854 18ZM11.4985 18H17.4985C18.0485 18 18.4985 17.55 18.4985 17V9C18.4985 8.45 18.0485 8 17.4985 8H11.4985C10.9485 8 10.4985 8.45 10.4985 9V17C10.4985 17.55 10.9485 18 11.4985 18ZM10.4985 1V5C10.4985 5.55 10.9485 6 11.4985 6H17.4985C18.0485 6 18.4985 5.55 18.4985 5V1C18.4985 0.45 18.0485 0 17.4985 0H11.4985C10.9485 0 10.4985 0.45 10.4985 1Z" fill="#C5C5C5"/>
</svg>
