<svg width="30" height="30" viewBox="0 0 30 30" fill="none" xmlns="http://www.w3.org/2000/svg">
<g clip-path="url(#clip0_358_16)">
<path d="M21.25 4.375H24.375C24.8723 4.375 25.3492 4.57254 25.7008 4.92417C26.0525 5.27581 26.25 5.75272 26.25 6.25V27.5C26.25 27.9973 26.0525 28.4742 25.7008 28.8258C25.3492 29.1775 24.8723 29.375 24.375 29.375H5.625C5.12772 29.375 4.65081 29.1775 4.29917 28.8258C3.94754 28.4742 3.75 27.9973 3.75 27.5V6.25C3.75 5.75272 3.94754 5.27581 4.29917 4.92417C4.65081 4.57254 5.12772 4.375 5.625 4.375H8.75V6.25H21.25V4.375Z" fill="#FED049"/>
<path d="M21.25 4.375V6.25H8.75V4.375C8.75 4.20924 8.81585 4.05027 8.93306 3.93306C9.05027 3.81585 9.20924 3.75 9.375 3.75H11.875C11.875 2.9212 12.2042 2.12634 12.7903 1.54029C13.3763 0.95424 14.1712 0.625 15 0.625C15.8288 0.625 16.6237 0.95424 17.2097 1.54029C17.7958 2.12634 18.125 2.9212 18.125 3.75H20.625C20.7908 3.75 20.9497 3.81585 21.0669 3.93306C21.1842 4.05027 21.25 4.20924 21.25 4.375Z" fill="#A4B0C0"/>
<path d="M23.75 8.75V26.25C23.75 26.4158 23.6842 26.5747 23.5669 26.6919C23.4497 26.8092 23.2908 26.875 23.125 26.875H6.875C6.70924 26.875 6.55027 26.8092 6.43306 26.6919C6.31585 26.5747 6.25 26.4158 6.25 26.25V8.75H23.75Z" fill="#F1F2F2"/>
<path d="M13.75 11.875H10C9.65482 11.875 9.375 12.1548 9.375 12.5V13.75C9.375 14.0952 9.65482 14.375 10 14.375H13.75C14.0952 14.375 14.375 14.0952 14.375 13.75V12.5C14.375 12.1548 14.0952 11.875 13.75 11.875Z" fill="#A4B0C0"/>
<path d="M7.5 6.87499H22.5C22.6658 6.87499 22.8247 6.80915 22.9419 6.69194C23.0592 6.57473 23.125 6.41575 23.125 6.24999C23.125 6.08423 23.0592 5.92526 22.9419 5.80805C22.8247 5.69084 22.6658 5.62499 22.5 5.62499H21.875V4.37499C21.875 4.04347 21.7433 3.72553 21.5089 3.49111C21.2745 3.25669 20.9565 3.12499 20.625 3.12499H18.6981C18.5511 2.25047 18.099 1.45633 17.4219 0.883589C16.7449 0.310852 15.8868 -0.00341797 15 -0.00341797C14.1132 -0.00341797 13.2551 0.310852 12.5781 0.883589C11.901 1.45633 11.4489 2.25047 11.3019 3.12499H9.375C9.04348 3.12499 8.72554 3.25669 8.49112 3.49111C8.2567 3.72553 8.125 4.04347 8.125 4.37499V5.62499H7.5C7.33424 5.62499 7.17527 5.69084 7.05806 5.80805C6.94085 5.92526 6.875 6.08423 6.875 6.24999C6.875 6.41575 6.94085 6.57473 7.05806 6.69194C7.17527 6.80915 7.33424 6.87499 7.5 6.87499ZM9.375 4.37499H11.875C12.0408 4.37499 12.1997 4.30915 12.3169 4.19194C12.4342 4.07473 12.5 3.91575 12.5 3.74999C12.5 3.08695 12.7634 2.45107 13.2322 1.98223C13.7011 1.51339 14.337 1.24999 15 1.24999C15.663 1.24999 16.2989 1.51339 16.7678 1.98223C17.2366 2.45107 17.5 3.08695 17.5 3.74999C17.5 3.91575 17.5658 4.07473 17.6831 4.19194C17.8003 4.30915 17.9592 4.37499 18.125 4.37499H20.625V5.62499H9.375V4.37499Z" fill="black"/>
<path d="M5.625 8.75V26.25C5.625 26.5815 5.7567 26.8995 5.99112 27.1339C6.22554 27.3683 6.54348 27.5 6.875 27.5H23.125C23.4565 27.5 23.7745 27.3683 24.0089 27.1339C24.2433 26.8995 24.375 26.5815 24.375 26.25V8.75C24.375 8.58424 24.3092 8.42527 24.1919 8.30806C24.0747 8.19085 23.9158 8.125 23.75 8.125H6.25C6.08424 8.125 5.92527 8.19085 5.80806 8.30806C5.69085 8.42527 5.625 8.58424 5.625 8.75ZM6.875 9.375H23.125V26.25H6.875V9.375Z" fill="black"/>
<path d="M15.625 3.125H14.375C14.2092 3.125 14.0503 3.19085 13.9331 3.30806C13.8158 3.42527 13.75 3.58424 13.75 3.75C13.75 3.91576 13.8158 4.07473 13.9331 4.19194C14.0503 4.30915 14.2092 4.375 14.375 4.375H15.625C15.7908 4.375 15.9497 4.30915 16.0669 4.19194C16.1842 4.07473 16.25 3.91576 16.25 3.75C16.25 3.58424 16.1842 3.42527 16.0669 3.30806C15.9497 3.19085 15.7908 3.125 15.625 3.125Z" fill="black"/>
<path d="M21.25 21.25H19.0087L16.6919 18.9331C16.5747 18.8159 16.4157 18.7501 16.25 18.7501C16.0843 18.7501 15.9253 18.8159 15.8081 18.9331L12.5 22.2412L11.0669 20.8081C10.9497 20.6909 10.7907 20.625 10.625 20.625H8.75C8.58424 20.625 8.42527 20.6908 8.30806 20.808C8.19085 20.9253 8.125 21.0842 8.125 21.25C8.125 21.4157 8.19085 21.5747 8.30806 21.6919C8.42527 21.8091 8.58424 21.875 8.75 21.875H10.3663L12.0581 23.5669C12.1753 23.684 12.3343 23.7499 12.5 23.7499C12.6657 23.7499 12.8247 23.684 12.9419 23.5669L16.25 20.2587L18.3081 22.3169C18.4253 22.4341 18.5843 22.5 18.75 22.5H21.25C21.4158 22.5 21.5747 22.4341 21.6919 22.3169C21.8092 22.1997 21.875 22.0407 21.875 21.875C21.875 21.7092 21.8092 21.5503 21.6919 21.433C21.5747 21.3158 21.4158 21.25 21.25 21.25Z" fill="black"/>
<path d="M24.375 3.75C24.2092 3.75 24.0503 3.81585 23.9331 3.93306C23.8158 4.05027 23.75 4.20924 23.75 4.375C23.75 4.54076 23.8158 4.69973 23.9331 4.81694C24.0503 4.93415 24.2092 5 24.375 5C24.7065 5 25.0245 5.1317 25.2589 5.36612C25.4933 5.60054 25.625 5.91848 25.625 6.25V27.5C25.625 27.8315 25.4933 28.1495 25.2589 28.3839C25.0245 28.6183 24.7065 28.75 24.375 28.75H5.625C5.29348 28.75 4.97554 28.6183 4.74112 28.3839C4.5067 28.1495 4.375 27.8315 4.375 27.5V6.25C4.375 5.91848 4.5067 5.60054 4.74112 5.36612C4.97554 5.1317 5.29348 5 5.625 5C5.79076 5 5.94973 4.93415 6.06694 4.81694C6.18415 4.69973 6.25 4.54076 6.25 4.375C6.25 4.20924 6.18415 4.05027 6.06694 3.93306C5.94973 3.81585 5.79076 3.75 5.625 3.75C4.96196 3.75 4.32607 4.01339 3.85723 4.48223C3.38839 4.95107 3.125 5.58696 3.125 6.25V27.5C3.125 28.163 3.38839 28.7989 3.85723 29.2678C4.32607 29.7366 4.96196 30 5.625 30H24.375C25.038 30 25.6739 29.7366 26.1428 29.2678C26.6116 28.7989 26.875 28.163 26.875 27.5V6.25C26.875 5.58696 26.6116 4.95107 26.1428 4.48223C25.6739 4.01339 25.038 3.75 24.375 3.75Z" fill="black"/>
<path d="M10 15H13.75C14.0815 15 14.3995 14.8683 14.6339 14.6339C14.8683 14.3995 15 14.0815 15 13.75V12.5C15 12.1685 14.8683 11.8505 14.6339 11.6161C14.3995 11.3817 14.0815 11.25 13.75 11.25H10C9.66848 11.25 9.35054 11.3817 9.11612 11.6161C8.8817 11.8505 8.75 12.1685 8.75 12.5V13.75C8.75 14.0815 8.8817 14.3995 9.11612 14.6339C9.35054 14.8683 9.66848 15 10 15ZM10 12.5H13.75V13.75H10V12.5Z" fill="black"/>
<path d="M16.875 13.75H18.75V15.625C18.75 15.7908 18.8158 15.9497 18.9331 16.0669C19.0503 16.1842 19.2092 16.25 19.375 16.25C19.5408 16.25 19.6997 16.1842 19.8169 16.0669C19.9342 15.9497 20 15.7908 20 15.625V13.125C20 12.9592 19.9342 12.8003 19.8169 12.6831C19.6997 12.5658 19.5408 12.5 19.375 12.5H16.875C16.7092 12.5 16.5503 12.5658 16.4331 12.6831C16.3158 12.8003 16.25 12.9592 16.25 13.125C16.25 13.2908 16.3158 13.4497 16.4331 13.5669C16.5503 13.6842 16.7092 13.75 16.875 13.75Z" fill="black"/>
<path d="M9.375 17.5H14.375C14.5408 17.5 14.6997 17.4342 14.8169 17.3169C14.9342 17.1997 15 17.0408 15 16.875C15 16.7092 14.9342 16.5503 14.8169 16.4331C14.6997 16.3158 14.5408 16.25 14.375 16.25H9.375C9.20924 16.25 9.05027 16.3158 8.93306 16.4331C8.81585 16.5503 8.75 16.7092 8.75 16.875C8.75 17.0408 8.81585 17.1997 8.93306 17.3169C9.05027 17.4342 9.20924 17.5 9.375 17.5Z" fill="black"/>
</g>
<defs>
<clipPath id="clip0_358_16">
<rect width="30" height="30" fill="white"/>
</clipPath>
</defs>
</svg>
