<svg width="30" height="30" viewBox="0 0 30 30" fill="none" xmlns="http://www.w3.org/2000/svg">
<path d="M14.9999 29.4114C21.2633 29.4114 26.3408 27.8126 26.3408 25.8404C26.3408 23.8682 21.2633 22.2695 14.9999 22.2695C8.73644 22.2695 3.65894 23.8682 3.65894 25.8404C3.65894 27.8126 8.73644 29.4114 14.9999 29.4114Z" fill="#41A85F"/>
<path d="M22.652 8.24073C22.652 12.4669 14.9999 26.4885 14.9999 26.4885C14.9999 26.4885 7.3479 12.4669 7.3479 8.24073C7.3479 4.0146 10.7738 0.58869 14.9999 0.58869C19.2261 0.58869 22.652 4.0146 22.652 8.24073Z" fill="#EF584F"/>
<path d="M17.6177 5.11077C16.2678 5.11077 15.1555 6.12544 15.0001 7.4336C14.8448 6.12544 13.7324 5.11077 12.3825 5.11077C10.9262 5.11077 9.74561 6.29137 9.74561 7.74766C9.74561 10.5213 14.9999 13.6074 14.9999 13.6074H15.0004C15.0004 13.6074 20.2547 10.5212 20.2547 7.74766C20.2546 6.29137 19.074 5.11077 17.6177 5.11077Z" fill="#EFEFEF"/>
<path d="M23.196 22.7539C21.7515 22.2991 19.9983 21.9793 18.0899 21.8131C20.3388 17.2987 23.2407 10.9485 23.2407 8.24073C23.2407 3.69673 19.5439 0 15.0001 0C10.4562 0 6.75939 3.69673 6.75939 8.24067C6.75939 10.9485 9.66141 17.2987 11.9102 21.813C10.0018 21.9792 8.2486 22.299 6.80415 22.7538C4.36179 23.523 3.0708 24.5903 3.0708 25.8404C3.0708 27.0905 4.36179 28.1578 6.80421 28.9269C9.00182 29.6189 11.9125 29.9999 15.0001 29.9999C18.0876 29.9999 20.9983 29.6188 23.1959 28.9269C25.6384 28.1578 26.9294 27.0905 26.9294 25.8404C26.9294 24.5903 25.6384 23.523 23.196 22.7539ZM7.93665 8.24073C7.93665 4.34595 11.1053 1.17732 15.0001 1.17732C18.8948 1.17732 22.0635 4.34595 22.0635 8.24073C22.0635 9.38488 21.4099 12.1268 18.2964 18.6925C17.0031 21.4196 15.6978 23.9267 15.0001 25.2422C14.3023 23.9267 12.9969 21.4196 11.7037 18.6925C8.59026 12.1268 7.93665 9.38488 7.93665 8.24073ZM22.8424 27.804C20.7561 28.4609 17.9709 28.8227 15.0001 28.8227C12.0293 28.8227 9.24411 28.461 7.15782 27.804C5.01236 27.1284 4.24801 26.3467 4.24801 25.8404C4.24801 25.334 5.01236 24.5523 7.15777 23.8768C8.64042 23.4099 10.4767 23.0929 12.481 22.9481C13.5574 25.0685 14.3826 26.5858 14.4834 26.7704C14.5865 26.9595 14.7847 27.0771 15.0001 27.0771C15.2154 27.0771 15.4136 26.9595 15.5167 26.7704C15.6175 26.5857 16.4428 25.0685 17.5191 22.9481C19.5235 23.0929 21.3597 23.41 22.8423 23.8768C24.9878 24.5523 25.7522 25.334 25.7522 25.8404C25.7522 26.3467 24.9878 27.1285 22.8424 27.804Z" fill="#231F20"/>
<path d="M15.5254 21.6678C16.1343 20.4636 16.708 19.2944 17.2305 18.1927C17.3699 17.899 17.2447 17.548 16.9509 17.4087C16.657 17.2694 16.3062 17.3946 16.1669 17.6883C15.6486 18.7811 15.0793 19.9412 14.4748 21.1366C14.3282 21.4268 14.4444 21.7808 14.7345 21.9276C14.8197 21.9706 14.9103 21.991 14.9997 21.991C15.2146 21.991 15.4218 21.8728 15.5254 21.6678Z" fill="#231F20"/>
<path d="M18.2307 14.5721C17.9329 14.4414 17.5858 14.5767 17.4551 14.8745L17.4208 14.9524C17.2899 15.25 17.4251 15.5973 17.7227 15.7282C17.7998 15.7621 17.8801 15.7782 17.9593 15.7782C18.1857 15.7782 18.4014 15.6468 18.4984 15.4263L18.5329 15.3478C18.6637 15.0501 18.5283 14.7028 18.2307 14.5721Z" fill="#231F20"/>
<path d="M15.0005 14.196C15.1053 14.196 15.2082 14.168 15.2985 14.115C15.354 14.0823 16.6718 13.3043 18.0091 12.1659C19.8898 10.5648 20.8432 9.07844 20.8432 7.74766C20.8432 5.96911 19.3963 4.52214 17.6177 4.52214C16.5484 4.52214 15.5891 5.04597 15.0001 5.86247C14.4111 5.04603 13.4518 4.52214 12.3825 4.52214C10.604 4.52214 9.15698 5.96911 9.15698 7.74766C9.15698 9.07832 10.1105 10.5648 11.9911 12.1659C13.3284 13.3043 14.6462 14.0824 14.7017 14.115C14.7922 14.168 14.8956 14.196 15.0005 14.196ZM10.3343 7.74772C10.3343 6.61827 11.2531 5.69946 12.3826 5.69946C13.4195 5.69946 14.2935 6.47483 14.4156 7.50309C14.4509 7.79922 14.7019 8.02223 15.0001 8.02223C15.2983 8.02223 15.5495 7.79922 15.5846 7.50309C15.7068 6.47483 16.5807 5.69946 17.6177 5.69946C18.7471 5.69946 19.6659 6.61827 19.6659 7.74772C19.6659 9.61252 16.5366 11.957 15.0001 12.9187C13.4636 11.9569 10.3343 9.61252 10.3343 7.74772Z" fill="#231F20"/>
</svg>
