<svg width="398" height="286" viewBox="0 0 398 286" fill="none" xmlns="http://www.w3.org/2000/svg">
<g filter="url(#filter0_d_1324_12)">
<rect x="40" y="35.5699" width="318" height="205.43" rx="16" fill="white"/>
</g>
<path d="M328 35.5699H342C350.837 35.5699 358 42.7334 358 51.5699V225C358 233.837 350.837 241 342 241H328V35.5699Z" fill="#EA7173"/>
<path d="M337.64 222.858V221.528H344.56V222.858H337.64ZM340.46 221.908V220.298H341.55V221.908H340.46ZM338.6 228.818V223.368H339.64V228.818H338.6ZM339.97 226.088C339.97 224.758 340.7 223.818 341.76 223.818C342.82 223.818 343.54 224.758 343.54 226.088C343.54 227.428 342.82 228.368 341.76 228.368C340.7 228.368 339.97 227.428 339.97 226.088ZM340.98 226.088C340.98 226.678 341.26 227.088 341.76 227.088C342.26 227.088 342.53 226.678 342.53 226.088C342.53 225.498 342.26 225.088 341.76 225.088C341.26 225.088 340.98 225.498 340.98 226.088ZM337.62 226.758V225.428H339.11V226.758H337.62ZM345.67 227.498V221.198H346.73V227.498H345.67ZM344.04 227.498V226.168H346.13V227.498H344.04ZM338.02 218.588V212.718H339.08V218.588H338.02ZM341.22 219.608V211.228H342.28V219.608H341.22ZM341.97 216.098V214.768H343.91V216.098H341.97ZM338.02 213.518V212.208H338.76C339.56 212.208 340.49 212.208 341.71 212.498L341.58 213.808C340.39 213.518 339.54 213.518 338.76 213.518H338.02ZM343.58 218.768V212.198H346.89V213.528H344.63V218.768H343.58ZM338.41 209.599V203.739H339.48V209.599H338.41ZM344.7 210.409V202.039H345.78V210.409H344.7ZM341.78 208.659V207.339H345.04V208.659H341.78ZM338.41 204.129V202.789H339.32C340.44 202.789 341.72 202.789 343.6 203.119L343.47 204.439C341.71 204.129 340.41 204.129 339.32 204.129H338.41ZM341.78 206.369V205.059H345.04V206.369H341.78ZM342.47 199.25V197.92H344.29V199.25H342.47ZM342.46 196.16V194.84H344.28V196.16H342.46ZM341.95 201.22V192.85H343V201.22H341.95ZM343.85 200.29V193.86H346.89V195.19H344.89V200.29H343.85ZM337.81 197.03C337.81 195 338.51 193.68 339.63 193.68C340.76 193.68 341.46 195 341.46 197.03C341.46 199.07 340.76 200.38 339.63 200.38C338.51 200.38 337.81 199.07 337.81 197.03ZM338.84 197.03C338.84 198.3 339.1 199.01 339.63 199.01C340.17 199.01 340.43 198.3 340.43 197.03C340.43 195.77 340.17 195.05 339.63 195.05C339.1 195.05 338.84 195.77 338.84 197.03ZM337.63 185.641V184.301H346.89V185.641H337.63ZM338.59 188.371V187.051C341.42 187.051 343.74 188.011 345.33 191.301L344.27 191.991C342.99 189.331 341.31 188.371 338.83 188.371H338.59ZM338.59 191.501V187.741H339.64V191.501H338.59ZM338.3 182.412V178.452H339.37V182.412H338.3ZM340.46 181.272V179.952H342.78V181.272H340.46ZM338.3 178.972V177.662H338.88C339.53 177.662 340.45 177.662 341.6 177.882L341.46 179.172C340.32 178.972 339.52 178.972 338.88 178.972H338.3ZM337.63 176.762V175.422H344.56V176.762H337.63ZM340.45 175.952V174.322H341.54V175.952H340.45ZM345.67 181.602V175.132H346.73V181.602H345.67ZM343.94 181.602V180.272H346V181.602H343.94ZM343.32 182.832L342.27 182.952C342.27 181.352 342.24 179.122 341.98 177.262L342.92 177.182C343.28 179.092 343.32 181.242 343.32 182.832ZM341.04 169.922V168.402H342.11V169.922H341.04ZM337.63 166.932V165.662H346.89V166.932H337.63ZM337.77 168.822V167.572H346.47V168.822H337.77ZM338.28 171.542C338.28 170.312 339.55 169.522 341.64 169.522C343.74 169.522 345.01 170.312 345.01 171.542C345.01 172.762 343.74 173.542 341.64 173.542C339.55 173.542 338.28 172.762 338.28 171.542ZM339.53 171.542C339.53 172.042 340.23 172.332 341.64 172.332C343.06 172.332 343.75 172.042 343.75 171.542C343.75 171.022 343.06 170.732 341.64 170.732C340.23 170.732 339.53 171.022 339.53 171.542ZM340.52 159.753V157.313H341.59V159.753H340.52ZM338.34 162.273V161.193H339.68C342.01 161.193 344.16 161.983 345.03 163.723L343.96 164.553C343.23 162.973 341.44 162.273 339.68 162.273H338.34ZM338.34 161.993V160.933H339.68C341.44 160.933 343.13 160.263 343.81 158.733L344.87 159.523C344.03 161.263 341.99 161.993 339.68 161.993H338.34ZM337.62 157.973V156.653H346.91V157.973H337.62ZM337.63 146.151V144.891H346.89V146.151H337.63ZM340.79 149.201V147.671H341.87V149.201H340.79ZM337.78 148.021V146.781H346.47V148.021H337.78ZM339.14 151.201V150.201H340.09C342.17 150.201 344.24 150.771 345.16 152.241L344.18 153.031C343.33 151.671 341.67 151.201 340.09 151.201H339.14ZM339.14 150.901V149.911H340.09C341.63 149.911 343.19 149.451 343.97 148.111L344.94 148.891C344.07 150.361 342.13 150.901 340.09 150.901H339.14ZM338.56 152.681V148.551H339.63V152.681H338.56ZM343.39 139.502C343.39 137.502 344.05 136.222 345.15 136.222C346.23 136.222 346.89 137.502 346.89 139.502C346.89 141.502 346.23 142.782 345.15 142.782C344.05 142.782 343.39 141.502 343.39 139.502ZM344.39 139.502C344.39 140.752 344.65 141.462 345.15 141.462C345.64 141.462 345.89 140.752 345.89 139.502C345.89 138.252 345.64 137.542 345.15 137.542C344.65 137.542 344.39 138.252 344.39 139.502ZM338.04 142.682V136.822H339.09V142.682H338.04ZM341.76 143.622V135.282H342.82V143.622H341.76ZM340.15 140.532V139.212H342.03V140.532H340.15ZM338.04 137.592V136.272H338.8C339.53 136.272 340.32 136.272 341.28 136.522L341.14 137.842C340.19 137.592 339.52 137.592 338.8 137.592H338.04ZM337.63 125.37V124.1H346.89V125.37H337.63ZM341.01 128.89V126.74H342.08V128.89H341.01ZM337.79 127.28V126.04H346.48V127.28H337.79ZM343.74 131.79V131.15C343.74 129.84 343.71 128.97 343.51 127.95L344.59 127.85C344.8 128.88 344.84 129.8 344.84 131.15V131.79H343.74ZM338.67 131.79V128.26H339.73V130.48H344.2V131.79H338.67ZM337.62 116.511V115.171H346.91V116.511H337.62ZM338.27 120.161C338.27 118.761 339.55 117.731 341.57 117.731C343.61 117.731 344.89 118.761 344.89 120.161C344.89 121.561 343.61 122.591 341.57 122.591C339.55 122.591 338.27 121.561 338.27 120.161ZM339.48 120.161C339.48 120.851 340.21 121.321 341.57 121.321C342.95 121.321 343.69 120.851 343.69 120.161C343.69 119.471 342.95 119.011 341.57 119.011C340.21 119.011 339.48 119.471 339.48 120.161ZM337.62 107.211V105.891H346.91V107.211H337.62ZM340.88 108.801V107.061H341.96V108.801H340.88ZM343.74 113.241V112.501C343.74 110.971 343.72 109.831 343.51 108.521L344.57 108.401C344.78 109.741 344.82 110.941 344.82 112.501V113.241H343.74ZM338.4 113.241V108.951H339.48V111.921H344.08V113.241H338.4ZM340.98 112.221V109.271H342.02V112.221H340.98ZM341.78 104.462V96.0722H342.75V104.462H341.78ZM343.21 103.522V97.0722H345.41V102.182H346.2V103.502H344.57V98.3822H344.11V103.522H343.21ZM345.92 103.502V96.8122H346.82V103.502H345.92ZM337.79 103.432V97.0922H339.97V102.102H340.73V103.422H339.14V98.4022H338.68V103.432H337.79ZM340.45 103.422V96.9222H341.35V103.422H340.45ZM337.63 86.5002V85.1602H346.89V86.5002H337.63ZM338.59 89.2302V87.9102C341.42 87.9102 343.74 88.8702 345.33 92.1602L344.27 92.8502C342.99 90.1902 341.31 89.2302 338.83 89.2302H338.59ZM338.59 92.3602V88.6002H339.64V92.3602H338.59ZM337.64 77.7209V76.3909H344.45V77.7209H337.64ZM340.24 76.7709V75.1609H341.33V76.7709H340.24ZM345.67 82.3609V76.0609H346.73V82.3609H345.67ZM343.76 82.3609V81.0309H345.9V82.3609H343.76ZM338.29 83.4109V82.0909H339.62V80.2809H338.29V78.9609H342.99V83.4109H338.29ZM340.63 82.0909H341.95V80.2809H340.63V82.0909ZM337.63 68.5217V67.1917H343.05V68.5217H337.63ZM339.85 67.7217V65.9617H340.95V67.7217H339.85ZM343.41 73.2117V71.9017H344.11V68.5117H343.41V67.1917H346.79V73.2117H343.41ZM345.11 71.9017H345.75V68.5117H345.11V71.9017ZM338.43 74.4817V69.0317H339.48V74.4817H338.43ZM339.73 71.7517C339.73 70.4117 340.39 69.4817 341.37 69.4817C342.35 69.4817 343.01 70.4117 343.01 71.7517C343.01 73.1017 342.35 74.0317 341.37 74.0317C340.39 74.0317 339.73 73.1017 339.73 71.7517ZM340.7 71.7517C340.7 72.3517 340.94 72.7517 341.37 72.7517C341.81 72.7517 342.04 72.3517 342.04 71.7517C342.04 71.1617 341.81 70.7517 341.37 70.7517C340.94 70.7517 340.7 71.1617 340.7 71.7517ZM337.56 72.4217V71.0917H339.02V72.4217H337.56ZM337.63 58.8725V57.5425H346.89V58.8725H337.63ZM338.51 64.7925V63.4725H344.26V64.7925H338.51ZM343.48 64.7925V63.9725C343.48 62.6225 343.38 61.1225 343.08 59.5925L344.18 59.4425C344.51 61.0325 344.61 62.5625 344.61 63.9725V64.7925H343.48ZM337.62 50.1633V48.8233H346.91V50.1633H337.62ZM341.05 49.1233V47.4833H342.14V49.1233H341.05ZM343.58 55.7233V54.9433C343.58 53.3833 343.53 52.1533 343.29 50.7933L344.39 50.6633C344.64 52.0633 344.68 53.3333 344.68 54.9433V55.7233H343.58ZM338.48 55.7233V51.4033H339.55V54.4033H344.11V55.7233H338.48ZM346.07 46.0841C346.07 46.3174 345.997 46.5107 345.85 46.6641C345.703 46.8107 345.527 46.8841 345.32 46.8841C345.107 46.8841 344.927 46.8107 344.78 46.6641C344.633 46.5107 344.56 46.3174 344.56 46.0841C344.56 45.8507 344.633 45.6607 344.78 45.5141C344.927 45.3607 345.107 45.2841 345.32 45.2841C345.527 45.2841 345.703 45.3607 345.85 45.5141C345.997 45.6607 346.07 45.8507 346.07 46.0841Z" fill="white"/>
<path d="M60.084 56.424H63.012V57.708H60.084V56.424ZM57.06 53.808H58.356V55.416C58.356 58.212 57.408 60.792 55.32 61.836L54.324 60.552C56.22 59.676 57.06 57.528 57.06 55.416V53.808ZM57.396 53.808H58.668V55.416C58.668 57.528 59.472 59.556 61.308 60.372L60.36 61.644C58.272 60.636 57.396 58.188 57.396 55.416V53.808ZM62.22 52.944H63.804V64.092H62.22V52.944ZM69.7311 58.248H71.3271V59.796H69.7311V58.248ZM70.5471 53.064C73.0791 53.064 74.5671 53.724 74.5671 54.948C74.5671 56.172 73.0791 56.844 70.5471 56.844C68.0031 56.844 66.5271 56.172 66.5271 54.948C66.5271 53.724 68.0031 53.064 70.5471 53.064ZM70.5471 54.228C68.9391 54.228 68.1831 54.456 68.1831 54.948C68.1831 55.464 68.9391 55.68 70.5471 55.68C72.1551 55.68 72.9111 55.464 72.9111 54.948C72.9111 54.456 72.1551 54.228 70.5471 54.228ZM65.5191 57.324H75.5631V58.584H65.5191V57.324ZM66.6711 59.304H74.3511V62.16H68.2551V63.144H66.6831V61.056H72.7791V60.492H66.6711V59.304ZM66.6831 62.796H74.6391V63.996H66.6831V62.796ZM84.5861 52.956H86.0981V64.068H84.5861V52.956ZM83.0981 57.228H84.9461V58.512H83.0981V57.228ZM82.1021 53.148H83.5781V63.54H82.1021V53.148ZM76.8701 60.252H77.6501C79.0181 60.252 80.1581 60.204 81.4781 59.964L81.5981 61.26C80.2541 61.524 79.0781 61.56 77.6501 61.56H76.8701V60.252ZM76.8701 54.24H80.9741V55.524H78.4541V60.876H76.8701V54.24ZM87.5972 53.928H94.1372V55.188H87.5972V53.928ZM90.8732 55.536C92.4692 55.536 93.5972 56.364 93.5972 57.588C93.5972 58.812 92.4692 59.628 90.8732 59.628C89.2652 59.628 88.1372 58.812 88.1372 57.588C88.1372 56.364 89.2652 55.536 90.8732 55.536ZM90.8732 56.736C90.1532 56.736 89.6732 57.024 89.6732 57.588C89.6732 58.14 90.1532 58.428 90.8732 58.428C91.5812 58.428 92.0732 58.14 92.0732 57.588C92.0732 57.024 91.5812 56.736 90.8732 56.736ZM94.7492 52.956H96.3452V59.928H94.7492V52.956ZM95.9012 55.824H97.8212V57.12H95.9012V55.824ZM88.9292 60.384H96.3452V64.068H94.7492V61.656H88.9292V60.384ZM90.0692 52.896H91.6652V54.648H90.0692V52.896ZM99.6203 53.892H106.652V55.176H99.6203V53.892ZM98.6483 61.44H108.692V62.736H98.6483V61.44ZM100.748 57.936H102.332V61.848H100.748V57.936ZM106.184 53.892H107.792V54.984C107.792 56.328 107.792 57.864 107.396 60.12L105.812 59.964C106.184 57.852 106.184 56.292 106.184 54.984V53.892ZM103.496 57.936H105.068V61.848H103.496V57.936Z" fill="black"/>
<path d="M59.62 70.7127H61.56V71.3927H59.62V70.7127ZM59.62 72.3327H61.56V73.0127H59.62V72.3327ZM54.76 69.7827H59.52V70.4627H54.76V69.7827ZM54.61 74.1427L54.52 73.4427C56 73.4427 58.11 73.4227 59.8 73.2227L59.85 73.8427C58.11 74.1227 56.08 74.1427 54.61 74.1427ZM55.66 70.3127H56.46V73.6727H55.66V70.3127ZM57.82 70.3127H58.62V73.6727H57.82V70.3127ZM61.1 69.1027H61.93V74.6827H61.1V69.1027ZM58.96 74.8627C60.83 74.8627 61.97 75.4527 61.97 76.4927C61.97 77.5327 60.83 78.1227 58.96 78.1227C57.08 78.1227 55.94 77.5327 55.94 76.4927C55.94 75.4527 57.08 74.8627 58.96 74.8627ZM58.96 75.5127C57.59 75.5127 56.77 75.8727 56.77 76.4927C56.77 77.1127 57.59 77.4827 58.96 77.4827C60.33 77.4827 61.15 77.1127 61.15 76.4927C61.15 75.8727 60.33 75.5127 58.96 75.5127ZM64.7192 69.5827H70.4892V70.2627H64.7192V69.5827ZM63.6992 72.9827H71.8892V73.6627H63.6992V72.9827ZM66.4192 73.4127H67.2292V75.8427H66.4192V73.4127ZM70.0192 69.5827H70.8292V70.2727C70.8292 71.0727 70.8292 72.0027 70.5592 73.2827L69.7492 73.1927C70.0192 71.9327 70.0192 71.0527 70.0192 70.2727V69.5827ZM64.6792 77.2627H71.0792V77.9427H64.6792V77.2627ZM64.6792 75.1027H65.5092V77.4327H64.6792V75.1027ZM68.8092 73.4127H69.6192V75.8427H68.8092V73.4127ZM82.027 69.1027H82.867V73.9527H82.027V69.1027ZM77.037 74.4027H77.857V75.5027H82.047V74.4027H82.867V78.0227H77.037V74.4027ZM77.857 76.1627V77.3527H82.047V76.1627H77.857ZM78.017 69.5327C79.387 69.5327 80.367 70.3827 80.367 71.6127C80.367 72.8527 79.387 73.7027 78.017 73.7027C76.647 73.7027 75.657 72.8527 75.657 71.6127C75.657 70.3827 76.647 69.5327 78.017 69.5327ZM78.017 70.2227C77.117 70.2227 76.467 70.7927 76.467 71.6127C76.467 72.4327 77.117 73.0027 78.017 73.0027C78.917 73.0027 79.567 72.4327 79.567 71.6127C79.567 70.7927 78.917 70.2227 78.017 70.2227ZM91.2563 69.1027H92.0863V73.7127H91.2563V69.1027ZM88.3963 69.5427H89.2962C89.2962 71.8227 87.7263 73.2827 85.0863 73.9227L84.7963 73.2427C87.1363 72.7027 88.3963 71.5127 88.3963 69.9527V69.5427ZM85.2663 69.5427H88.7763V70.2227H85.2663V69.5427ZM88.9763 70.4027H91.3963V71.0627H88.9763V70.4027ZM88.8963 72.1327H91.3463V72.7827H88.8963V72.1327ZM86.2663 74.1327H92.0863V76.3527H87.1163V77.7927H86.2963V75.7127H91.2663V74.8027H86.2663V74.1327ZM86.2963 77.3927H92.3863V78.0527H86.2963V77.3927ZM102.994 69.1027H103.824V78.1427H102.994V69.1027ZM100.344 70.0727H101.164C101.164 72.6927 99.9841 74.9827 96.9641 76.4627L96.5241 75.7927C99.1341 74.5327 100.344 72.6127 100.344 70.2127V70.0727ZM96.9341 70.0727H100.704V70.7527H96.9341V70.0727ZM109.153 69.9527H109.893V70.2227C109.893 71.7527 108.263 72.8227 106.413 73.1027L106.103 72.4327C107.703 72.2227 109.153 71.3227 109.153 70.2227V69.9527ZM109.503 69.9527H110.233V70.2227C110.233 71.3227 111.693 72.2227 113.293 72.4327L112.973 73.1027C111.133 72.8227 109.503 71.7527 109.503 70.2227V69.9527ZM106.353 69.5527H113.043V70.2227H106.353V69.5527ZM105.603 73.7527H113.793V74.4327H105.603V73.7527ZM109.343 74.1727H110.173V76.2527H109.343V74.1727ZM106.643 77.2627H112.883V77.9427H106.643V77.2627ZM106.643 75.3827H107.463V77.5227H106.643V75.3827Z" fill="#303733"/>
<path d="M177.42 59.3363H179.18V60.4163H177.42V59.3363ZM178.82 57.0963H180.15V62.5963H178.82V57.0963ZM177.01 62.7963C178.97 62.7963 180.18 63.4663 180.18 64.5863C180.18 65.7163 178.97 66.3663 177.01 66.3663C175.05 66.3663 173.84 65.7163 173.84 64.5863C173.84 63.4663 175.05 62.7963 177.01 62.7963ZM177.01 63.8063C175.81 63.8063 175.17 64.0563 175.17 64.5863C175.17 65.1063 175.81 65.3563 177.01 65.3563C178.22 65.3563 178.86 65.1063 178.86 64.5863C178.86 64.0563 178.22 63.8063 177.01 63.8063ZM174.54 58.0263H175.62V58.6063C175.62 60.3763 174.8 61.9963 173.03 62.5963L172.35 61.5463C173.88 61.0263 174.54 59.7963 174.54 58.6063V58.0263ZM174.82 58.0263H175.89V58.6063C175.89 59.6963 176.52 60.8263 177.98 61.3163L177.33 62.3663C175.61 61.7963 174.82 60.2563 174.82 58.6063V58.0263ZM172.71 57.6563H177.69V58.7163H172.71V57.6563ZM183.859 57.8063H184.939V59.1563C184.939 61.5363 184.119 63.6863 182.279 64.5363L181.489 63.4363C183.099 62.7363 183.859 60.9563 183.859 59.1563V57.8063ZM184.119 57.8063H185.199V59.1563C185.199 60.8663 185.929 62.5663 187.509 63.2463L186.729 64.3163C184.939 63.4963 184.119 61.4363 184.119 59.1563V57.8063ZM187.949 57.0863H189.289V66.3763H187.949V57.0863ZM193.36 64.7863C193.36 64.683 193.378 64.5846 193.415 64.4913C193.455 64.398 193.508 64.318 193.575 64.2513C193.642 64.1846 193.722 64.1313 193.815 64.0913C193.908 64.0513 194.008 64.0313 194.115 64.0313C194.222 64.0313 194.32 64.0513 194.41 64.0913C194.503 64.1313 194.583 64.1846 194.65 64.2513C194.72 64.318 194.775 64.398 194.815 64.4913C194.855 64.5846 194.875 64.683 194.875 64.7863C194.875 64.893 194.855 64.993 194.815 65.0863C194.775 65.1763 194.72 65.2546 194.65 65.3213C194.583 65.388 194.503 65.4396 194.41 65.4763C194.32 65.5163 194.222 65.5363 194.115 65.5363C194.008 65.5363 193.908 65.5163 193.815 65.4763C193.722 65.4396 193.642 65.388 193.575 65.3213C193.508 65.2546 193.455 65.1763 193.415 65.0863C193.378 64.993 193.36 64.893 193.36 64.7863ZM193.36 61.2213C193.36 61.118 193.378 61.0196 193.415 60.9263C193.455 60.833 193.508 60.753 193.575 60.6863C193.642 60.6196 193.722 60.5663 193.815 60.5263C193.908 60.4863 194.008 60.4663 194.115 60.4663C194.222 60.4663 194.32 60.4863 194.41 60.5263C194.503 60.5663 194.583 60.6196 194.65 60.6863C194.72 60.753 194.775 60.833 194.815 60.9263C194.855 61.0196 194.875 61.118 194.875 61.2213C194.875 61.328 194.855 61.428 194.815 61.5213C194.775 61.6113 194.72 61.6896 194.65 61.7563C194.583 61.823 194.503 61.8763 194.41 61.9163C194.32 61.953 194.222 61.9713 194.115 61.9713C194.008 61.9713 193.908 61.953 193.815 61.9163C193.722 61.8763 193.642 61.823 193.575 61.7563C193.508 61.6896 193.455 61.6113 193.415 61.5213C193.378 61.428 193.36 61.328 193.36 61.2213ZM203.015 64.5413V65.4663H199.015V64.5413H200.48V60.3263C200.48 60.1596 200.485 59.988 200.495 59.8113L199.455 60.6813C199.395 60.728 199.335 60.758 199.275 60.7713C199.218 60.7813 199.163 60.7813 199.11 60.7713C199.06 60.7613 199.015 60.7446 198.975 60.7213C198.935 60.6946 198.905 60.6663 198.885 60.6363L198.495 60.1013L200.7 58.2263H201.715V64.5413H203.015ZM204.071 64.7863C204.071 64.683 204.089 64.5846 204.126 64.4913C204.166 64.398 204.219 64.318 204.286 64.2513C204.352 64.1846 204.432 64.1313 204.526 64.0913C204.619 64.0513 204.719 64.0313 204.826 64.0313C204.932 64.0313 205.031 64.0513 205.121 64.0913C205.214 64.1313 205.294 64.1846 205.361 64.2513C205.431 64.318 205.486 64.398 205.526 64.4913C205.566 64.5846 205.586 64.683 205.586 64.7863C205.586 64.893 205.566 64.993 205.526 65.0863C205.486 65.1763 205.431 65.2546 205.361 65.3213C205.294 65.388 205.214 65.4396 205.121 65.4763C205.031 65.5163 204.932 65.5363 204.826 65.5363C204.719 65.5363 204.619 65.5163 204.526 65.4763C204.432 65.4396 204.352 65.388 204.286 65.3213C204.219 65.2546 204.166 65.1763 204.126 65.0863C204.089 64.993 204.071 64.893 204.071 64.7863ZM211.564 61.8513C211.564 62.4813 211.495 63.0296 211.359 63.4963C211.225 63.9596 211.039 64.343 210.799 64.6463C210.562 64.9496 210.28 65.1763 209.954 65.3263C209.63 65.473 209.28 65.5463 208.904 65.5463C208.527 65.5463 208.177 65.473 207.854 65.3263C207.534 65.1763 207.255 64.9496 207.019 64.6463C206.782 64.343 206.597 63.9596 206.464 63.4963C206.33 63.0296 206.264 62.4813 206.264 61.8513C206.264 61.218 206.33 60.6696 206.464 60.2063C206.597 59.743 206.782 59.3596 207.019 59.0563C207.255 58.753 207.534 58.528 207.854 58.3813C208.177 58.2313 208.527 58.1563 208.904 58.1563C209.28 58.1563 209.63 58.2313 209.954 58.3813C210.28 58.528 210.562 58.753 210.799 59.0563C211.039 59.3596 211.225 59.743 211.359 60.2063C211.495 60.6696 211.564 61.218 211.564 61.8513ZM210.289 61.8513C210.289 61.328 210.25 60.8946 210.174 60.5513C210.097 60.208 209.994 59.9346 209.864 59.7313C209.737 59.528 209.59 59.3863 209.424 59.3063C209.257 59.223 209.084 59.1813 208.904 59.1813C208.727 59.1813 208.555 59.223 208.389 59.3063C208.225 59.3863 208.08 59.528 207.954 59.7313C207.827 59.9346 207.725 60.208 207.649 60.5513C207.575 60.8946 207.539 61.328 207.539 61.8513C207.539 62.3746 207.575 62.808 207.649 63.1513C207.725 63.4946 207.827 63.768 207.954 63.9713C208.08 64.1746 208.225 64.318 208.389 64.4013C208.555 64.4813 208.727 64.5213 208.904 64.5213C209.084 64.5213 209.257 64.4813 209.424 64.4013C209.59 64.318 209.737 64.1746 209.864 63.9713C209.994 63.768 210.097 63.4946 210.174 63.1513C210.25 62.808 210.289 62.3746 210.289 61.8513Z" fill="#303733"/>
<path d="M272.89 57.3663H274.06V57.7963C274.06 59.5763 272.66 61.0863 270.23 61.4463L269.71 60.3763C271.84 60.0963 272.89 58.8863 272.89 57.7963V57.3663ZM273.14 57.3663H274.3V57.7963C274.3 58.8763 275.36 60.0963 277.48 60.3763L276.97 61.4463C274.54 61.0863 273.14 59.5763 273.14 57.7963V57.3663ZM272.9 62.9663H274.22V66.3563H272.9V62.9663ZM269.41 62.1263H277.78V63.2063H269.41V62.1263ZM280.859 57.8063H281.939V59.1563C281.939 61.5363 281.119 63.6863 279.279 64.5363L278.489 63.4363C280.099 62.7363 280.859 60.9563 280.859 59.1563V57.8063ZM281.119 57.8063H282.199V59.1563C282.199 60.8663 282.929 62.5663 284.509 63.2463L283.729 64.3163C281.939 63.4963 281.119 61.4363 281.119 59.1563V57.8063ZM284.949 57.0863H286.289V66.3763H284.949V57.0863ZM290.36 64.7863C290.36 64.683 290.378 64.5846 290.415 64.4913C290.455 64.398 290.508 64.318 290.575 64.2513C290.642 64.1846 290.722 64.1313 290.815 64.0913C290.908 64.0513 291.008 64.0313 291.115 64.0313C291.222 64.0313 291.32 64.0513 291.41 64.0913C291.503 64.1313 291.583 64.1846 291.65 64.2513C291.72 64.318 291.775 64.398 291.815 64.4913C291.855 64.5846 291.875 64.683 291.875 64.7863C291.875 64.893 291.855 64.993 291.815 65.0863C291.775 65.1763 291.72 65.2546 291.65 65.3213C291.583 65.388 291.503 65.4396 291.41 65.4763C291.32 65.5163 291.222 65.5363 291.115 65.5363C291.008 65.5363 290.908 65.5163 290.815 65.4763C290.722 65.4396 290.642 65.388 290.575 65.3213C290.508 65.2546 290.455 65.1763 290.415 65.0863C290.378 64.993 290.36 64.893 290.36 64.7863ZM290.36 61.2213C290.36 61.118 290.378 61.0196 290.415 60.9263C290.455 60.833 290.508 60.753 290.575 60.6863C290.642 60.6196 290.722 60.5663 290.815 60.5263C290.908 60.4863 291.008 60.4663 291.115 60.4663C291.222 60.4663 291.32 60.4863 291.41 60.5263C291.503 60.5663 291.583 60.6196 291.65 60.6863C291.72 60.753 291.775 60.833 291.815 60.9263C291.855 61.0196 291.875 61.118 291.875 61.2213C291.875 61.328 291.855 61.428 291.815 61.5213C291.775 61.6113 291.72 61.6896 291.65 61.7563C291.583 61.823 291.503 61.8763 291.41 61.9163C291.32 61.953 291.222 61.9713 291.115 61.9713C291.008 61.9713 290.908 61.953 290.815 61.9163C290.722 61.8763 290.642 61.823 290.575 61.7563C290.508 61.6896 290.455 61.6113 290.415 61.5213C290.378 61.428 290.36 61.328 290.36 61.2213ZM300.015 64.5413V65.4663H296.015V64.5413H297.48V60.3263C297.48 60.1596 297.485 59.988 297.495 59.8113L296.455 60.6813C296.395 60.728 296.335 60.758 296.275 60.7713C296.218 60.7813 296.163 60.7813 296.11 60.7713C296.06 60.7613 296.015 60.7446 295.975 60.7213C295.935 60.6946 295.905 60.6663 295.885 60.6363L295.495 60.1013L297.7 58.2263H298.715V64.5413H300.015ZM301.071 64.7863C301.071 64.683 301.089 64.5846 301.126 64.4913C301.166 64.398 301.219 64.318 301.286 64.2513C301.352 64.1846 301.432 64.1313 301.526 64.0913C301.619 64.0513 301.719 64.0313 301.826 64.0313C301.932 64.0313 302.031 64.0513 302.121 64.0913C302.214 64.1313 302.294 64.1846 302.361 64.2513C302.431 64.318 302.486 64.398 302.526 64.4913C302.566 64.5846 302.586 64.683 302.586 64.7863C302.586 64.893 302.566 64.993 302.526 65.0863C302.486 65.1763 302.431 65.2546 302.361 65.3213C302.294 65.388 302.214 65.4396 302.121 65.4763C302.031 65.5163 301.932 65.5363 301.826 65.5363C301.719 65.5363 301.619 65.5163 301.526 65.4763C301.432 65.4396 301.352 65.388 301.286 65.3213C301.219 65.2546 301.166 65.1763 301.126 65.0863C301.089 64.993 301.071 64.893 301.071 64.7863ZM308.564 61.8513C308.564 62.4813 308.495 63.0296 308.359 63.4963C308.225 63.9596 308.039 64.343 307.799 64.6463C307.562 64.9496 307.28 65.1763 306.954 65.3263C306.63 65.473 306.28 65.5463 305.904 65.5463C305.527 65.5463 305.177 65.473 304.854 65.3263C304.534 65.1763 304.255 64.9496 304.019 64.6463C303.782 64.343 303.597 63.9596 303.464 63.4963C303.33 63.0296 303.264 62.4813 303.264 61.8513C303.264 61.218 303.33 60.6696 303.464 60.2063C303.597 59.743 303.782 59.3596 304.019 59.0563C304.255 58.753 304.534 58.528 304.854 58.3813C305.177 58.2313 305.527 58.1563 305.904 58.1563C306.28 58.1563 306.63 58.2313 306.954 58.3813C307.28 58.528 307.562 58.753 307.799 59.0563C308.039 59.3596 308.225 59.743 308.359 60.2063C308.495 60.6696 308.564 61.218 308.564 61.8513ZM307.289 61.8513C307.289 61.328 307.25 60.8946 307.174 60.5513C307.097 60.208 306.994 59.9346 306.864 59.7313C306.737 59.528 306.59 59.3863 306.424 59.3063C306.257 59.223 306.084 59.1813 305.904 59.1813C305.727 59.1813 305.555 59.223 305.389 59.3063C305.225 59.3863 305.08 59.528 304.954 59.7313C304.827 59.9346 304.725 60.208 304.649 60.5513C304.575 60.8946 304.539 61.328 304.539 61.8513C304.539 62.3746 304.575 62.808 304.649 63.1513C304.725 63.4946 304.827 63.768 304.954 63.9713C305.08 64.1746 305.225 64.318 305.389 64.4013C305.555 64.4813 305.727 64.5213 305.904 64.5213C306.084 64.5213 306.257 64.4813 306.424 64.4013C306.59 64.318 306.737 64.1746 306.864 63.9713C306.994 63.768 307.097 63.4946 307.174 63.1513C307.25 62.808 307.289 62.3746 307.289 61.8513Z" fill="#303733"/>
<path d="M60.084 107.424H63.012V108.708H60.084V107.424ZM57.06 104.808H58.356V106.416C58.356 109.212 57.408 111.792 55.32 112.836L54.324 111.552C56.22 110.676 57.06 108.528 57.06 106.416V104.808ZM57.396 104.808H58.668V106.416C58.668 108.528 59.472 110.556 61.308 111.372L60.36 112.644C58.272 111.636 57.396 109.188 57.396 106.416V104.808ZM62.22 103.944H63.804V115.092H62.22V103.944ZM69.7311 109.248H71.3271V110.796H69.7311V109.248ZM70.5471 104.064C73.0791 104.064 74.5671 104.724 74.5671 105.948C74.5671 107.172 73.0791 107.844 70.5471 107.844C68.0031 107.844 66.5271 107.172 66.5271 105.948C66.5271 104.724 68.0031 104.064 70.5471 104.064ZM70.5471 105.228C68.9391 105.228 68.1831 105.456 68.1831 105.948C68.1831 106.464 68.9391 106.68 70.5471 106.68C72.1551 106.68 72.9111 106.464 72.9111 105.948C72.9111 105.456 72.1551 105.228 70.5471 105.228ZM65.5191 108.324H75.5631V109.584H65.5191V108.324ZM66.6711 110.304H74.3511V113.16H68.2551V114.144H66.6831V112.056H72.7791V111.492H66.6711V110.304ZM66.6831 113.796H74.6391V114.996H66.6831V113.796ZM84.5861 103.956H86.0981V115.068H84.5861V103.956ZM83.0981 108.228H84.9461V109.512H83.0981V108.228ZM82.1021 104.148H83.5781V114.54H82.1021V104.148ZM76.8701 111.252H77.6501C79.0181 111.252 80.1581 111.204 81.4781 110.964L81.5981 112.26C80.2541 112.524 79.0781 112.56 77.6501 112.56H76.8701V111.252ZM76.8701 105.24H80.9741V106.524H78.4541V111.876H76.8701V105.24ZM87.5972 104.928H94.1372V106.188H87.5972V104.928ZM90.8732 106.536C92.4692 106.536 93.5972 107.364 93.5972 108.588C93.5972 109.812 92.4692 110.628 90.8732 110.628C89.2652 110.628 88.1372 109.812 88.1372 108.588C88.1372 107.364 89.2652 106.536 90.8732 106.536ZM90.8732 107.736C90.1532 107.736 89.6732 108.024 89.6732 108.588C89.6732 109.14 90.1532 109.428 90.8732 109.428C91.5812 109.428 92.0732 109.14 92.0732 108.588C92.0732 108.024 91.5812 107.736 90.8732 107.736ZM94.7492 103.956H96.3452V110.928H94.7492V103.956ZM95.9012 106.824H97.8212V108.12H95.9012V106.824ZM88.9292 111.384H96.3452V115.068H94.7492V112.656H88.9292V111.384ZM90.0692 103.896H91.6652V105.648H90.0692V103.896ZM99.6203 104.892H106.652V106.176H99.6203V104.892ZM98.6483 112.44H108.692V113.736H98.6483V112.44ZM100.748 108.936H102.332V112.848H100.748V108.936ZM106.184 104.892H107.792V105.984C107.792 107.328 107.792 108.864 107.396 111.12L105.812 110.964C106.184 108.852 106.184 107.292 106.184 105.984V104.892ZM103.496 108.936H105.068V112.848H103.496V108.936Z" fill="black"/>
<path d="M59.62 121.713H61.56V122.393H59.62V121.713ZM59.62 123.333H61.56V124.013H59.62V123.333ZM54.76 120.783H59.52V121.463H54.76V120.783ZM54.61 125.143L54.52 124.443C56 124.443 58.11 124.423 59.8 124.223L59.85 124.843C58.11 125.123 56.08 125.143 54.61 125.143ZM55.66 121.313H56.46V124.673H55.66V121.313ZM57.82 121.313H58.62V124.673H57.82V121.313ZM61.1 120.103H61.93V125.683H61.1V120.103ZM58.96 125.863C60.83 125.863 61.97 126.453 61.97 127.493C61.97 128.533 60.83 129.123 58.96 129.123C57.08 129.123 55.94 128.533 55.94 127.493C55.94 126.453 57.08 125.863 58.96 125.863ZM58.96 126.513C57.59 126.513 56.77 126.873 56.77 127.493C56.77 128.113 57.59 128.483 58.96 128.483C60.33 128.483 61.15 128.113 61.15 127.493C61.15 126.873 60.33 126.513 58.96 126.513ZM64.7192 120.583H70.4892V121.263H64.7192V120.583ZM63.6992 123.983H71.8892V124.663H63.6992V123.983ZM66.4192 124.413H67.2292V126.843H66.4192V124.413ZM70.0192 120.583H70.8292V121.273C70.8292 122.073 70.8292 123.003 70.5592 124.283L69.7492 124.193C70.0192 122.933 70.0192 122.053 70.0192 121.273V120.583ZM64.6792 128.263H71.0792V128.943H64.6792V128.263ZM64.6792 126.103H65.5092V128.433H64.6792V126.103ZM68.8092 124.413H69.6192V126.843H68.8092V124.413ZM82.027 120.103H82.867V124.953H82.027V120.103ZM77.037 125.403H77.857V126.503H82.047V125.403H82.867V129.023H77.037V125.403ZM77.857 127.163V128.353H82.047V127.163H77.857ZM78.017 120.533C79.387 120.533 80.367 121.383 80.367 122.613C80.367 123.853 79.387 124.703 78.017 124.703C76.647 124.703 75.657 123.853 75.657 122.613C75.657 121.383 76.647 120.533 78.017 120.533ZM78.017 121.223C77.117 121.223 76.467 121.793 76.467 122.613C76.467 123.433 77.117 124.003 78.017 124.003C78.917 124.003 79.567 123.433 79.567 122.613C79.567 121.793 78.917 121.223 78.017 121.223ZM91.2563 120.103H92.0863V124.713H91.2563V120.103ZM88.3963 120.543H89.2962C89.2962 122.823 87.7263 124.283 85.0863 124.923L84.7963 124.243C87.1363 123.703 88.3963 122.513 88.3963 120.953V120.543ZM85.2663 120.543H88.7763V121.223H85.2663V120.543ZM88.9763 121.403H91.3963V122.063H88.9763V121.403ZM88.8963 123.133H91.3463V123.783H88.8963V123.133ZM86.2663 125.133H92.0863V127.353H87.1163V128.793H86.2963V126.713H91.2663V125.803H86.2663V125.133ZM86.2963 128.393H92.3863V129.053H86.2963V128.393ZM102.994 120.103H103.824V129.143H102.994V120.103ZM100.344 121.073H101.164C101.164 123.693 99.9841 125.983 96.9641 127.463L96.5241 126.793C99.1341 125.533 100.344 123.613 100.344 121.213V121.073ZM96.9341 121.073H100.704V121.753H96.9341V121.073ZM109.153 120.953H109.893V121.223C109.893 122.753 108.263 123.823 106.413 124.103L106.103 123.433C107.703 123.223 109.153 122.323 109.153 121.223V120.953ZM109.503 120.953H110.233V121.223C110.233 122.323 111.693 123.223 113.293 123.433L112.973 124.103C111.133 123.823 109.503 122.753 109.503 121.223V120.953ZM106.353 120.553H113.043V121.223H106.353V120.553ZM105.603 124.753H113.793V125.433H105.603V124.753ZM109.343 125.173H110.173V127.253H109.343V125.173ZM106.643 128.263H112.883V128.943H106.643V128.263ZM106.643 126.383H107.463V128.523H106.643V126.383Z" fill="#303733"/>
<path d="M177.42 110.336H179.18V111.416H177.42V110.336ZM178.82 108.096H180.15V113.596H178.82V108.096ZM177.01 113.796C178.97 113.796 180.18 114.466 180.18 115.586C180.18 116.716 178.97 117.366 177.01 117.366C175.05 117.366 173.84 116.716 173.84 115.586C173.84 114.466 175.05 113.796 177.01 113.796ZM177.01 114.806C175.81 114.806 175.17 115.056 175.17 115.586C175.17 116.106 175.81 116.356 177.01 116.356C178.22 116.356 178.86 116.106 178.86 115.586C178.86 115.056 178.22 114.806 177.01 114.806ZM174.54 109.026H175.62V109.606C175.62 111.376 174.8 112.996 173.03 113.596L172.35 112.546C173.88 112.026 174.54 110.796 174.54 109.606V109.026ZM174.82 109.026H175.89V109.606C175.89 110.696 176.52 111.826 177.98 112.316L177.33 113.366C175.61 112.796 174.82 111.256 174.82 109.606V109.026ZM172.71 108.656H177.69V109.716H172.71V108.656ZM183.859 108.806H184.939V110.156C184.939 112.536 184.119 114.686 182.279 115.536L181.489 114.436C183.099 113.736 183.859 111.956 183.859 110.156V108.806ZM184.119 108.806H185.199V110.156C185.199 111.866 185.929 113.566 187.509 114.246L186.729 115.316C184.939 114.496 184.119 112.436 184.119 110.156V108.806ZM187.949 108.086H189.289V117.376H187.949V108.086ZM193.36 115.786C193.36 115.683 193.378 115.585 193.415 115.491C193.455 115.398 193.508 115.318 193.575 115.251C193.642 115.185 193.722 115.131 193.815 115.091C193.908 115.051 194.008 115.031 194.115 115.031C194.222 115.031 194.32 115.051 194.41 115.091C194.503 115.131 194.583 115.185 194.65 115.251C194.72 115.318 194.775 115.398 194.815 115.491C194.855 115.585 194.875 115.683 194.875 115.786C194.875 115.893 194.855 115.993 194.815 116.086C194.775 116.176 194.72 116.255 194.65 116.321C194.583 116.388 194.503 116.44 194.41 116.476C194.32 116.516 194.222 116.536 194.115 116.536C194.008 116.536 193.908 116.516 193.815 116.476C193.722 116.44 193.642 116.388 193.575 116.321C193.508 116.255 193.455 116.176 193.415 116.086C193.378 115.993 193.36 115.893 193.36 115.786ZM193.36 112.221C193.36 112.118 193.378 112.02 193.415 111.926C193.455 111.833 193.508 111.753 193.575 111.686C193.642 111.62 193.722 111.566 193.815 111.526C193.908 111.486 194.008 111.466 194.115 111.466C194.222 111.466 194.32 111.486 194.41 111.526C194.503 111.566 194.583 111.62 194.65 111.686C194.72 111.753 194.775 111.833 194.815 111.926C194.855 112.02 194.875 112.118 194.875 112.221C194.875 112.328 194.855 112.428 194.815 112.521C194.775 112.611 194.72 112.69 194.65 112.756C194.583 112.823 194.503 112.876 194.41 112.916C194.32 112.953 194.222 112.971 194.115 112.971C194.008 112.971 193.908 112.953 193.815 112.916C193.722 112.876 193.642 112.823 193.575 112.756C193.508 112.69 193.455 112.611 193.415 112.521C193.378 112.428 193.36 112.328 193.36 112.221ZM203.015 115.541V116.466H199.015V115.541H200.48V111.326C200.48 111.16 200.485 110.988 200.495 110.811L199.455 111.681C199.395 111.728 199.335 111.758 199.275 111.771C199.218 111.781 199.163 111.781 199.11 111.771C199.06 111.761 199.015 111.745 198.975 111.721C198.935 111.695 198.905 111.666 198.885 111.636L198.495 111.101L200.7 109.226H201.715V115.541H203.015ZM204.071 115.786C204.071 115.683 204.089 115.585 204.126 115.491C204.166 115.398 204.219 115.318 204.286 115.251C204.352 115.185 204.432 115.131 204.526 115.091C204.619 115.051 204.719 115.031 204.826 115.031C204.932 115.031 205.031 115.051 205.121 115.091C205.214 115.131 205.294 115.185 205.361 115.251C205.431 115.318 205.486 115.398 205.526 115.491C205.566 115.585 205.586 115.683 205.586 115.786C205.586 115.893 205.566 115.993 205.526 116.086C205.486 116.176 205.431 116.255 205.361 116.321C205.294 116.388 205.214 116.44 205.121 116.476C205.031 116.516 204.932 116.536 204.826 116.536C204.719 116.536 204.619 116.516 204.526 116.476C204.432 116.44 204.352 116.388 204.286 116.321C204.219 116.255 204.166 116.176 204.126 116.086C204.089 115.993 204.071 115.893 204.071 115.786ZM211.564 112.851C211.564 113.481 211.495 114.03 211.359 114.496C211.225 114.96 211.039 115.343 210.799 115.646C210.562 115.95 210.28 116.176 209.954 116.326C209.63 116.473 209.28 116.546 208.904 116.546C208.527 116.546 208.177 116.473 207.854 116.326C207.534 116.176 207.255 115.95 207.019 115.646C206.782 115.343 206.597 114.96 206.464 114.496C206.33 114.03 206.264 113.481 206.264 112.851C206.264 112.218 206.33 111.67 206.464 111.206C206.597 110.743 206.782 110.36 207.019 110.056C207.255 109.753 207.534 109.528 207.854 109.381C208.177 109.231 208.527 109.156 208.904 109.156C209.28 109.156 209.63 109.231 209.954 109.381C210.28 109.528 210.562 109.753 210.799 110.056C211.039 110.36 211.225 110.743 211.359 111.206C211.495 111.67 211.564 112.218 211.564 112.851ZM210.289 112.851C210.289 112.328 210.25 111.895 210.174 111.551C210.097 111.208 209.994 110.935 209.864 110.731C209.737 110.528 209.59 110.386 209.424 110.306C209.257 110.223 209.084 110.181 208.904 110.181C208.727 110.181 208.555 110.223 208.389 110.306C208.225 110.386 208.08 110.528 207.954 110.731C207.827 110.935 207.725 111.208 207.649 111.551C207.575 111.895 207.539 112.328 207.539 112.851C207.539 113.375 207.575 113.808 207.649 114.151C207.725 114.495 207.827 114.768 207.954 114.971C208.08 115.175 208.225 115.318 208.389 115.401C208.555 115.481 208.727 115.521 208.904 115.521C209.084 115.521 209.257 115.481 209.424 115.401C209.59 115.318 209.737 115.175 209.864 114.971C209.994 114.768 210.097 114.495 210.174 114.151C210.25 113.808 210.289 113.375 210.289 112.851Z" fill="#303733"/>
<path d="M272.89 108.366H274.06V108.796C274.06 110.576 272.66 112.086 270.23 112.446L269.71 111.376C271.84 111.096 272.89 109.886 272.89 108.796V108.366ZM273.14 108.366H274.3V108.796C274.3 109.876 275.36 111.096 277.48 111.376L276.97 112.446C274.54 112.086 273.14 110.576 273.14 108.796V108.366ZM272.9 113.966H274.22V117.356H272.9V113.966ZM269.41 113.126H277.78V114.206H269.41V113.126ZM280.859 108.806H281.939V110.156C281.939 112.536 281.119 114.686 279.279 115.536L278.489 114.436C280.099 113.736 280.859 111.956 280.859 110.156V108.806ZM281.119 108.806H282.199V110.156C282.199 111.866 282.929 113.566 284.509 114.246L283.729 115.316C281.939 114.496 281.119 112.436 281.119 110.156V108.806ZM284.949 108.086H286.289V117.376H284.949V108.086ZM290.36 115.786C290.36 115.683 290.378 115.585 290.415 115.491C290.455 115.398 290.508 115.318 290.575 115.251C290.642 115.185 290.722 115.131 290.815 115.091C290.908 115.051 291.008 115.031 291.115 115.031C291.222 115.031 291.32 115.051 291.41 115.091C291.503 115.131 291.583 115.185 291.65 115.251C291.72 115.318 291.775 115.398 291.815 115.491C291.855 115.585 291.875 115.683 291.875 115.786C291.875 115.893 291.855 115.993 291.815 116.086C291.775 116.176 291.72 116.255 291.65 116.321C291.583 116.388 291.503 116.44 291.41 116.476C291.32 116.516 291.222 116.536 291.115 116.536C291.008 116.536 290.908 116.516 290.815 116.476C290.722 116.44 290.642 116.388 290.575 116.321C290.508 116.255 290.455 116.176 290.415 116.086C290.378 115.993 290.36 115.893 290.36 115.786ZM290.36 112.221C290.36 112.118 290.378 112.02 290.415 111.926C290.455 111.833 290.508 111.753 290.575 111.686C290.642 111.62 290.722 111.566 290.815 111.526C290.908 111.486 291.008 111.466 291.115 111.466C291.222 111.466 291.32 111.486 291.41 111.526C291.503 111.566 291.583 111.62 291.65 111.686C291.72 111.753 291.775 111.833 291.815 111.926C291.855 112.02 291.875 112.118 291.875 112.221C291.875 112.328 291.855 112.428 291.815 112.521C291.775 112.611 291.72 112.69 291.65 112.756C291.583 112.823 291.503 112.876 291.41 112.916C291.32 112.953 291.222 112.971 291.115 112.971C291.008 112.971 290.908 112.953 290.815 112.916C290.722 112.876 290.642 112.823 290.575 112.756C290.508 112.69 290.455 112.611 290.415 112.521C290.378 112.428 290.36 112.328 290.36 112.221ZM300.015 115.541V116.466H296.015V115.541H297.48V111.326C297.48 111.16 297.485 110.988 297.495 110.811L296.455 111.681C296.395 111.728 296.335 111.758 296.275 111.771C296.218 111.781 296.163 111.781 296.11 111.771C296.06 111.761 296.015 111.745 295.975 111.721C295.935 111.695 295.905 111.666 295.885 111.636L295.495 111.101L297.7 109.226H298.715V115.541H300.015ZM301.071 115.786C301.071 115.683 301.089 115.585 301.126 115.491C301.166 115.398 301.219 115.318 301.286 115.251C301.352 115.185 301.432 115.131 301.526 115.091C301.619 115.051 301.719 115.031 301.826 115.031C301.932 115.031 302.031 115.051 302.121 115.091C302.214 115.131 302.294 115.185 302.361 115.251C302.431 115.318 302.486 115.398 302.526 115.491C302.566 115.585 302.586 115.683 302.586 115.786C302.586 115.893 302.566 115.993 302.526 116.086C302.486 116.176 302.431 116.255 302.361 116.321C302.294 116.388 302.214 116.44 302.121 116.476C302.031 116.516 301.932 116.536 301.826 116.536C301.719 116.536 301.619 116.516 301.526 116.476C301.432 116.44 301.352 116.388 301.286 116.321C301.219 116.255 301.166 116.176 301.126 116.086C301.089 115.993 301.071 115.893 301.071 115.786ZM308.564 112.851C308.564 113.481 308.495 114.03 308.359 114.496C308.225 114.96 308.039 115.343 307.799 115.646C307.562 115.95 307.28 116.176 306.954 116.326C306.63 116.473 306.28 116.546 305.904 116.546C305.527 116.546 305.177 116.473 304.854 116.326C304.534 116.176 304.255 115.95 304.019 115.646C303.782 115.343 303.597 114.96 303.464 114.496C303.33 114.03 303.264 113.481 303.264 112.851C303.264 112.218 303.33 111.67 303.464 111.206C303.597 110.743 303.782 110.36 304.019 110.056C304.255 109.753 304.534 109.528 304.854 109.381C305.177 109.231 305.527 109.156 305.904 109.156C306.28 109.156 306.63 109.231 306.954 109.381C307.28 109.528 307.562 109.753 307.799 110.056C308.039 110.36 308.225 110.743 308.359 111.206C308.495 111.67 308.564 112.218 308.564 112.851ZM307.289 112.851C307.289 112.328 307.25 111.895 307.174 111.551C307.097 111.208 306.994 110.935 306.864 110.731C306.737 110.528 306.59 110.386 306.424 110.306C306.257 110.223 306.084 110.181 305.904 110.181C305.727 110.181 305.555 110.223 305.389 110.306C305.225 110.386 305.08 110.528 304.954 110.731C304.827 110.935 304.725 111.208 304.649 111.551C304.575 111.895 304.539 112.328 304.539 112.851C304.539 113.375 304.575 113.808 304.649 114.151C304.725 114.495 304.827 114.768 304.954 114.971C305.08 115.175 305.225 115.318 305.389 115.401C305.555 115.481 305.727 115.521 305.904 115.521C306.084 115.521 306.257 115.481 306.424 115.401C306.59 115.318 306.737 115.175 306.864 114.971C306.994 114.768 307.097 114.495 307.174 114.151C307.25 113.808 307.289 113.375 307.289 112.851Z" fill="#303733"/>
<path d="M60.084 158.424H63.012V159.708H60.084V158.424ZM57.06 155.808H58.356V157.416C58.356 160.212 57.408 162.792 55.32 163.836L54.324 162.552C56.22 161.676 57.06 159.528 57.06 157.416V155.808ZM57.396 155.808H58.668V157.416C58.668 159.528 59.472 161.556 61.308 162.372L60.36 163.644C58.272 162.636 57.396 160.188 57.396 157.416V155.808ZM62.22 154.944H63.804V166.092H62.22V154.944ZM69.7311 160.248H71.3271V161.796H69.7311V160.248ZM70.5471 155.064C73.0791 155.064 74.5671 155.724 74.5671 156.948C74.5671 158.172 73.0791 158.844 70.5471 158.844C68.0031 158.844 66.5271 158.172 66.5271 156.948C66.5271 155.724 68.0031 155.064 70.5471 155.064ZM70.5471 156.228C68.9391 156.228 68.1831 156.456 68.1831 156.948C68.1831 157.464 68.9391 157.68 70.5471 157.68C72.1551 157.68 72.9111 157.464 72.9111 156.948C72.9111 156.456 72.1551 156.228 70.5471 156.228ZM65.5191 159.324H75.5631V160.584H65.5191V159.324ZM66.6711 161.304H74.3511V164.16H68.2551V165.144H66.6831V163.056H72.7791V162.492H66.6711V161.304ZM66.6831 164.796H74.6391V165.996H66.6831V164.796ZM84.5861 154.956H86.0981V166.068H84.5861V154.956ZM83.0981 159.228H84.9461V160.512H83.0981V159.228ZM82.1021 155.148H83.5781V165.54H82.1021V155.148ZM76.8701 162.252H77.6501C79.0181 162.252 80.1581 162.204 81.4781 161.964L81.5981 163.26C80.2541 163.524 79.0781 163.56 77.6501 163.56H76.8701V162.252ZM76.8701 156.24H80.9741V157.524H78.4541V162.876H76.8701V156.24ZM87.5972 155.928H94.1372V157.188H87.5972V155.928ZM90.8732 157.536C92.4692 157.536 93.5972 158.364 93.5972 159.588C93.5972 160.812 92.4692 161.628 90.8732 161.628C89.2652 161.628 88.1372 160.812 88.1372 159.588C88.1372 158.364 89.2652 157.536 90.8732 157.536ZM90.8732 158.736C90.1532 158.736 89.6732 159.024 89.6732 159.588C89.6732 160.14 90.1532 160.428 90.8732 160.428C91.5812 160.428 92.0732 160.14 92.0732 159.588C92.0732 159.024 91.5812 158.736 90.8732 158.736ZM94.7492 154.956H96.3452V161.928H94.7492V154.956ZM95.9012 157.824H97.8212V159.12H95.9012V157.824ZM88.9292 162.384H96.3452V166.068H94.7492V163.656H88.9292V162.384ZM90.0692 154.896H91.6652V156.648H90.0692V154.896ZM99.6203 155.892H106.652V157.176H99.6203V155.892ZM98.6483 163.44H108.692V164.736H98.6483V163.44ZM100.748 159.936H102.332V163.848H100.748V159.936ZM106.184 155.892H107.792V156.984C107.792 158.328 107.792 159.864 107.396 162.12L105.812 161.964C106.184 159.852 106.184 158.292 106.184 156.984V155.892ZM103.496 159.936H105.068V163.848H103.496V159.936Z" fill="black"/>
<path d="M59.62 172.713H61.56V173.393H59.62V172.713ZM59.62 174.333H61.56V175.013H59.62V174.333ZM54.76 171.783H59.52V172.463H54.76V171.783ZM54.61 176.143L54.52 175.443C56 175.443 58.11 175.423 59.8 175.223L59.85 175.843C58.11 176.123 56.08 176.143 54.61 176.143ZM55.66 172.313H56.46V175.673H55.66V172.313ZM57.82 172.313H58.62V175.673H57.82V172.313ZM61.1 171.103H61.93V176.683H61.1V171.103ZM58.96 176.863C60.83 176.863 61.97 177.453 61.97 178.493C61.97 179.533 60.83 180.123 58.96 180.123C57.08 180.123 55.94 179.533 55.94 178.493C55.94 177.453 57.08 176.863 58.96 176.863ZM58.96 177.513C57.59 177.513 56.77 177.873 56.77 178.493C56.77 179.113 57.59 179.483 58.96 179.483C60.33 179.483 61.15 179.113 61.15 178.493C61.15 177.873 60.33 177.513 58.96 177.513ZM64.7192 171.583H70.4892V172.263H64.7192V171.583ZM63.6992 174.983H71.8892V175.663H63.6992V174.983ZM66.4192 175.413H67.2292V177.843H66.4192V175.413ZM70.0192 171.583H70.8292V172.273C70.8292 173.073 70.8292 174.003 70.5592 175.283L69.7492 175.193C70.0192 173.933 70.0192 173.053 70.0192 172.273V171.583ZM64.6792 179.263H71.0792V179.943H64.6792V179.263ZM64.6792 177.103H65.5092V179.433H64.6792V177.103ZM68.8092 175.413H69.6192V177.843H68.8092V175.413ZM82.027 171.103H82.867V175.953H82.027V171.103ZM77.037 176.403H77.857V177.503H82.047V176.403H82.867V180.023H77.037V176.403ZM77.857 178.163V179.353H82.047V178.163H77.857ZM78.017 171.533C79.387 171.533 80.367 172.383 80.367 173.613C80.367 174.853 79.387 175.703 78.017 175.703C76.647 175.703 75.657 174.853 75.657 173.613C75.657 172.383 76.647 171.533 78.017 171.533ZM78.017 172.223C77.117 172.223 76.467 172.793 76.467 173.613C76.467 174.433 77.117 175.003 78.017 175.003C78.917 175.003 79.567 174.433 79.567 173.613C79.567 172.793 78.917 172.223 78.017 172.223ZM91.2563 171.103H92.0863V175.713H91.2563V171.103ZM88.3963 171.543H89.2962C89.2962 173.823 87.7263 175.283 85.0863 175.923L84.7963 175.243C87.1363 174.703 88.3963 173.513 88.3963 171.953V171.543ZM85.2663 171.543H88.7763V172.223H85.2663V171.543ZM88.9763 172.403H91.3963V173.063H88.9763V172.403ZM88.8963 174.133H91.3463V174.783H88.8963V174.133ZM86.2663 176.133H92.0863V178.353H87.1163V179.793H86.2963V177.713H91.2663V176.803H86.2663V176.133ZM86.2963 179.393H92.3863V180.053H86.2963V179.393ZM102.994 171.103H103.824V180.143H102.994V171.103ZM100.344 172.073H101.164C101.164 174.693 99.9841 176.983 96.9641 178.463L96.5241 177.793C99.1341 176.533 100.344 174.613 100.344 172.213V172.073ZM96.9341 172.073H100.704V172.753H96.9341V172.073ZM109.153 171.953H109.893V172.223C109.893 173.753 108.263 174.823 106.413 175.103L106.103 174.433C107.703 174.223 109.153 173.323 109.153 172.223V171.953ZM109.503 171.953H110.233V172.223C110.233 173.323 111.693 174.223 113.293 174.433L112.973 175.103C111.133 174.823 109.503 173.753 109.503 172.223V171.953ZM106.353 171.553H113.043V172.223H106.353V171.553ZM105.603 175.753H113.793V176.433H105.603V175.753ZM109.343 176.173H110.173V178.253H109.343V176.173ZM106.643 179.263H112.883V179.943H106.643V179.263ZM106.643 177.383H107.463V179.523H106.643V177.383Z" fill="#303733"/>
<path d="M177.42 161.336H179.18V162.416H177.42V161.336ZM178.82 159.096H180.15V164.596H178.82V159.096ZM177.01 164.796C178.97 164.796 180.18 165.466 180.18 166.586C180.18 167.716 178.97 168.366 177.01 168.366C175.05 168.366 173.84 167.716 173.84 166.586C173.84 165.466 175.05 164.796 177.01 164.796ZM177.01 165.806C175.81 165.806 175.17 166.056 175.17 166.586C175.17 167.106 175.81 167.356 177.01 167.356C178.22 167.356 178.86 167.106 178.86 166.586C178.86 166.056 178.22 165.806 177.01 165.806ZM174.54 160.026H175.62V160.606C175.62 162.376 174.8 163.996 173.03 164.596L172.35 163.546C173.88 163.026 174.54 161.796 174.54 160.606V160.026ZM174.82 160.026H175.89V160.606C175.89 161.696 176.52 162.826 177.98 163.316L177.33 164.366C175.61 163.796 174.82 162.256 174.82 160.606V160.026ZM172.71 159.656H177.69V160.716H172.71V159.656ZM183.859 159.806H184.939V161.156C184.939 163.536 184.119 165.686 182.279 166.536L181.489 165.436C183.099 164.736 183.859 162.956 183.859 161.156V159.806ZM184.119 159.806H185.199V161.156C185.199 162.866 185.929 164.566 187.509 165.246L186.729 166.316C184.939 165.496 184.119 163.436 184.119 161.156V159.806ZM187.949 159.086H189.289V168.376H187.949V159.086ZM193.36 166.786C193.36 166.683 193.378 166.585 193.415 166.491C193.455 166.398 193.508 166.318 193.575 166.251C193.642 166.185 193.722 166.131 193.815 166.091C193.908 166.051 194.008 166.031 194.115 166.031C194.222 166.031 194.32 166.051 194.41 166.091C194.503 166.131 194.583 166.185 194.65 166.251C194.72 166.318 194.775 166.398 194.815 166.491C194.855 166.585 194.875 166.683 194.875 166.786C194.875 166.893 194.855 166.993 194.815 167.086C194.775 167.176 194.72 167.255 194.65 167.321C194.583 167.388 194.503 167.44 194.41 167.476C194.32 167.516 194.222 167.536 194.115 167.536C194.008 167.536 193.908 167.516 193.815 167.476C193.722 167.44 193.642 167.388 193.575 167.321C193.508 167.255 193.455 167.176 193.415 167.086C193.378 166.993 193.36 166.893 193.36 166.786ZM193.36 163.221C193.36 163.118 193.378 163.02 193.415 162.926C193.455 162.833 193.508 162.753 193.575 162.686C193.642 162.62 193.722 162.566 193.815 162.526C193.908 162.486 194.008 162.466 194.115 162.466C194.222 162.466 194.32 162.486 194.41 162.526C194.503 162.566 194.583 162.62 194.65 162.686C194.72 162.753 194.775 162.833 194.815 162.926C194.855 163.02 194.875 163.118 194.875 163.221C194.875 163.328 194.855 163.428 194.815 163.521C194.775 163.611 194.72 163.69 194.65 163.756C194.583 163.823 194.503 163.876 194.41 163.916C194.32 163.953 194.222 163.971 194.115 163.971C194.008 163.971 193.908 163.953 193.815 163.916C193.722 163.876 193.642 163.823 193.575 163.756C193.508 163.69 193.455 163.611 193.415 163.521C193.378 163.428 193.36 163.328 193.36 163.221ZM203.015 166.541V167.466H199.015V166.541H200.48V162.326C200.48 162.16 200.485 161.988 200.495 161.811L199.455 162.681C199.395 162.728 199.335 162.758 199.275 162.771C199.218 162.781 199.163 162.781 199.11 162.771C199.06 162.761 199.015 162.745 198.975 162.721C198.935 162.695 198.905 162.666 198.885 162.636L198.495 162.101L200.7 160.226H201.715V166.541H203.015ZM204.071 166.786C204.071 166.683 204.089 166.585 204.126 166.491C204.166 166.398 204.219 166.318 204.286 166.251C204.352 166.185 204.432 166.131 204.526 166.091C204.619 166.051 204.719 166.031 204.826 166.031C204.932 166.031 205.031 166.051 205.121 166.091C205.214 166.131 205.294 166.185 205.361 166.251C205.431 166.318 205.486 166.398 205.526 166.491C205.566 166.585 205.586 166.683 205.586 166.786C205.586 166.893 205.566 166.993 205.526 167.086C205.486 167.176 205.431 167.255 205.361 167.321C205.294 167.388 205.214 167.44 205.121 167.476C205.031 167.516 204.932 167.536 204.826 167.536C204.719 167.536 204.619 167.516 204.526 167.476C204.432 167.44 204.352 167.388 204.286 167.321C204.219 167.255 204.166 167.176 204.126 167.086C204.089 166.993 204.071 166.893 204.071 166.786ZM211.564 163.851C211.564 164.481 211.495 165.03 211.359 165.496C211.225 165.96 211.039 166.343 210.799 166.646C210.562 166.95 210.28 167.176 209.954 167.326C209.63 167.473 209.28 167.546 208.904 167.546C208.527 167.546 208.177 167.473 207.854 167.326C207.534 167.176 207.255 166.95 207.019 166.646C206.782 166.343 206.597 165.96 206.464 165.496C206.33 165.03 206.264 164.481 206.264 163.851C206.264 163.218 206.33 162.67 206.464 162.206C206.597 161.743 206.782 161.36 207.019 161.056C207.255 160.753 207.534 160.528 207.854 160.381C208.177 160.231 208.527 160.156 208.904 160.156C209.28 160.156 209.63 160.231 209.954 160.381C210.28 160.528 210.562 160.753 210.799 161.056C211.039 161.36 211.225 161.743 211.359 162.206C211.495 162.67 211.564 163.218 211.564 163.851ZM210.289 163.851C210.289 163.328 210.25 162.895 210.174 162.551C210.097 162.208 209.994 161.935 209.864 161.731C209.737 161.528 209.59 161.386 209.424 161.306C209.257 161.223 209.084 161.181 208.904 161.181C208.727 161.181 208.555 161.223 208.389 161.306C208.225 161.386 208.08 161.528 207.954 161.731C207.827 161.935 207.725 162.208 207.649 162.551C207.575 162.895 207.539 163.328 207.539 163.851C207.539 164.375 207.575 164.808 207.649 165.151C207.725 165.495 207.827 165.768 207.954 165.971C208.08 166.175 208.225 166.318 208.389 166.401C208.555 166.481 208.727 166.521 208.904 166.521C209.084 166.521 209.257 166.481 209.424 166.401C209.59 166.318 209.737 166.175 209.864 165.971C209.994 165.768 210.097 165.495 210.174 165.151C210.25 164.808 210.289 164.375 210.289 163.851Z" fill="#303733"/>
<path d="M272.89 159.366H274.06V159.796C274.06 161.576 272.66 163.086 270.23 163.446L269.71 162.376C271.84 162.096 272.89 160.886 272.89 159.796V159.366ZM273.14 159.366H274.3V159.796C274.3 160.876 275.36 162.096 277.48 162.376L276.97 163.446C274.54 163.086 273.14 161.576 273.14 159.796V159.366ZM272.9 164.966H274.22V168.356H272.9V164.966ZM269.41 164.126H277.78V165.206H269.41V164.126ZM280.859 159.806H281.939V161.156C281.939 163.536 281.119 165.686 279.279 166.536L278.489 165.436C280.099 164.736 280.859 162.956 280.859 161.156V159.806ZM281.119 159.806H282.199V161.156C282.199 162.866 282.929 164.566 284.509 165.246L283.729 166.316C281.939 165.496 281.119 163.436 281.119 161.156V159.806ZM284.949 159.086H286.289V168.376H284.949V159.086ZM290.36 166.786C290.36 166.683 290.378 166.585 290.415 166.491C290.455 166.398 290.508 166.318 290.575 166.251C290.642 166.185 290.722 166.131 290.815 166.091C290.908 166.051 291.008 166.031 291.115 166.031C291.222 166.031 291.32 166.051 291.41 166.091C291.503 166.131 291.583 166.185 291.65 166.251C291.72 166.318 291.775 166.398 291.815 166.491C291.855 166.585 291.875 166.683 291.875 166.786C291.875 166.893 291.855 166.993 291.815 167.086C291.775 167.176 291.72 167.255 291.65 167.321C291.583 167.388 291.503 167.44 291.41 167.476C291.32 167.516 291.222 167.536 291.115 167.536C291.008 167.536 290.908 167.516 290.815 167.476C290.722 167.44 290.642 167.388 290.575 167.321C290.508 167.255 290.455 167.176 290.415 167.086C290.378 166.993 290.36 166.893 290.36 166.786ZM290.36 163.221C290.36 163.118 290.378 163.02 290.415 162.926C290.455 162.833 290.508 162.753 290.575 162.686C290.642 162.62 290.722 162.566 290.815 162.526C290.908 162.486 291.008 162.466 291.115 162.466C291.222 162.466 291.32 162.486 291.41 162.526C291.503 162.566 291.583 162.62 291.65 162.686C291.72 162.753 291.775 162.833 291.815 162.926C291.855 163.02 291.875 163.118 291.875 163.221C291.875 163.328 291.855 163.428 291.815 163.521C291.775 163.611 291.72 163.69 291.65 163.756C291.583 163.823 291.503 163.876 291.41 163.916C291.32 163.953 291.222 163.971 291.115 163.971C291.008 163.971 290.908 163.953 290.815 163.916C290.722 163.876 290.642 163.823 290.575 163.756C290.508 163.69 290.455 163.611 290.415 163.521C290.378 163.428 290.36 163.328 290.36 163.221ZM300.015 166.541V167.466H296.015V166.541H297.48V162.326C297.48 162.16 297.485 161.988 297.495 161.811L296.455 162.681C296.395 162.728 296.335 162.758 296.275 162.771C296.218 162.781 296.163 162.781 296.11 162.771C296.06 162.761 296.015 162.745 295.975 162.721C295.935 162.695 295.905 162.666 295.885 162.636L295.495 162.101L297.7 160.226H298.715V166.541H300.015ZM301.071 166.786C301.071 166.683 301.089 166.585 301.126 166.491C301.166 166.398 301.219 166.318 301.286 166.251C301.352 166.185 301.432 166.131 301.526 166.091C301.619 166.051 301.719 166.031 301.826 166.031C301.932 166.031 302.031 166.051 302.121 166.091C302.214 166.131 302.294 166.185 302.361 166.251C302.431 166.318 302.486 166.398 302.526 166.491C302.566 166.585 302.586 166.683 302.586 166.786C302.586 166.893 302.566 166.993 302.526 167.086C302.486 167.176 302.431 167.255 302.361 167.321C302.294 167.388 302.214 167.44 302.121 167.476C302.031 167.516 301.932 167.536 301.826 167.536C301.719 167.536 301.619 167.516 301.526 167.476C301.432 167.44 301.352 167.388 301.286 167.321C301.219 167.255 301.166 167.176 301.126 167.086C301.089 166.993 301.071 166.893 301.071 166.786ZM308.564 163.851C308.564 164.481 308.495 165.03 308.359 165.496C308.225 165.96 308.039 166.343 307.799 166.646C307.562 166.95 307.28 167.176 306.954 167.326C306.63 167.473 306.28 167.546 305.904 167.546C305.527 167.546 305.177 167.473 304.854 167.326C304.534 167.176 304.255 166.95 304.019 166.646C303.782 166.343 303.597 165.96 303.464 165.496C303.33 165.03 303.264 164.481 303.264 163.851C303.264 163.218 303.33 162.67 303.464 162.206C303.597 161.743 303.782 161.36 304.019 161.056C304.255 160.753 304.534 160.528 304.854 160.381C305.177 160.231 305.527 160.156 305.904 160.156C306.28 160.156 306.63 160.231 306.954 160.381C307.28 160.528 307.562 160.753 307.799 161.056C308.039 161.36 308.225 161.743 308.359 162.206C308.495 162.67 308.564 163.218 308.564 163.851ZM307.289 163.851C307.289 163.328 307.25 162.895 307.174 162.551C307.097 162.208 306.994 161.935 306.864 161.731C306.737 161.528 306.59 161.386 306.424 161.306C306.257 161.223 306.084 161.181 305.904 161.181C305.727 161.181 305.555 161.223 305.389 161.306C305.225 161.386 305.08 161.528 304.954 161.731C304.827 161.935 304.725 162.208 304.649 162.551C304.575 162.895 304.539 163.328 304.539 163.851C304.539 164.375 304.575 164.808 304.649 165.151C304.725 165.495 304.827 165.768 304.954 165.971C305.08 166.175 305.225 166.318 305.389 166.401C305.555 166.481 305.727 166.521 305.904 166.521C306.084 166.521 306.257 166.481 306.424 166.401C306.59 166.318 306.737 166.175 306.864 165.971C306.994 165.768 307.097 165.495 307.174 165.151C307.25 164.808 307.289 164.375 307.289 163.851Z" fill="#303733"/>
<defs>
<filter id="filter0_d_1324_12" x="0" y="0.569946" width="398" height="285.43" filterUnits="userSpaceOnUse" color-interpolation-filters="sRGB">
<feFlood flood-opacity="0" result="BackgroundImageFix"/>
<feColorMatrix in="SourceAlpha" type="matrix" values="0 0 0 0 0 0 0 0 0 0 0 0 0 0 0 0 0 0 127 0" result="hardAlpha"/>
<feOffset dy="5"/>
<feGaussianBlur stdDeviation="20"/>
<feComposite in2="hardAlpha" operator="out"/>
<feColorMatrix type="matrix" values="0 0 0 0 0 0 0 0 0 0 0 0 0 0 0 0 0 0 0.12 0"/>
<feBlend mode="normal" in2="BackgroundImageFix" result="effect1_dropShadow_1324_12"/>
<feBlend mode="normal" in="SourceGraphic" in2="effect1_dropShadow_1324_12" result="shape"/>
</filter>
</defs>
</svg>
